<?xml version="1.0" encoding="utf-8" standalone="no"?>
<!DOCTYPE svg PUBLIC "-//W3C//DTD SVG 1.1//EN"
  "http://www.w3.org/Graphics/SVG/1.1/DTD/svg11.dtd">
<svg xmlns:xlink="http://www.w3.org/1999/xlink" width="620.074749pt" height="276.80151pt" viewBox="0 0 620.074749 276.80151" xmlns="http://www.w3.org/2000/svg" version="1.1">
 <metadata>
  <rdf:RDF xmlns:dc="http://purl.org/dc/elements/1.1/" xmlns:cc="http://creativecommons.org/ns#" xmlns:rdf="http://www.w3.org/1999/02/22-rdf-syntax-ns#">
   <cc:Work>
    <dc:type rdf:resource="http://purl.org/dc/dcmitype/StillImage"/>
    <dc:date>2026-01-27T16:41:57.523005</dc:date>
    <dc:format>image/svg+xml</dc:format>
    <dc:creator>
     <cc:Agent>
      <dc:title>Matplotlib v3.10.5, https://matplotlib.org/</dc:title>
     </cc:Agent>
    </dc:creator>
   </cc:Work>
  </rdf:RDF>
 </metadata>
 <defs>
  <style type="text/css">*{stroke-linejoin: round; stroke-linecap: butt}</style>
 </defs>
 <g id="figure_1">
  <g id="patch_1">
   <path d="M 0 276.80151 
L 620.074749 276.80151 
L 620.074749 0 
L 0 0 
z
" style="fill: #ffffff"/>
  </g>
  <g id="axes_1">
   <g id="patch_2">
    <path d="M 54.874749 188.263125 
L 612.874749 188.263125 
L 612.874749 21.943125 
L 54.874749 21.943125 
z
" style="fill: #ffffff"/>
   </g>
   <g id="line2d_1">
    <path d="M 54.874749 161.221646 
L 612.874749 161.221646 
" clip-path="url(#p550d862e24)" style="fill: none; stroke-dasharray: 4.44,1.92; stroke-dashoffset: 0; stroke: #808080; stroke-opacity: 0.5; stroke-width: 1.2"/>
   </g>
   <g id="matplotlib.axis_1">
    <g id="xtick_1">
     <g id="text_1">
      <!-- Whole Body OFF -->
      <g style="fill: #ca9700" transform="translate(13.382323 267.815624) rotate(-45) scale(0.12 -0.12)">
       <defs>
        <path id="ArialMT-57" d="M 1294 0 
L 78 4581 
L 700 4581 
L 1397 1578 
Q 1509 1106 1591 641 
Q 1766 1375 1797 1488 
L 2669 4581 
L 3400 4581 
L 4056 2263 
Q 4303 1400 4413 641 
Q 4500 1075 4641 1638 
L 5359 4581 
L 5969 4581 
L 4713 0 
L 4128 0 
L 3163 3491 
Q 3041 3928 3019 4028 
Q 2947 3713 2884 3491 
L 1913 0 
L 1294 0 
z
" transform="scale(0.015625)"/>
        <path id="ArialMT-68" d="M 422 0 
L 422 4581 
L 984 4581 
L 984 2938 
Q 1378 3394 1978 3394 
Q 2347 3394 2619 3248 
Q 2891 3103 3008 2847 
Q 3125 2591 3125 2103 
L 3125 0 
L 2563 0 
L 2563 2103 
Q 2563 2525 2380 2717 
Q 2197 2909 1863 2909 
Q 1613 2909 1392 2779 
Q 1172 2650 1078 2428 
Q 984 2206 984 1816 
L 984 0 
L 422 0 
z
" transform="scale(0.015625)"/>
        <path id="ArialMT-6f" d="M 213 1659 
Q 213 2581 725 3025 
Q 1153 3394 1769 3394 
Q 2453 3394 2887 2945 
Q 3322 2497 3322 1706 
Q 3322 1066 3130 698 
Q 2938 331 2570 128 
Q 2203 -75 1769 -75 
Q 1072 -75 642 372 
Q 213 819 213 1659 
z
M 791 1659 
Q 791 1022 1069 705 
Q 1347 388 1769 388 
Q 2188 388 2466 706 
Q 2744 1025 2744 1678 
Q 2744 2294 2464 2611 
Q 2184 2928 1769 2928 
Q 1347 2928 1069 2612 
Q 791 2297 791 1659 
z
" transform="scale(0.015625)"/>
        <path id="ArialMT-6c" d="M 409 0 
L 409 4581 
L 972 4581 
L 972 0 
L 409 0 
z
" transform="scale(0.015625)"/>
        <path id="ArialMT-65" d="M 2694 1069 
L 3275 997 
Q 3138 488 2766 206 
Q 2394 -75 1816 -75 
Q 1088 -75 661 373 
Q 234 822 234 1631 
Q 234 2469 665 2931 
Q 1097 3394 1784 3394 
Q 2450 3394 2872 2941 
Q 3294 2488 3294 1666 
Q 3294 1616 3291 1516 
L 816 1516 
Q 847 969 1125 678 
Q 1403 388 1819 388 
Q 2128 388 2347 550 
Q 2566 713 2694 1069 
z
M 847 1978 
L 2700 1978 
Q 2663 2397 2488 2606 
Q 2219 2931 1791 2931 
Q 1403 2931 1139 2672 
Q 875 2413 847 1978 
z
" transform="scale(0.015625)"/>
        <path id="ArialMT-20" transform="scale(0.015625)"/>
        <path id="ArialMT-42" d="M 469 0 
L 469 4581 
L 2188 4581 
Q 2713 4581 3030 4442 
Q 3347 4303 3526 4014 
Q 3706 3725 3706 3409 
Q 3706 3116 3547 2856 
Q 3388 2597 3066 2438 
Q 3481 2316 3704 2022 
Q 3928 1728 3928 1328 
Q 3928 1006 3792 729 
Q 3656 453 3456 303 
Q 3256 153 2954 76 
Q 2653 0 2216 0 
L 469 0 
z
M 1075 2656 
L 2066 2656 
Q 2469 2656 2644 2709 
Q 2875 2778 2992 2937 
Q 3109 3097 3109 3338 
Q 3109 3566 3000 3739 
Q 2891 3913 2687 3977 
Q 2484 4041 1991 4041 
L 1075 4041 
L 1075 2656 
z
M 1075 541 
L 2216 541 
Q 2509 541 2628 563 
Q 2838 600 2978 687 
Q 3119 775 3209 942 
Q 3300 1109 3300 1328 
Q 3300 1584 3169 1773 
Q 3038 1963 2805 2039 
Q 2572 2116 2134 2116 
L 1075 2116 
L 1075 541 
z
" transform="scale(0.015625)"/>
        <path id="ArialMT-64" d="M 2575 0 
L 2575 419 
Q 2259 -75 1647 -75 
Q 1250 -75 917 144 
Q 584 363 401 755 
Q 219 1147 219 1656 
Q 219 2153 384 2558 
Q 550 2963 881 3178 
Q 1213 3394 1622 3394 
Q 1922 3394 2156 3267 
Q 2391 3141 2538 2938 
L 2538 4581 
L 3097 4581 
L 3097 0 
L 2575 0 
z
M 797 1656 
Q 797 1019 1065 703 
Q 1334 388 1700 388 
Q 2069 388 2326 689 
Q 2584 991 2584 1609 
Q 2584 2291 2321 2609 
Q 2059 2928 1675 2928 
Q 1300 2928 1048 2622 
Q 797 2316 797 1656 
z
" transform="scale(0.015625)"/>
        <path id="ArialMT-79" d="M 397 -1278 
L 334 -750 
Q 519 -800 656 -800 
Q 844 -800 956 -737 
Q 1069 -675 1141 -563 
Q 1194 -478 1313 -144 
Q 1328 -97 1363 -6 
L 103 3319 
L 709 3319 
L 1400 1397 
Q 1534 1031 1641 628 
Q 1738 1016 1872 1384 
L 2581 3319 
L 3144 3319 
L 1881 -56 
Q 1678 -603 1566 -809 
Q 1416 -1088 1222 -1217 
Q 1028 -1347 759 -1347 
Q 597 -1347 397 -1278 
z
" transform="scale(0.015625)"/>
        <path id="ArialMT-4f" d="M 309 2231 
Q 309 3372 921 4017 
Q 1534 4663 2503 4663 
Q 3138 4663 3647 4359 
Q 4156 4056 4423 3514 
Q 4691 2972 4691 2284 
Q 4691 1588 4409 1038 
Q 4128 488 3612 205 
Q 3097 -78 2500 -78 
Q 1853 -78 1343 234 
Q 834 547 571 1087 
Q 309 1628 309 2231 
z
M 934 2222 
Q 934 1394 1379 917 
Q 1825 441 2497 441 
Q 3181 441 3623 922 
Q 4066 1403 4066 2288 
Q 4066 2847 3877 3264 
Q 3688 3681 3323 3911 
Q 2959 4141 2506 4141 
Q 1863 4141 1398 3698 
Q 934 3256 934 2222 
z
" transform="scale(0.015625)"/>
        <path id="ArialMT-46" d="M 525 0 
L 525 4581 
L 3616 4581 
L 3616 4041 
L 1131 4041 
L 1131 2622 
L 3281 2622 
L 3281 2081 
L 1131 2081 
L 1131 0 
L 525 0 
z
" transform="scale(0.015625)"/>
       </defs>
       <use xlink:href="#ArialMT-57"/>
       <use xlink:href="#ArialMT-68" transform="translate(94.384766 0)"/>
       <use xlink:href="#ArialMT-6f" transform="translate(150 0)"/>
       <use xlink:href="#ArialMT-6c" transform="translate(205.615234 0)"/>
       <use xlink:href="#ArialMT-65" transform="translate(227.832031 0)"/>
       <use xlink:href="#ArialMT-20" transform="translate(283.447266 0)"/>
       <use xlink:href="#ArialMT-42" transform="translate(311.230469 0)"/>
       <use xlink:href="#ArialMT-6f" transform="translate(377.929688 0)"/>
       <use xlink:href="#ArialMT-64" transform="translate(433.544922 0)"/>
       <use xlink:href="#ArialMT-79" transform="translate(489.160156 0)"/>
       <use xlink:href="#ArialMT-20" transform="translate(539.160156 0)"/>
       <use xlink:href="#ArialMT-4f" transform="translate(566.943359 0)"/>
       <use xlink:href="#ArialMT-46" transform="translate(644.726562 0)"/>
       <use xlink:href="#ArialMT-46" transform="translate(705.810547 0)"/>
      </g>
     </g>
    </g>
    <g id="xtick_2">
     <g id="text_2">
      <!-- GABS ON -->
      <g style="fill: #1e88e5" transform="translate(66.585459 241.301771) rotate(-45) scale(0.12 -0.12)">
       <defs>
        <path id="ArialMT-47" d="M 2638 1797 
L 2638 2334 
L 4578 2338 
L 4578 638 
Q 4131 281 3656 101 
Q 3181 -78 2681 -78 
Q 2006 -78 1454 211 
Q 903 500 622 1047 
Q 341 1594 341 2269 
Q 341 2938 620 3517 
Q 900 4097 1425 4378 
Q 1950 4659 2634 4659 
Q 3131 4659 3532 4498 
Q 3934 4338 4162 4050 
Q 4391 3763 4509 3300 
L 3963 3150 
Q 3859 3500 3706 3700 
Q 3553 3900 3268 4020 
Q 2984 4141 2638 4141 
Q 2222 4141 1919 4014 
Q 1616 3888 1430 3681 
Q 1244 3475 1141 3228 
Q 966 2803 966 2306 
Q 966 1694 1177 1281 
Q 1388 869 1791 669 
Q 2194 469 2647 469 
Q 3041 469 3416 620 
Q 3791 772 3984 944 
L 3984 1797 
L 2638 1797 
z
" transform="scale(0.015625)"/>
        <path id="ArialMT-41" d="M -9 0 
L 1750 4581 
L 2403 4581 
L 4278 0 
L 3588 0 
L 3053 1388 
L 1138 1388 
L 634 0 
L -9 0 
z
M 1313 1881 
L 2866 1881 
L 2388 3150 
Q 2169 3728 2063 4100 
Q 1975 3659 1816 3225 
L 1313 1881 
z
" transform="scale(0.015625)"/>
        <path id="ArialMT-53" d="M 288 1472 
L 859 1522 
Q 900 1178 1048 958 
Q 1197 738 1509 602 
Q 1822 466 2213 466 
Q 2559 466 2825 569 
Q 3091 672 3220 851 
Q 3350 1031 3350 1244 
Q 3350 1459 3225 1620 
Q 3100 1781 2813 1891 
Q 2628 1963 1997 2114 
Q 1366 2266 1113 2400 
Q 784 2572 623 2826 
Q 463 3081 463 3397 
Q 463 3744 659 4045 
Q 856 4347 1234 4503 
Q 1613 4659 2075 4659 
Q 2584 4659 2973 4495 
Q 3363 4331 3572 4012 
Q 3781 3694 3797 3291 
L 3216 3247 
Q 3169 3681 2898 3903 
Q 2628 4125 2100 4125 
Q 1550 4125 1298 3923 
Q 1047 3722 1047 3438 
Q 1047 3191 1225 3031 
Q 1400 2872 2139 2705 
Q 2878 2538 3153 2413 
Q 3553 2228 3743 1945 
Q 3934 1663 3934 1294 
Q 3934 928 3725 604 
Q 3516 281 3123 101 
Q 2731 -78 2241 -78 
Q 1619 -78 1198 103 
Q 778 284 539 648 
Q 300 1013 288 1472 
z
" transform="scale(0.015625)"/>
        <path id="ArialMT-4e" d="M 488 0 
L 488 4581 
L 1109 4581 
L 3516 984 
L 3516 4581 
L 4097 4581 
L 4097 0 
L 3475 0 
L 1069 3600 
L 1069 0 
L 488 0 
z
" transform="scale(0.015625)"/>
       </defs>
       <use xlink:href="#ArialMT-47"/>
       <use xlink:href="#ArialMT-41" transform="translate(77.783203 0)"/>
       <use xlink:href="#ArialMT-42" transform="translate(144.482422 0)"/>
       <use xlink:href="#ArialMT-53" transform="translate(211.181641 0)"/>
       <use xlink:href="#ArialMT-20" transform="translate(277.880859 0)"/>
       <use xlink:href="#ArialMT-4f" transform="translate(305.664062 0)"/>
       <use xlink:href="#ArialMT-4e" transform="translate(383.447266 0)"/>
      </g>
     </g>
    </g>
    <g id="xtick_3">
     <g id="text_3">
      <!-- Age -->
      <g style="fill: #004d40" transform="translate(116.752456 217.733902) rotate(-45) scale(0.12 -0.12)">
       <defs>
        <path id="ArialMT-67" d="M 319 -275 
L 866 -356 
Q 900 -609 1056 -725 
Q 1266 -881 1628 -881 
Q 2019 -881 2231 -725 
Q 2444 -569 2519 -288 
Q 2563 -116 2559 434 
Q 2191 0 1641 0 
Q 956 0 581 494 
Q 206 988 206 1678 
Q 206 2153 378 2554 
Q 550 2956 876 3175 
Q 1203 3394 1644 3394 
Q 2231 3394 2613 2919 
L 2613 3319 
L 3131 3319 
L 3131 450 
Q 3131 -325 2973 -648 
Q 2816 -972 2473 -1159 
Q 2131 -1347 1631 -1347 
Q 1038 -1347 672 -1080 
Q 306 -813 319 -275 
z
M 784 1719 
Q 784 1066 1043 766 
Q 1303 466 1694 466 
Q 2081 466 2343 764 
Q 2606 1063 2606 1700 
Q 2606 2309 2336 2618 
Q 2066 2928 1684 2928 
Q 1309 2928 1046 2623 
Q 784 2319 784 1719 
z
" transform="scale(0.015625)"/>
       </defs>
       <use xlink:href="#ArialMT-41"/>
       <use xlink:href="#ArialMT-67" transform="translate(66.699219 0)"/>
       <use xlink:href="#ArialMT-65" transform="translate(122.314453 0)"/>
      </g>
     </g>
    </g>
    <g id="xtick_4">
     <g id="text_4">
      <!-- UPDRS III OFF -->
      <g style="fill: #1e88e5" transform="translate(100.191996 261.092364) rotate(-45) scale(0.12 -0.12)">
       <defs>
        <path id="ArialMT-55" d="M 3500 4581 
L 4106 4581 
L 4106 1934 
Q 4106 1244 3950 837 
Q 3794 431 3386 176 
Q 2978 -78 2316 -78 
Q 1672 -78 1262 144 
Q 853 366 678 786 
Q 503 1206 503 1934 
L 503 4581 
L 1109 4581 
L 1109 1938 
Q 1109 1341 1220 1058 
Q 1331 775 1601 622 
Q 1872 469 2263 469 
Q 2931 469 3215 772 
Q 3500 1075 3500 1938 
L 3500 4581 
z
" transform="scale(0.015625)"/>
        <path id="ArialMT-50" d="M 494 0 
L 494 4581 
L 2222 4581 
Q 2678 4581 2919 4538 
Q 3256 4481 3484 4323 
Q 3713 4166 3852 3881 
Q 3991 3597 3991 3256 
Q 3991 2672 3619 2267 
Q 3247 1863 2275 1863 
L 1100 1863 
L 1100 0 
L 494 0 
z
M 1100 2403 
L 2284 2403 
Q 2872 2403 3119 2622 
Q 3366 2841 3366 3238 
Q 3366 3525 3220 3729 
Q 3075 3934 2838 4000 
Q 2684 4041 2272 4041 
L 1100 4041 
L 1100 2403 
z
" transform="scale(0.015625)"/>
        <path id="ArialMT-44" d="M 494 0 
L 494 4581 
L 2072 4581 
Q 2606 4581 2888 4516 
Q 3281 4425 3559 4188 
Q 3922 3881 4101 3404 
Q 4281 2928 4281 2316 
Q 4281 1794 4159 1391 
Q 4038 988 3847 723 
Q 3656 459 3429 307 
Q 3203 156 2883 78 
Q 2563 0 2147 0 
L 494 0 
z
M 1100 541 
L 2078 541 
Q 2531 541 2789 625 
Q 3047 709 3200 863 
Q 3416 1078 3536 1442 
Q 3656 1806 3656 2325 
Q 3656 3044 3420 3430 
Q 3184 3816 2847 3947 
Q 2603 4041 2063 4041 
L 1100 4041 
L 1100 541 
z
" transform="scale(0.015625)"/>
        <path id="ArialMT-52" d="M 503 0 
L 503 4581 
L 2534 4581 
Q 3147 4581 3465 4457 
Q 3784 4334 3975 4021 
Q 4166 3709 4166 3331 
Q 4166 2844 3850 2509 
Q 3534 2175 2875 2084 
Q 3116 1969 3241 1856 
Q 3506 1613 3744 1247 
L 4541 0 
L 3778 0 
L 3172 953 
Q 2906 1366 2734 1584 
Q 2563 1803 2427 1890 
Q 2291 1978 2150 2013 
Q 2047 2034 1813 2034 
L 1109 2034 
L 1109 0 
L 503 0 
z
M 1109 2559 
L 2413 2559 
Q 2828 2559 3062 2645 
Q 3297 2731 3419 2920 
Q 3541 3109 3541 3331 
Q 3541 3656 3305 3865 
Q 3069 4075 2559 4075 
L 1109 4075 
L 1109 2559 
z
" transform="scale(0.015625)"/>
        <path id="ArialMT-49" d="M 597 0 
L 597 4581 
L 1203 4581 
L 1203 0 
L 597 0 
z
" transform="scale(0.015625)"/>
       </defs>
       <use xlink:href="#ArialMT-55"/>
       <use xlink:href="#ArialMT-50" transform="translate(72.216797 0)"/>
       <use xlink:href="#ArialMT-44" transform="translate(138.916016 0)"/>
       <use xlink:href="#ArialMT-52" transform="translate(211.132812 0)"/>
       <use xlink:href="#ArialMT-53" transform="translate(283.349609 0)"/>
       <use xlink:href="#ArialMT-20" transform="translate(350.048828 0)"/>
       <use xlink:href="#ArialMT-49" transform="translate(377.832031 0)"/>
       <use xlink:href="#ArialMT-49" transform="translate(405.615234 0)"/>
       <use xlink:href="#ArialMT-49" transform="translate(433.398438 0)"/>
       <use xlink:href="#ArialMT-20" transform="translate(461.181641 0)"/>
       <use xlink:href="#ArialMT-4f" transform="translate(488.964844 0)"/>
       <use xlink:href="#ArialMT-46" transform="translate(566.748047 0)"/>
       <use xlink:href="#ArialMT-46" transform="translate(627.832031 0)"/>
      </g>
     </g>
    </g>
    <g id="xtick_5">
     <g id="text_5">
      <!-- Pace OFF -->
      <g style="fill: #d81b60" transform="translate(146.683805 241.299119) rotate(-45) scale(0.12 -0.12)">
       <defs>
        <path id="ArialMT-61" d="M 2588 409 
Q 2275 144 1986 34 
Q 1697 -75 1366 -75 
Q 819 -75 525 192 
Q 231 459 231 875 
Q 231 1119 342 1320 
Q 453 1522 633 1644 
Q 813 1766 1038 1828 
Q 1203 1872 1538 1913 
Q 2219 1994 2541 2106 
Q 2544 2222 2544 2253 
Q 2544 2597 2384 2738 
Q 2169 2928 1744 2928 
Q 1347 2928 1158 2789 
Q 969 2650 878 2297 
L 328 2372 
Q 403 2725 575 2942 
Q 747 3159 1072 3276 
Q 1397 3394 1825 3394 
Q 2250 3394 2515 3294 
Q 2781 3194 2906 3042 
Q 3031 2891 3081 2659 
Q 3109 2516 3109 2141 
L 3109 1391 
Q 3109 606 3145 398 
Q 3181 191 3288 0 
L 2700 0 
Q 2613 175 2588 409 
z
M 2541 1666 
Q 2234 1541 1622 1453 
Q 1275 1403 1131 1340 
Q 988 1278 909 1158 
Q 831 1038 831 891 
Q 831 666 1001 516 
Q 1172 366 1500 366 
Q 1825 366 2078 508 
Q 2331 650 2450 897 
Q 2541 1088 2541 1459 
L 2541 1666 
z
" transform="scale(0.015625)"/>
        <path id="ArialMT-63" d="M 2588 1216 
L 3141 1144 
Q 3050 572 2676 248 
Q 2303 -75 1759 -75 
Q 1078 -75 664 370 
Q 250 816 250 1647 
Q 250 2184 428 2587 
Q 606 2991 970 3192 
Q 1334 3394 1763 3394 
Q 2303 3394 2647 3120 
Q 2991 2847 3088 2344 
L 2541 2259 
Q 2463 2594 2264 2762 
Q 2066 2931 1784 2931 
Q 1359 2931 1093 2626 
Q 828 2322 828 1663 
Q 828 994 1084 691 
Q 1341 388 1753 388 
Q 2084 388 2306 591 
Q 2528 794 2588 1216 
z
" transform="scale(0.015625)"/>
       </defs>
       <use xlink:href="#ArialMT-50"/>
       <use xlink:href="#ArialMT-61" transform="translate(66.699219 0)"/>
       <use xlink:href="#ArialMT-63" transform="translate(122.314453 0)"/>
       <use xlink:href="#ArialMT-65" transform="translate(172.314453 0)"/>
       <use xlink:href="#ArialMT-20" transform="translate(227.929688 0)"/>
       <use xlink:href="#ArialMT-4f" transform="translate(255.712891 0)"/>
       <use xlink:href="#ArialMT-46" transform="translate(333.496094 0)"/>
       <use xlink:href="#ArialMT-46" transform="translate(394.580078 0)"/>
      </g>
     </g>
    </g>
    <g id="xtick_6">
     <g id="text_6">
      <!-- Asymmetry OFF -->
      <g style="fill: #d81b60" transform="translate(150.197664 264.493106) rotate(-45) scale(0.12 -0.12)">
       <defs>
        <path id="ArialMT-73" d="M 197 991 
L 753 1078 
Q 800 744 1014 566 
Q 1228 388 1613 388 
Q 2000 388 2187 545 
Q 2375 703 2375 916 
Q 2375 1106 2209 1216 
Q 2094 1291 1634 1406 
Q 1016 1563 777 1677 
Q 538 1791 414 1992 
Q 291 2194 291 2438 
Q 291 2659 392 2848 
Q 494 3038 669 3163 
Q 800 3259 1026 3326 
Q 1253 3394 1513 3394 
Q 1903 3394 2198 3281 
Q 2494 3169 2634 2976 
Q 2775 2784 2828 2463 
L 2278 2388 
Q 2241 2644 2061 2787 
Q 1881 2931 1553 2931 
Q 1166 2931 1000 2803 
Q 834 2675 834 2503 
Q 834 2394 903 2306 
Q 972 2216 1119 2156 
Q 1203 2125 1616 2013 
Q 2213 1853 2448 1751 
Q 2684 1650 2818 1456 
Q 2953 1263 2953 975 
Q 2953 694 2789 445 
Q 2625 197 2315 61 
Q 2006 -75 1616 -75 
Q 969 -75 630 194 
Q 291 463 197 991 
z
" transform="scale(0.015625)"/>
        <path id="ArialMT-6d" d="M 422 0 
L 422 3319 
L 925 3319 
L 925 2853 
Q 1081 3097 1340 3245 
Q 1600 3394 1931 3394 
Q 2300 3394 2536 3241 
Q 2772 3088 2869 2813 
Q 3263 3394 3894 3394 
Q 4388 3394 4653 3120 
Q 4919 2847 4919 2278 
L 4919 0 
L 4359 0 
L 4359 2091 
Q 4359 2428 4304 2576 
Q 4250 2725 4106 2815 
Q 3963 2906 3769 2906 
Q 3419 2906 3187 2673 
Q 2956 2441 2956 1928 
L 2956 0 
L 2394 0 
L 2394 2156 
Q 2394 2531 2256 2718 
Q 2119 2906 1806 2906 
Q 1569 2906 1367 2781 
Q 1166 2656 1075 2415 
Q 984 2175 984 1722 
L 984 0 
L 422 0 
z
" transform="scale(0.015625)"/>
        <path id="ArialMT-74" d="M 1650 503 
L 1731 6 
Q 1494 -44 1306 -44 
Q 1000 -44 831 53 
Q 663 150 594 308 
Q 525 466 525 972 
L 525 2881 
L 113 2881 
L 113 3319 
L 525 3319 
L 525 4141 
L 1084 4478 
L 1084 3319 
L 1650 3319 
L 1650 2881 
L 1084 2881 
L 1084 941 
Q 1084 700 1114 631 
Q 1144 563 1211 522 
Q 1278 481 1403 481 
Q 1497 481 1650 503 
z
" transform="scale(0.015625)"/>
        <path id="ArialMT-72" d="M 416 0 
L 416 3319 
L 922 3319 
L 922 2816 
Q 1116 3169 1280 3281 
Q 1444 3394 1641 3394 
Q 1925 3394 2219 3213 
L 2025 2691 
Q 1819 2813 1613 2813 
Q 1428 2813 1281 2702 
Q 1134 2591 1072 2394 
Q 978 2094 978 1738 
L 978 0 
L 416 0 
z
" transform="scale(0.015625)"/>
       </defs>
       <use xlink:href="#ArialMT-41"/>
       <use xlink:href="#ArialMT-73" transform="translate(66.699219 0)"/>
       <use xlink:href="#ArialMT-79" transform="translate(116.699219 0)"/>
       <use xlink:href="#ArialMT-6d" transform="translate(166.699219 0)"/>
       <use xlink:href="#ArialMT-6d" transform="translate(250 0)"/>
       <use xlink:href="#ArialMT-65" transform="translate(333.300781 0)"/>
       <use xlink:href="#ArialMT-74" transform="translate(388.916016 0)"/>
       <use xlink:href="#ArialMT-72" transform="translate(416.699219 0)"/>
       <use xlink:href="#ArialMT-79" transform="translate(450 0)"/>
       <use xlink:href="#ArialMT-20" transform="translate(500 0)"/>
       <use xlink:href="#ArialMT-4f" transform="translate(527.783203 0)"/>
       <use xlink:href="#ArialMT-46" transform="translate(605.566406 0)"/>
       <use xlink:href="#ArialMT-46" transform="translate(666.650391 0)"/>
      </g>
     </g>
    </g>
    <g id="xtick_7">
     <g id="text_7">
      <!-- Pace ON -->
      <g style="fill: #d81b60" transform="translate(204.318271 237.061782) rotate(-45) scale(0.12 -0.12)">
       <use xlink:href="#ArialMT-50"/>
       <use xlink:href="#ArialMT-61" transform="translate(66.699219 0)"/>
       <use xlink:href="#ArialMT-63" transform="translate(122.314453 0)"/>
       <use xlink:href="#ArialMT-65" transform="translate(172.314453 0)"/>
       <use xlink:href="#ArialMT-20" transform="translate(227.929688 0)"/>
       <use xlink:href="#ArialMT-4f" transform="translate(255.712891 0)"/>
       <use xlink:href="#ArialMT-4e" transform="translate(333.496094 0)"/>
      </g>
     </g>
    </g>
    <g id="xtick_8">
     <g id="text_8">
      <!-- UPDRS III ON -->
      <g style="fill: #1e88e5" transform="translate(211.223591 256.855027) rotate(-45) scale(0.12 -0.12)">
       <use xlink:href="#ArialMT-55"/>
       <use xlink:href="#ArialMT-50" transform="translate(72.216797 0)"/>
       <use xlink:href="#ArialMT-44" transform="translate(138.916016 0)"/>
       <use xlink:href="#ArialMT-52" transform="translate(211.132812 0)"/>
       <use xlink:href="#ArialMT-53" transform="translate(283.349609 0)"/>
       <use xlink:href="#ArialMT-20" transform="translate(350.048828 0)"/>
       <use xlink:href="#ArialMT-49" transform="translate(377.832031 0)"/>
       <use xlink:href="#ArialMT-49" transform="translate(405.615234 0)"/>
       <use xlink:href="#ArialMT-49" transform="translate(433.398438 0)"/>
       <use xlink:href="#ArialMT-20" transform="translate(461.181641 0)"/>
       <use xlink:href="#ArialMT-4f" transform="translate(488.964844 0)"/>
       <use xlink:href="#ArialMT-4e" transform="translate(566.748047 0)"/>
      </g>
     </g>
    </g>
    <g id="xtick_9">
     <g id="text_9">
      <!-- BMI -->
      <g style="fill: #004d40" transform="translate(277.055213 217.72197) rotate(-45) scale(0.12 -0.12)">
       <defs>
        <path id="ArialMT-4d" d="M 475 0 
L 475 4581 
L 1388 4581 
L 2472 1338 
Q 2622 884 2691 659 
Q 2769 909 2934 1394 
L 4031 4581 
L 4847 4581 
L 4847 0 
L 4263 0 
L 4263 3834 
L 2931 0 
L 2384 0 
L 1059 3900 
L 1059 0 
L 475 0 
z
" transform="scale(0.015625)"/>
       </defs>
       <use xlink:href="#ArialMT-42"/>
       <use xlink:href="#ArialMT-4d" transform="translate(66.699219 0)"/>
       <use xlink:href="#ArialMT-49" transform="translate(150 0)"/>
      </g>
     </g>
    </g>
    <g id="xtick_10">
     <g id="text_10">
      <!-- Disease Duration -->
      <g style="fill: #004d40" transform="translate(253.756909 267.718838) rotate(-45) scale(0.12 -0.12)">
       <defs>
        <path id="ArialMT-69" d="M 425 3934 
L 425 4581 
L 988 4581 
L 988 3934 
L 425 3934 
z
M 425 0 
L 425 3319 
L 988 3319 
L 988 0 
L 425 0 
z
" transform="scale(0.015625)"/>
        <path id="ArialMT-75" d="M 2597 0 
L 2597 488 
Q 2209 -75 1544 -75 
Q 1250 -75 995 37 
Q 741 150 617 320 
Q 494 491 444 738 
Q 409 903 409 1263 
L 409 3319 
L 972 3319 
L 972 1478 
Q 972 1038 1006 884 
Q 1059 663 1231 536 
Q 1403 409 1656 409 
Q 1909 409 2131 539 
Q 2353 669 2445 892 
Q 2538 1116 2538 1541 
L 2538 3319 
L 3100 3319 
L 3100 0 
L 2597 0 
z
" transform="scale(0.015625)"/>
        <path id="ArialMT-6e" d="M 422 0 
L 422 3319 
L 928 3319 
L 928 2847 
Q 1294 3394 1984 3394 
Q 2284 3394 2536 3286 
Q 2788 3178 2913 3003 
Q 3038 2828 3088 2588 
Q 3119 2431 3119 2041 
L 3119 0 
L 2556 0 
L 2556 2019 
Q 2556 2363 2490 2533 
Q 2425 2703 2258 2804 
Q 2091 2906 1866 2906 
Q 1506 2906 1245 2678 
Q 984 2450 984 1813 
L 984 0 
L 422 0 
z
" transform="scale(0.015625)"/>
       </defs>
       <use xlink:href="#ArialMT-44"/>
       <use xlink:href="#ArialMT-69" transform="translate(72.216797 0)"/>
       <use xlink:href="#ArialMT-73" transform="translate(94.433594 0)"/>
       <use xlink:href="#ArialMT-65" transform="translate(144.433594 0)"/>
       <use xlink:href="#ArialMT-61" transform="translate(200.048828 0)"/>
       <use xlink:href="#ArialMT-73" transform="translate(255.664062 0)"/>
       <use xlink:href="#ArialMT-65" transform="translate(305.664062 0)"/>
       <use xlink:href="#ArialMT-20" transform="translate(361.279297 0)"/>
       <use xlink:href="#ArialMT-44" transform="translate(389.0625 0)"/>
       <use xlink:href="#ArialMT-75" transform="translate(461.279297 0)"/>
       <use xlink:href="#ArialMT-72" transform="translate(516.894531 0)"/>
       <use xlink:href="#ArialMT-61" transform="translate(550.195312 0)"/>
       <use xlink:href="#ArialMT-74" transform="translate(605.810547 0)"/>
       <use xlink:href="#ArialMT-69" transform="translate(633.59375 0)"/>
       <use xlink:href="#ArialMT-6f" transform="translate(655.810547 0)"/>
       <use xlink:href="#ArialMT-6e" transform="translate(711.425781 0)"/>
      </g>
     </g>
    </g>
    <g id="xtick_11">
     <g id="text_11">
      <!-- Whole Body ON -->
      <g style="fill: #ca9700" transform="translate(284.605306 263.578286) rotate(-45) scale(0.12 -0.12)">
       <use xlink:href="#ArialMT-57"/>
       <use xlink:href="#ArialMT-68" transform="translate(94.384766 0)"/>
       <use xlink:href="#ArialMT-6f" transform="translate(150 0)"/>
       <use xlink:href="#ArialMT-6c" transform="translate(205.615234 0)"/>
       <use xlink:href="#ArialMT-65" transform="translate(227.832031 0)"/>
       <use xlink:href="#ArialMT-20" transform="translate(283.447266 0)"/>
       <use xlink:href="#ArialMT-42" transform="translate(311.230469 0)"/>
       <use xlink:href="#ArialMT-6f" transform="translate(377.929688 0)"/>
       <use xlink:href="#ArialMT-64" transform="translate(433.544922 0)"/>
       <use xlink:href="#ArialMT-79" transform="translate(489.160156 0)"/>
       <use xlink:href="#ArialMT-20" transform="translate(539.160156 0)"/>
       <use xlink:href="#ArialMT-4f" transform="translate(566.943359 0)"/>
       <use xlink:href="#ArialMT-4e" transform="translate(644.726562 0)"/>
      </g>
     </g>
    </g>
    <g id="xtick_12">
     <g id="text_12">
      <!-- Balance ON -->
      <g style="fill: #d81b60" transform="translate(326.488547 248.384329) rotate(-45) scale(0.12 -0.12)">
       <use xlink:href="#ArialMT-42"/>
       <use xlink:href="#ArialMT-61" transform="translate(66.699219 0)"/>
       <use xlink:href="#ArialMT-6c" transform="translate(122.314453 0)"/>
       <use xlink:href="#ArialMT-61" transform="translate(144.53125 0)"/>
       <use xlink:href="#ArialMT-6e" transform="translate(200.146484 0)"/>
       <use xlink:href="#ArialMT-63" transform="translate(255.761719 0)"/>
       <use xlink:href="#ArialMT-65" transform="translate(305.761719 0)"/>
       <use xlink:href="#ArialMT-20" transform="translate(361.376953 0)"/>
       <use xlink:href="#ArialMT-4f" transform="translate(389.160156 0)"/>
       <use xlink:href="#ArialMT-4e" transform="translate(466.943359 0)"/>
      </g>
     </g>
    </g>
    <g id="xtick_13">
     <g id="text_13">
      <!-- GABS OFF -->
      <g style="fill: #1e88e5" transform="translate(356.032333 245.539108) rotate(-45) scale(0.12 -0.12)">
       <use xlink:href="#ArialMT-47"/>
       <use xlink:href="#ArialMT-41" transform="translate(77.783203 0)"/>
       <use xlink:href="#ArialMT-42" transform="translate(144.482422 0)"/>
       <use xlink:href="#ArialMT-53" transform="translate(211.181641 0)"/>
       <use xlink:href="#ArialMT-20" transform="translate(277.880859 0)"/>
       <use xlink:href="#ArialMT-4f" transform="translate(305.664062 0)"/>
       <use xlink:href="#ArialMT-46" transform="translate(383.447266 0)"/>
       <use xlink:href="#ArialMT-46" transform="translate(444.53125 0)"/>
      </g>
     </g>
    </g>
    <g id="xtick_14">
     <g id="text_14">
      <!-- FOG PREOP -->
      <g style="fill: #1e88e5" transform="translate(375.185626 253.08438) rotate(-45) scale(0.12 -0.12)">
       <defs>
        <path id="ArialMT-45" d="M 506 0 
L 506 4581 
L 3819 4581 
L 3819 4041 
L 1113 4041 
L 1113 2638 
L 3647 2638 
L 3647 2100 
L 1113 2100 
L 1113 541 
L 3925 541 
L 3925 0 
L 506 0 
z
" transform="scale(0.015625)"/>
       </defs>
       <use xlink:href="#ArialMT-46"/>
       <use xlink:href="#ArialMT-4f" transform="translate(61.083984 0)"/>
       <use xlink:href="#ArialMT-47" transform="translate(138.867188 0)"/>
       <use xlink:href="#ArialMT-20" transform="translate(216.650391 0)"/>
       <use xlink:href="#ArialMT-50" transform="translate(244.433594 0)"/>
       <use xlink:href="#ArialMT-52" transform="translate(311.132812 0)"/>
       <use xlink:href="#ArialMT-45" transform="translate(383.349609 0)"/>
       <use xlink:href="#ArialMT-4f" transform="translate(450.048828 0)"/>
       <use xlink:href="#ArialMT-50" transform="translate(527.832031 0)"/>
      </g>
     </g>
    </g>
    <g id="xtick_15">
     <g id="text_15">
      <!-- Asymmetry ON -->
      <g style="fill: #d81b60" transform="translate(394.722083 260.255768) rotate(-45) scale(0.12 -0.12)">
       <use xlink:href="#ArialMT-41"/>
       <use xlink:href="#ArialMT-73" transform="translate(66.699219 0)"/>
       <use xlink:href="#ArialMT-79" transform="translate(116.699219 0)"/>
       <use xlink:href="#ArialMT-6d" transform="translate(166.699219 0)"/>
       <use xlink:href="#ArialMT-6d" transform="translate(250 0)"/>
       <use xlink:href="#ArialMT-65" transform="translate(333.300781 0)"/>
       <use xlink:href="#ArialMT-74" transform="translate(388.916016 0)"/>
       <use xlink:href="#ArialMT-72" transform="translate(416.699219 0)"/>
       <use xlink:href="#ArialMT-79" transform="translate(450 0)"/>
       <use xlink:href="#ArialMT-20" transform="translate(500 0)"/>
       <use xlink:href="#ArialMT-4f" transform="translate(527.783203 0)"/>
       <use xlink:href="#ArialMT-4e" transform="translate(605.566406 0)"/>
      </g>
     </g>
    </g>
    <g id="xtick_16">
     <g id="text_16">
      <!-- Balance OFF -->
      <g style="fill: #d81b60" transform="translate(429.045468 252.621667) rotate(-45) scale(0.12 -0.12)">
       <use xlink:href="#ArialMT-42"/>
       <use xlink:href="#ArialMT-61" transform="translate(66.699219 0)"/>
       <use xlink:href="#ArialMT-6c" transform="translate(122.314453 0)"/>
       <use xlink:href="#ArialMT-61" transform="translate(144.53125 0)"/>
       <use xlink:href="#ArialMT-6e" transform="translate(200.146484 0)"/>
       <use xlink:href="#ArialMT-63" transform="translate(255.761719 0)"/>
       <use xlink:href="#ArialMT-65" transform="translate(305.761719 0)"/>
       <use xlink:href="#ArialMT-20" transform="translate(361.376953 0)"/>
       <use xlink:href="#ArialMT-4f" transform="translate(389.160156 0)"/>
       <use xlink:href="#ArialMT-46" transform="translate(466.943359 0)"/>
       <use xlink:href="#ArialMT-46" transform="translate(528.027344 0)"/>
      </g>
     </g>
    </g>
    <g id="xtick_17">
     <g id="text_17">
      <!-- Rhythm OFF -->
      <g style="fill: #d81b60" transform="translate(457.073835 251.301145) rotate(-45) scale(0.12 -0.12)">
       <use xlink:href="#ArialMT-52"/>
       <use xlink:href="#ArialMT-68" transform="translate(72.216797 0)"/>
       <use xlink:href="#ArialMT-79" transform="translate(127.832031 0)"/>
       <use xlink:href="#ArialMT-74" transform="translate(177.832031 0)"/>
       <use xlink:href="#ArialMT-68" transform="translate(205.615234 0)"/>
       <use xlink:href="#ArialMT-6d" transform="translate(261.230469 0)"/>
       <use xlink:href="#ArialMT-20" transform="translate(344.53125 0)"/>
       <use xlink:href="#ArialMT-4f" transform="translate(372.314453 0)"/>
       <use xlink:href="#ArialMT-46" transform="translate(450.097656 0)"/>
       <use xlink:href="#ArialMT-46" transform="translate(511.181641 0)"/>
      </g>
     </g>
    </g>
    <g id="xtick_18">
     <g id="text_18">
      <!-- Variability OFF -->
      <g style="fill: #d81b60" transform="translate(476.848941 258.224604) rotate(-45) scale(0.12 -0.12)">
       <defs>
        <path id="ArialMT-56" d="M 1803 0 
L 28 4581 
L 684 4581 
L 1875 1253 
Q 2019 853 2116 503 
Q 2222 878 2363 1253 
L 3600 4581 
L 4219 4581 
L 2425 0 
L 1803 0 
z
" transform="scale(0.015625)"/>
        <path id="ArialMT-62" d="M 941 0 
L 419 0 
L 419 4581 
L 981 4581 
L 981 2947 
Q 1338 3394 1891 3394 
Q 2197 3394 2470 3270 
Q 2744 3147 2920 2923 
Q 3097 2700 3197 2384 
Q 3297 2069 3297 1709 
Q 3297 856 2875 390 
Q 2453 -75 1863 -75 
Q 1275 -75 941 416 
L 941 0 
z
M 934 1684 
Q 934 1088 1097 822 
Q 1363 388 1816 388 
Q 2184 388 2453 708 
Q 2722 1028 2722 1663 
Q 2722 2313 2464 2622 
Q 2206 2931 1841 2931 
Q 1472 2931 1203 2611 
Q 934 2291 934 1684 
z
" transform="scale(0.015625)"/>
       </defs>
       <use xlink:href="#ArialMT-56"/>
       <use xlink:href="#ArialMT-61" transform="translate(59.324219 0)"/>
       <use xlink:href="#ArialMT-72" transform="translate(114.939453 0)"/>
       <use xlink:href="#ArialMT-69" transform="translate(148.240234 0)"/>
       <use xlink:href="#ArialMT-61" transform="translate(170.457031 0)"/>
       <use xlink:href="#ArialMT-62" transform="translate(226.072266 0)"/>
       <use xlink:href="#ArialMT-69" transform="translate(281.6875 0)"/>
       <use xlink:href="#ArialMT-6c" transform="translate(303.904297 0)"/>
       <use xlink:href="#ArialMT-69" transform="translate(326.121094 0)"/>
       <use xlink:href="#ArialMT-74" transform="translate(348.337891 0)"/>
       <use xlink:href="#ArialMT-79" transform="translate(376.121094 0)"/>
       <use xlink:href="#ArialMT-20" transform="translate(426.121094 0)"/>
       <use xlink:href="#ArialMT-4f" transform="translate(453.904297 0)"/>
       <use xlink:href="#ArialMT-46" transform="translate(531.6875 0)"/>
       <use xlink:href="#ArialMT-46" transform="translate(592.771484 0)"/>
      </g>
     </g>
    </g>
    <g id="xtick_19">
     <g id="text_19">
      <!-- Variability ON -->
      <g style="fill: #d81b60" transform="translate(507.784843 253.987267) rotate(-45) scale(0.12 -0.12)">
       <use xlink:href="#ArialMT-56"/>
       <use xlink:href="#ArialMT-61" transform="translate(59.324219 0)"/>
       <use xlink:href="#ArialMT-72" transform="translate(114.939453 0)"/>
       <use xlink:href="#ArialMT-69" transform="translate(148.240234 0)"/>
       <use xlink:href="#ArialMT-61" transform="translate(170.457031 0)"/>
       <use xlink:href="#ArialMT-62" transform="translate(226.072266 0)"/>
       <use xlink:href="#ArialMT-69" transform="translate(281.6875 0)"/>
       <use xlink:href="#ArialMT-6c" transform="translate(303.904297 0)"/>
       <use xlink:href="#ArialMT-69" transform="translate(326.121094 0)"/>
       <use xlink:href="#ArialMT-74" transform="translate(348.337891 0)"/>
       <use xlink:href="#ArialMT-79" transform="translate(376.121094 0)"/>
       <use xlink:href="#ArialMT-20" transform="translate(426.121094 0)"/>
       <use xlink:href="#ArialMT-4f" transform="translate(453.904297 0)"/>
       <use xlink:href="#ArialMT-4e" transform="translate(531.6875 0)"/>
      </g>
     </g>
    </g>
    <g id="xtick_20">
     <g id="text_20">
      <!-- Rhythm ON -->
      <g style="fill: #d81b60" transform="translate(541.406867 247.063807) rotate(-45) scale(0.12 -0.12)">
       <use xlink:href="#ArialMT-52"/>
       <use xlink:href="#ArialMT-68" transform="translate(72.216797 0)"/>
       <use xlink:href="#ArialMT-79" transform="translate(127.832031 0)"/>
       <use xlink:href="#ArialMT-74" transform="translate(177.832031 0)"/>
       <use xlink:href="#ArialMT-68" transform="translate(205.615234 0)"/>
       <use xlink:href="#ArialMT-6d" transform="translate(261.230469 0)"/>
       <use xlink:href="#ArialMT-20" transform="translate(344.53125 0)"/>
       <use xlink:href="#ArialMT-4f" transform="translate(372.314453 0)"/>
       <use xlink:href="#ArialMT-4e" transform="translate(450.097656 0)"/>
      </g>
     </g>
    </g>
   </g>
   <g id="matplotlib.axis_2">
    <g id="ytick_1">
     <g id="text_21">
      <!-- 0 -->
      <g style="fill: #262626" transform="translate(38.789436 166.232114) scale(0.14 -0.14)">
       <defs>
        <path id="ArialMT-30" d="M 266 2259 
Q 266 3072 433 3567 
Q 600 4063 929 4331 
Q 1259 4600 1759 4600 
Q 2128 4600 2406 4451 
Q 2684 4303 2865 4023 
Q 3047 3744 3150 3342 
Q 3253 2941 3253 2259 
Q 3253 1453 3087 958 
Q 2922 463 2592 192 
Q 2263 -78 1759 -78 
Q 1097 -78 719 397 
Q 266 969 266 2259 
z
M 844 2259 
Q 844 1131 1108 757 
Q 1372 384 1759 384 
Q 2147 384 2411 759 
Q 2675 1134 2675 2259 
Q 2675 3391 2411 3762 
Q 2147 4134 1753 4134 
Q 1366 4134 1134 3806 
Q 844 3388 844 2259 
z
" transform="scale(0.015625)"/>
       </defs>
       <use xlink:href="#ArialMT-30"/>
      </g>
     </g>
    </g>
    <g id="ytick_2">
     <g id="text_22">
      <!-- 1 -->
      <g style="fill: #262626" transform="translate(38.789436 131.819833) scale(0.14 -0.14)">
       <defs>
        <path id="ArialMT-31" d="M 2384 0 
L 1822 0 
L 1822 3584 
Q 1619 3391 1289 3197 
Q 959 3003 697 2906 
L 697 3450 
Q 1169 3672 1522 3987 
Q 1875 4303 2022 4600 
L 2384 4600 
L 2384 0 
z
" transform="scale(0.015625)"/>
       </defs>
       <use xlink:href="#ArialMT-31"/>
      </g>
     </g>
    </g>
    <g id="ytick_3">
     <g id="text_23">
      <!-- 2 -->
      <g style="fill: #262626" transform="translate(38.789436 97.407552) scale(0.14 -0.14)">
       <defs>
        <path id="ArialMT-32" d="M 3222 541 
L 3222 0 
L 194 0 
Q 188 203 259 391 
Q 375 700 629 1000 
Q 884 1300 1366 1694 
Q 2113 2306 2375 2664 
Q 2638 3022 2638 3341 
Q 2638 3675 2398 3904 
Q 2159 4134 1775 4134 
Q 1369 4134 1125 3890 
Q 881 3647 878 3216 
L 300 3275 
Q 359 3922 746 4261 
Q 1134 4600 1788 4600 
Q 2447 4600 2831 4234 
Q 3216 3869 3216 3328 
Q 3216 3053 3103 2787 
Q 2991 2522 2730 2228 
Q 2469 1934 1863 1422 
Q 1356 997 1212 845 
Q 1069 694 975 541 
L 3222 541 
z
" transform="scale(0.015625)"/>
       </defs>
       <use xlink:href="#ArialMT-32"/>
      </g>
     </g>
    </g>
    <g id="ytick_4">
     <g id="text_24">
      <!-- 3 -->
      <g style="fill: #262626" transform="translate(38.789436 62.995271) scale(0.14 -0.14)">
       <defs>
        <path id="ArialMT-33" d="M 269 1209 
L 831 1284 
Q 928 806 1161 595 
Q 1394 384 1728 384 
Q 2125 384 2398 659 
Q 2672 934 2672 1341 
Q 2672 1728 2419 1979 
Q 2166 2231 1775 2231 
Q 1616 2231 1378 2169 
L 1441 2663 
Q 1497 2656 1531 2656 
Q 1891 2656 2178 2843 
Q 2466 3031 2466 3422 
Q 2466 3731 2256 3934 
Q 2047 4138 1716 4138 
Q 1388 4138 1169 3931 
Q 950 3725 888 3313 
L 325 3413 
Q 428 3978 793 4289 
Q 1159 4600 1703 4600 
Q 2078 4600 2393 4439 
Q 2709 4278 2876 4000 
Q 3044 3722 3044 3409 
Q 3044 3113 2884 2869 
Q 2725 2625 2413 2481 
Q 2819 2388 3044 2092 
Q 3269 1797 3269 1353 
Q 3269 753 2831 336 
Q 2394 -81 1725 -81 
Q 1122 -81 723 278 
Q 325 638 269 1209 
z
" transform="scale(0.015625)"/>
       </defs>
       <use xlink:href="#ArialMT-33"/>
      </g>
     </g>
    </g>
    <g id="ytick_5">
     <g id="text_25">
      <!-- 4 -->
      <g style="fill: #262626" transform="translate(38.789436 28.58299) scale(0.14 -0.14)">
       <defs>
        <path id="ArialMT-34" d="M 2069 0 
L 2069 1097 
L 81 1097 
L 81 1613 
L 2172 4581 
L 2631 4581 
L 2631 1613 
L 3250 1613 
L 3250 1097 
L 2631 1097 
L 2631 0 
L 2069 0 
z
M 2069 1613 
L 2069 3678 
L 634 1613 
L 2069 1613 
z
" transform="scale(0.015625)"/>
       </defs>
       <use xlink:href="#ArialMT-34"/>
      </g>
     </g>
    </g>
    <g id="text_26">
     <!-- Mean |coefficient| stability  -->
     <g style="fill: #262626" transform="translate(19.255436 175.14375) rotate(-90) scale(0.12 -0.12)">
      <defs>
       <path id="ArialMT-7c" d="M 588 -1347 
L 588 4659 
L 1078 4659 
L 1078 -1347 
L 588 -1347 
z
" transform="scale(0.015625)"/>
       <path id="ArialMT-66" d="M 556 0 
L 556 2881 
L 59 2881 
L 59 3319 
L 556 3319 
L 556 3672 
Q 556 4006 616 4169 
Q 697 4388 901 4523 
Q 1106 4659 1475 4659 
Q 1713 4659 2000 4603 
L 1916 4113 
Q 1741 4144 1584 4144 
Q 1328 4144 1222 4034 
Q 1116 3925 1116 3625 
L 1116 3319 
L 1763 3319 
L 1763 2881 
L 1116 2881 
L 1116 0 
L 556 0 
z
" transform="scale(0.015625)"/>
      </defs>
      <use xlink:href="#ArialMT-4d"/>
      <use xlink:href="#ArialMT-65" transform="translate(83.300781 0)"/>
      <use xlink:href="#ArialMT-61" transform="translate(138.916016 0)"/>
      <use xlink:href="#ArialMT-6e" transform="translate(194.53125 0)"/>
      <use xlink:href="#ArialMT-20" transform="translate(250.146484 0)"/>
      <use xlink:href="#ArialMT-7c" transform="translate(277.929688 0)"/>
      <use xlink:href="#ArialMT-63" transform="translate(303.90625 0)"/>
      <use xlink:href="#ArialMT-6f" transform="translate(353.90625 0)"/>
      <use xlink:href="#ArialMT-65" transform="translate(409.521484 0)"/>
      <use xlink:href="#ArialMT-66" transform="translate(465.136719 0)"/>
      <use xlink:href="#ArialMT-66" transform="translate(491.169922 0)"/>
      <use xlink:href="#ArialMT-69" transform="translate(518.953125 0)"/>
      <use xlink:href="#ArialMT-63" transform="translate(541.169922 0)"/>
      <use xlink:href="#ArialMT-69" transform="translate(591.169922 0)"/>
      <use xlink:href="#ArialMT-65" transform="translate(613.386719 0)"/>
      <use xlink:href="#ArialMT-6e" transform="translate(669.001953 0)"/>
      <use xlink:href="#ArialMT-74" transform="translate(724.617188 0)"/>
      <use xlink:href="#ArialMT-7c" transform="translate(752.400391 0)"/>
      <use xlink:href="#ArialMT-20" transform="translate(778.376953 0)"/>
      <use xlink:href="#ArialMT-73" transform="translate(806.160156 0)"/>
      <use xlink:href="#ArialMT-74" transform="translate(856.160156 0)"/>
      <use xlink:href="#ArialMT-61" transform="translate(883.943359 0)"/>
      <use xlink:href="#ArialMT-62" transform="translate(939.558594 0)"/>
      <use xlink:href="#ArialMT-69" transform="translate(995.173828 0)"/>
      <use xlink:href="#ArialMT-6c" transform="translate(1017.390625 0)"/>
      <use xlink:href="#ArialMT-69" transform="translate(1039.607422 0)"/>
      <use xlink:href="#ArialMT-74" transform="translate(1061.824219 0)"/>
      <use xlink:href="#ArialMT-79" transform="translate(1089.607422 0)"/>
      <use xlink:href="#ArialMT-20" transform="translate(1139.607422 0)"/>
     </g>
     <!-- across folds (±SD) -->
     <g style="fill: #262626" transform="translate(32.263811 154.405312) rotate(-90) scale(0.12 -0.12)">
      <defs>
       <path id="ArialMT-28" d="M 1497 -1347 
Q 1031 -759 709 28 
Q 388 816 388 1659 
Q 388 2403 628 3084 
Q 909 3875 1497 4659 
L 1900 4659 
Q 1522 4009 1400 3731 
Q 1209 3300 1100 2831 
Q 966 2247 966 1656 
Q 966 153 1900 -1347 
L 1497 -1347 
z
" transform="scale(0.015625)"/>
       <path id="ArialMT-b1" d="M 1491 813 
L 1491 2072 
L 244 2072 
L 244 2594 
L 1491 2594 
L 1491 3841 
L 2022 3841 
L 2022 2594 
L 3269 2594 
L 3269 2072 
L 2022 2072 
L 2022 813 
L 1491 813 
z
M 3269 0 
L 244 0 
L 244 525 
L 3269 525 
L 3269 0 
z
" transform="scale(0.015625)"/>
       <path id="ArialMT-29" d="M 791 -1347 
L 388 -1347 
Q 1322 153 1322 1656 
Q 1322 2244 1188 2822 
Q 1081 3291 891 3722 
Q 769 4003 388 4659 
L 791 4659 
Q 1378 3875 1659 3084 
Q 1900 2403 1900 1659 
Q 1900 816 1576 28 
Q 1253 -759 791 -1347 
z
" transform="scale(0.015625)"/>
      </defs>
      <use xlink:href="#ArialMT-61"/>
      <use xlink:href="#ArialMT-63" transform="translate(55.615234 0)"/>
      <use xlink:href="#ArialMT-72" transform="translate(105.615234 0)"/>
      <use xlink:href="#ArialMT-6f" transform="translate(138.916016 0)"/>
      <use xlink:href="#ArialMT-73" transform="translate(194.53125 0)"/>
      <use xlink:href="#ArialMT-73" transform="translate(244.53125 0)"/>
      <use xlink:href="#ArialMT-20" transform="translate(294.53125 0)"/>
      <use xlink:href="#ArialMT-66" transform="translate(322.314453 0)"/>
      <use xlink:href="#ArialMT-6f" transform="translate(350.097656 0)"/>
      <use xlink:href="#ArialMT-6c" transform="translate(405.712891 0)"/>
      <use xlink:href="#ArialMT-64" transform="translate(427.929688 0)"/>
      <use xlink:href="#ArialMT-73" transform="translate(483.544922 0)"/>
      <use xlink:href="#ArialMT-20" transform="translate(533.544922 0)"/>
      <use xlink:href="#ArialMT-28" transform="translate(561.328125 0)"/>
      <use xlink:href="#ArialMT-b1" transform="translate(594.628906 0)"/>
      <use xlink:href="#ArialMT-53" transform="translate(649.511719 0)"/>
      <use xlink:href="#ArialMT-44" transform="translate(716.210938 0)"/>
      <use xlink:href="#ArialMT-29" transform="translate(788.427734 0)"/>
     </g>
    </g>
   </g>
   <g id="LineCollection_1">
    <path d="M 80.238385 71.078684 
L 80.238385 29.503125 
" clip-path="url(#p550d862e24)" style="fill: none; stroke: #1a1a1a; stroke-opacity: 0.6; stroke-width: 1.2"/>
    <path d="M 106.93695 112.870672 
L 106.93695 58.970392 
" clip-path="url(#p550d862e24)" style="fill: none; stroke: #1a1a1a; stroke-opacity: 0.6; stroke-width: 1.2"/>
    <path d="M 133.635514 160.199993 
L 133.635514 103.860566 
" clip-path="url(#p550d862e24)" style="fill: none; stroke: #1a1a1a; stroke-opacity: 0.6; stroke-width: 1.2"/>
    <path d="M 160.334079 157.520086 
L 160.334079 118.663926 
" clip-path="url(#p550d862e24)" style="fill: none; stroke: #1a1a1a; stroke-opacity: 0.6; stroke-width: 1.2"/>
    <path d="M 187.032644 175.348321 
L 187.032644 118.272295 
" clip-path="url(#p550d862e24)" style="fill: none; stroke: #1a1a1a; stroke-opacity: 0.6; stroke-width: 1.2"/>
    <path d="M 213.731208 168.091345 
L 213.731208 134.416904 
" clip-path="url(#p550d862e24)" style="fill: none; stroke: #1a1a1a; stroke-opacity: 0.6; stroke-width: 1.2"/>
    <path d="M 240.429773 180.703125 
L 240.429773 122.865245 
" clip-path="url(#p550d862e24)" style="fill: none; stroke: #1a1a1a; stroke-opacity: 0.6; stroke-width: 1.2"/>
    <path d="M 267.128337 174.328267 
L 267.128337 131.770691 
" clip-path="url(#p550d862e24)" style="fill: none; stroke: #1a1a1a; stroke-opacity: 0.6; stroke-width: 1.2"/>
    <path d="M 293.826902 169.977757 
L 293.826902 142.291685 
" clip-path="url(#p550d862e24)" style="fill: none; stroke: #1a1a1a; stroke-opacity: 0.6; stroke-width: 1.2"/>
    <path d="M 320.525467 170.376437 
L 320.525467 143.177302 
" clip-path="url(#p550d862e24)" style="fill: none; stroke: #1a1a1a; stroke-opacity: 0.6; stroke-width: 1.2"/>
    <path d="M 347.224031 165.454584 
L 347.224031 149.381314 
" clip-path="url(#p550d862e24)" style="fill: none; stroke: #1a1a1a; stroke-opacity: 0.6; stroke-width: 1.2"/>
    <path d="M 373.922596 168.631928 
L 373.922596 146.628067 
" clip-path="url(#p550d862e24)" style="fill: none; stroke: #1a1a1a; stroke-opacity: 0.6; stroke-width: 1.2"/>
    <path d="M 400.62116 168.812877 
L 400.62116 148.34585 
" clip-path="url(#p550d862e24)" style="fill: none; stroke: #1a1a1a; stroke-opacity: 0.6; stroke-width: 1.2"/>
    <path d="M 427.319725 166.185564 
L 427.319725 151.042676 
" clip-path="url(#p550d862e24)" style="fill: none; stroke: #1a1a1a; stroke-opacity: 0.6; stroke-width: 1.2"/>
    <path d="M 454.01829 168.337115 
L 454.01829 149.450093 
" clip-path="url(#p550d862e24)" style="fill: none; stroke: #1a1a1a; stroke-opacity: 0.6; stroke-width: 1.2"/>
    <path d="M 480.716854 164.835734 
L 480.716854 153.062412 
" clip-path="url(#p550d862e24)" style="fill: none; stroke: #1a1a1a; stroke-opacity: 0.6; stroke-width: 1.2"/>
    <path d="M 507.415419 167.043713 
L 507.415419 151.346601 
" clip-path="url(#p550d862e24)" style="fill: none; stroke: #1a1a1a; stroke-opacity: 0.6; stroke-width: 1.2"/>
    <path d="M 534.113983 164.993103 
L 534.113983 154.822583 
" clip-path="url(#p550d862e24)" style="fill: none; stroke: #1a1a1a; stroke-opacity: 0.6; stroke-width: 1.2"/>
    <path d="M 560.812548 167.05997 
L 560.812548 152.806701 
" clip-path="url(#p550d862e24)" style="fill: none; stroke: #1a1a1a; stroke-opacity: 0.6; stroke-width: 1.2"/>
    <path d="M 587.511113 161.446341 
L 587.511113 160.832951 
" clip-path="url(#p550d862e24)" style="fill: none; stroke: #1a1a1a; stroke-opacity: 0.6; stroke-width: 1.2"/>
   </g>
   <g id="line2d_2">
    <defs>
     <path id="m84ccb7b8ae" d="M 3 0 
L -3 -0 
" style="stroke: #1a1a1a; stroke-opacity: 0.6"/>
    </defs>
    <g clip-path="url(#p550d862e24)">
     <use xlink:href="#m84ccb7b8ae" x="80.238385" y="71.078684" style="fill: #4c72b0; fill-opacity: 0.6; stroke: #1a1a1a; stroke-opacity: 0.6"/>
     <use xlink:href="#m84ccb7b8ae" x="106.93695" y="112.870672" style="fill: #4c72b0; fill-opacity: 0.6; stroke: #1a1a1a; stroke-opacity: 0.6"/>
     <use xlink:href="#m84ccb7b8ae" x="133.635514" y="160.199993" style="fill: #4c72b0; fill-opacity: 0.6; stroke: #1a1a1a; stroke-opacity: 0.6"/>
     <use xlink:href="#m84ccb7b8ae" x="160.334079" y="157.520086" style="fill: #4c72b0; fill-opacity: 0.6; stroke: #1a1a1a; stroke-opacity: 0.6"/>
     <use xlink:href="#m84ccb7b8ae" x="187.032644" y="175.348321" style="fill: #4c72b0; fill-opacity: 0.6; stroke: #1a1a1a; stroke-opacity: 0.6"/>
     <use xlink:href="#m84ccb7b8ae" x="213.731208" y="168.091345" style="fill: #4c72b0; fill-opacity: 0.6; stroke: #1a1a1a; stroke-opacity: 0.6"/>
     <use xlink:href="#m84ccb7b8ae" x="240.429773" y="180.703125" style="fill: #4c72b0; fill-opacity: 0.6; stroke: #1a1a1a; stroke-opacity: 0.6"/>
     <use xlink:href="#m84ccb7b8ae" x="267.128337" y="174.328267" style="fill: #4c72b0; fill-opacity: 0.6; stroke: #1a1a1a; stroke-opacity: 0.6"/>
     <use xlink:href="#m84ccb7b8ae" x="293.826902" y="169.977757" style="fill: #4c72b0; fill-opacity: 0.6; stroke: #1a1a1a; stroke-opacity: 0.6"/>
     <use xlink:href="#m84ccb7b8ae" x="320.525467" y="170.376437" style="fill: #4c72b0; fill-opacity: 0.6; stroke: #1a1a1a; stroke-opacity: 0.6"/>
     <use xlink:href="#m84ccb7b8ae" x="347.224031" y="165.454584" style="fill: #4c72b0; fill-opacity: 0.6; stroke: #1a1a1a; stroke-opacity: 0.6"/>
     <use xlink:href="#m84ccb7b8ae" x="373.922596" y="168.631928" style="fill: #4c72b0; fill-opacity: 0.6; stroke: #1a1a1a; stroke-opacity: 0.6"/>
     <use xlink:href="#m84ccb7b8ae" x="400.62116" y="168.812877" style="fill: #4c72b0; fill-opacity: 0.6; stroke: #1a1a1a; stroke-opacity: 0.6"/>
     <use xlink:href="#m84ccb7b8ae" x="427.319725" y="166.185564" style="fill: #4c72b0; fill-opacity: 0.6; stroke: #1a1a1a; stroke-opacity: 0.6"/>
     <use xlink:href="#m84ccb7b8ae" x="454.01829" y="168.337115" style="fill: #4c72b0; fill-opacity: 0.6; stroke: #1a1a1a; stroke-opacity: 0.6"/>
     <use xlink:href="#m84ccb7b8ae" x="480.716854" y="164.835734" style="fill: #4c72b0; fill-opacity: 0.6; stroke: #1a1a1a; stroke-opacity: 0.6"/>
     <use xlink:href="#m84ccb7b8ae" x="507.415419" y="167.043713" style="fill: #4c72b0; fill-opacity: 0.6; stroke: #1a1a1a; stroke-opacity: 0.6"/>
     <use xlink:href="#m84ccb7b8ae" x="534.113983" y="164.993103" style="fill: #4c72b0; fill-opacity: 0.6; stroke: #1a1a1a; stroke-opacity: 0.6"/>
     <use xlink:href="#m84ccb7b8ae" x="560.812548" y="167.05997" style="fill: #4c72b0; fill-opacity: 0.6; stroke: #1a1a1a; stroke-opacity: 0.6"/>
     <use xlink:href="#m84ccb7b8ae" x="587.511113" y="161.446341" style="fill: #4c72b0; fill-opacity: 0.6; stroke: #1a1a1a; stroke-opacity: 0.6"/>
    </g>
   </g>
   <g id="line2d_3">
    <g clip-path="url(#p550d862e24)">
     <use xlink:href="#m84ccb7b8ae" x="80.238385" y="29.503125" style="fill: #4c72b0; fill-opacity: 0.6; stroke: #1a1a1a; stroke-opacity: 0.6"/>
     <use xlink:href="#m84ccb7b8ae" x="106.93695" y="58.970392" style="fill: #4c72b0; fill-opacity: 0.6; stroke: #1a1a1a; stroke-opacity: 0.6"/>
     <use xlink:href="#m84ccb7b8ae" x="133.635514" y="103.860566" style="fill: #4c72b0; fill-opacity: 0.6; stroke: #1a1a1a; stroke-opacity: 0.6"/>
     <use xlink:href="#m84ccb7b8ae" x="160.334079" y="118.663926" style="fill: #4c72b0; fill-opacity: 0.6; stroke: #1a1a1a; stroke-opacity: 0.6"/>
     <use xlink:href="#m84ccb7b8ae" x="187.032644" y="118.272295" style="fill: #4c72b0; fill-opacity: 0.6; stroke: #1a1a1a; stroke-opacity: 0.6"/>
     <use xlink:href="#m84ccb7b8ae" x="213.731208" y="134.416904" style="fill: #4c72b0; fill-opacity: 0.6; stroke: #1a1a1a; stroke-opacity: 0.6"/>
     <use xlink:href="#m84ccb7b8ae" x="240.429773" y="122.865245" style="fill: #4c72b0; fill-opacity: 0.6; stroke: #1a1a1a; stroke-opacity: 0.6"/>
     <use xlink:href="#m84ccb7b8ae" x="267.128337" y="131.770691" style="fill: #4c72b0; fill-opacity: 0.6; stroke: #1a1a1a; stroke-opacity: 0.6"/>
     <use xlink:href="#m84ccb7b8ae" x="293.826902" y="142.291685" style="fill: #4c72b0; fill-opacity: 0.6; stroke: #1a1a1a; stroke-opacity: 0.6"/>
     <use xlink:href="#m84ccb7b8ae" x="320.525467" y="143.177302" style="fill: #4c72b0; fill-opacity: 0.6; stroke: #1a1a1a; stroke-opacity: 0.6"/>
     <use xlink:href="#m84ccb7b8ae" x="347.224031" y="149.381314" style="fill: #4c72b0; fill-opacity: 0.6; stroke: #1a1a1a; stroke-opacity: 0.6"/>
     <use xlink:href="#m84ccb7b8ae" x="373.922596" y="146.628067" style="fill: #4c72b0; fill-opacity: 0.6; stroke: #1a1a1a; stroke-opacity: 0.6"/>
     <use xlink:href="#m84ccb7b8ae" x="400.62116" y="148.34585" style="fill: #4c72b0; fill-opacity: 0.6; stroke: #1a1a1a; stroke-opacity: 0.6"/>
     <use xlink:href="#m84ccb7b8ae" x="427.319725" y="151.042676" style="fill: #4c72b0; fill-opacity: 0.6; stroke: #1a1a1a; stroke-opacity: 0.6"/>
     <use xlink:href="#m84ccb7b8ae" x="454.01829" y="149.450093" style="fill: #4c72b0; fill-opacity: 0.6; stroke: #1a1a1a; stroke-opacity: 0.6"/>
     <use xlink:href="#m84ccb7b8ae" x="480.716854" y="153.062412" style="fill: #4c72b0; fill-opacity: 0.6; stroke: #1a1a1a; stroke-opacity: 0.6"/>
     <use xlink:href="#m84ccb7b8ae" x="507.415419" y="151.346601" style="fill: #4c72b0; fill-opacity: 0.6; stroke: #1a1a1a; stroke-opacity: 0.6"/>
     <use xlink:href="#m84ccb7b8ae" x="534.113983" y="154.822583" style="fill: #4c72b0; fill-opacity: 0.6; stroke: #1a1a1a; stroke-opacity: 0.6"/>
     <use xlink:href="#m84ccb7b8ae" x="560.812548" y="152.806701" style="fill: #4c72b0; fill-opacity: 0.6; stroke: #1a1a1a; stroke-opacity: 0.6"/>
     <use xlink:href="#m84ccb7b8ae" x="587.511113" y="160.832951" style="fill: #4c72b0; fill-opacity: 0.6; stroke: #1a1a1a; stroke-opacity: 0.6"/>
    </g>
   </g>
   <g id="PathCollection_1"/>
   <g id="PathCollection_2"/>
   <g id="PathCollection_3"/>
   <g id="PathCollection_4"/>
   <g id="PathCollection_5">
    <path d="M 80.238385 55.290905 
C 81.564401 55.290905 82.836285 54.764073 83.773919 53.826439 
C 84.711554 52.888804 85.238385 51.61692 85.238385 50.290905 
C 85.238385 48.964889 84.711554 47.693005 83.773919 46.755371 
C 82.836285 45.817736 81.564401 45.290905 80.238385 45.290905 
C 78.91237 45.290905 77.640486 45.817736 76.702851 46.755371 
C 75.765217 47.693005 75.238385 48.964889 75.238385 50.290905 
C 75.238385 51.61692 75.765217 52.888804 76.702851 53.826439 
C 77.640486 54.764073 78.91237 55.290905 80.238385 55.290905 
z
" clip-path="url(#p550d862e24)" style="fill: #ff0000; stroke: #ff0000; stroke-width: 0.8"/>
    <path d="M 106.93695 90.920532 
C 108.262965 90.920532 109.534849 90.3937 110.472484 89.456066 
C 111.410118 88.518431 111.93695 87.246547 111.93695 85.920532 
C 111.93695 84.594516 111.410118 83.322633 110.472484 82.384998 
C 109.534849 81.447363 108.262965 80.920532 106.93695 80.920532 
C 105.610934 80.920532 104.33905 81.447363 103.401416 82.384998 
C 102.463781 83.322633 101.93695 84.594516 101.93695 85.920532 
C 101.93695 87.246547 102.463781 88.518431 103.401416 89.456066 
C 104.33905 90.3937 105.610934 90.920532 106.93695 90.920532 
z
" clip-path="url(#p550d862e24)" style="fill: #ff0000; stroke: #ff0000; stroke-width: 0.8"/>
    <path d="M 133.635514 136.176061 
C 134.734988 136.176061 135.789579 135.739235 136.567024 134.961789 
C 137.34447 134.184344 137.781295 133.129754 137.781295 132.03028 
C 137.781295 130.930806 137.34447 129.876215 136.567024 129.09877 
C 135.789579 128.321324 134.734988 127.884499 133.635514 127.884499 
C 132.53604 127.884499 131.48145 128.321324 130.704005 129.09877 
C 129.926559 129.876215 129.489733 130.930806 129.489733 132.03028 
C 129.489733 133.129754 129.926559 134.184344 130.704005 134.961789 
C 131.48145 135.739235 132.53604 136.176061 133.635514 136.176061 
z
" clip-path="url(#p550d862e24)" style="fill: #ff0000; stroke: #ff0000; stroke-width: 0.8"/>
    <path d="M 160.334079 142.598945 
C 161.529333 142.598945 162.675794 142.124066 163.520966 141.278893 
C 164.366139 140.433721 164.841018 139.28726 164.841018 138.092006 
C 164.841018 136.896752 164.366139 135.750291 163.520966 134.905119 
C 162.675794 134.059946 161.529333 133.585067 160.334079 133.585067 
C 159.138825 133.585067 157.992364 134.059946 157.147192 134.905119 
C 156.302019 135.750291 155.82714 136.896752 155.82714 138.092006 
C 155.82714 139.28726 156.302019 140.433721 157.147192 141.278893 
C 157.992364 142.124066 159.138825 142.598945 160.334079 142.598945 
z
" clip-path="url(#p550d862e24)" style="fill: #6495ed; stroke: #6495ed; stroke-width: 0.8"/>
    <path d="M 187.032644 150.117497 
C 187.90972 150.117497 188.750993 149.769031 189.371179 149.148844 
C 189.991366 148.528657 190.339833 147.687385 190.339833 146.810308 
C 190.339833 145.933231 189.991366 145.091959 189.371179 144.471772 
C 188.750993 143.851585 187.90972 143.503119 187.032644 143.503119 
C 186.155567 143.503119 185.314295 143.851585 184.694108 144.471772 
C 184.073921 145.091959 183.725454 145.933231 183.725454 146.810308 
C 183.725454 147.687385 184.073921 148.528657 184.694108 149.148844 
C 185.314295 149.769031 186.155567 150.117497 187.032644 150.117497 
z
" clip-path="url(#p550d862e24)" style="fill: #6495ed; stroke: #6495ed; stroke-width: 0.8"/>
    <path d="M 213.731208 154.561313 
C 214.608285 154.561313 215.449557 154.212847 216.069744 153.59266 
C 216.689931 152.972473 217.038397 152.131201 217.038397 151.254124 
C 217.038397 150.377047 216.689931 149.535775 216.069744 148.915588 
C 215.449557 148.295401 214.608285 147.946935 213.731208 147.946935 
C 212.854131 147.946935 212.012859 148.295401 211.392672 148.915588 
C 210.772485 149.535775 210.424019 150.377047 210.424019 151.254124 
C 210.424019 152.131201 210.772485 152.972473 211.392672 153.59266 
C 212.012859 154.212847 212.854131 154.561313 213.731208 154.561313 
z
" clip-path="url(#p550d862e24)" style="fill: #ff0000; stroke: #ff0000; stroke-width: 0.8"/>
    <path d="M 240.429773 153.551952 
C 240.89859 153.551952 241.348269 153.365689 241.679773 153.034185 
C 242.011277 152.702681 242.19754 152.253002 242.19754 151.784185 
C 242.19754 151.315368 242.011277 150.865689 241.679773 150.534185 
C 241.348269 150.202681 240.89859 150.016418 240.429773 150.016418 
C 239.960956 150.016418 239.511277 150.202681 239.179773 150.534185 
C 238.848269 150.865689 238.662006 151.315368 238.662006 151.784185 
C 238.662006 152.253002 238.848269 152.702681 239.179773 153.034185 
C 239.511277 153.365689 239.960956 153.551952 240.429773 153.551952 
z
" clip-path="url(#p550d862e24)" style="fill: #ff0000; stroke: #ff0000; stroke-width: 0.8"/>
    <path d="M 267.128337 155.214543 
C 267.702519 155.214543 268.253261 154.986418 268.659268 154.58041 
C 269.065276 154.174403 269.293401 153.623661 269.293401 153.049479 
C 269.293401 152.475298 269.065276 151.924556 268.659268 151.518548 
C 268.253261 151.11254 267.702519 150.884416 267.128337 150.884416 
C 266.554156 150.884416 266.003414 151.11254 265.597406 151.518548 
C 265.191399 151.924556 264.963274 152.475298 264.963274 153.049479 
C 264.963274 153.623661 265.191399 154.174403 265.597406 154.58041 
C 266.003414 154.986418 266.554156 155.214543 267.128337 155.214543 
z
" clip-path="url(#p550d862e24)" style="fill: #6495ed; stroke: #6495ed; stroke-width: 0.8"/>
    <path d="M 293.826902 157.902488 
C 294.295719 157.902488 294.745398 157.716225 295.076902 157.384721 
C 295.408406 157.053217 295.594669 156.603538 295.594669 156.134721 
C 295.594669 155.665903 295.408406 155.216225 295.076902 154.884721 
C 294.745398 154.553217 294.295719 154.366954 293.826902 154.366954 
C 293.358085 154.366954 292.908406 154.553217 292.576902 154.884721 
C 292.245398 155.216225 292.059135 155.665903 292.059135 156.134721 
C 292.059135 156.603538 292.245398 157.053217 292.576902 157.384721 
C 292.908406 157.716225 293.358085 157.902488 293.826902 157.902488 
z
" clip-path="url(#p550d862e24)" style="fill: #6495ed; stroke: #6495ed; stroke-width: 0.8"/>
    <path d="M 320.525467 158.544636 
C 320.994284 158.544636 321.443963 158.358373 321.775467 158.026869 
C 322.10697 157.695366 322.293234 157.245687 322.293234 156.776869 
C 322.293234 156.308052 322.10697 155.858373 321.775467 155.526869 
C 321.443963 155.195366 320.994284 155.009102 320.525467 155.009102 
C 320.056649 155.009102 319.60697 155.195366 319.275467 155.526869 
C 318.943963 155.858373 318.7577 156.308052 318.7577 156.776869 
C 318.7577 157.245687 318.943963 157.695366 319.275467 158.026869 
C 319.60697 158.358373 320.056649 158.544636 320.525467 158.544636 
z
" clip-path="url(#p550d862e24)" style="fill: #6495ed; stroke: #6495ed; stroke-width: 0.8"/>
    <path d="M 347.224031 159.917949 
C 347.887039 159.917949 348.522981 159.654533 348.991798 159.185716 
C 349.460615 158.716899 349.724031 158.080957 349.724031 157.417949 
C 349.724031 156.754941 349.460615 156.118999 348.991798 155.650182 
C 348.522981 155.181365 347.887039 154.917949 347.224031 154.917949 
C 346.561023 154.917949 345.925082 155.181365 345.456264 155.650182 
C 344.987447 156.118999 344.724031 156.754941 344.724031 157.417949 
C 344.724031 158.080957 344.987447 158.716899 345.456264 159.185716 
C 345.925082 159.654533 346.561023 159.917949 347.224031 159.917949 
z
" clip-path="url(#p550d862e24)" style="fill: #ff0000; stroke: #ff0000; stroke-width: 0.8"/>
    <path d="M 373.922596 159.795061 
C 374.496777 159.795061 375.047519 159.566936 375.453527 159.160928 
C 375.859535 158.754921 376.087659 158.204179 376.087659 157.629997 
C 376.087659 157.055816 375.859535 156.505074 375.453527 156.099066 
C 375.047519 155.693058 374.496777 155.464934 373.922596 155.464934 
C 373.348414 155.464934 372.797672 155.693058 372.391665 156.099066 
C 371.985657 156.505074 371.757532 157.055816 371.757532 157.629997 
C 371.757532 158.204179 371.985657 158.754921 372.391665 159.160928 
C 372.797672 159.566936 373.348414 159.795061 373.922596 159.795061 
z
" clip-path="url(#p550d862e24)" style="fill: #ff0000; stroke: #ff0000; stroke-width: 0.8"/>
    <path d="M 400.62116 159.829364 
C 400.952664 159.829364 401.270635 159.697656 401.505044 159.463247 
C 401.739452 159.228838 401.87116 158.910868 401.87116 158.579364 
C 401.87116 158.24786 401.739452 157.929889 401.505044 157.69548 
C 401.270635 157.461072 400.952664 157.329364 400.62116 157.329364 
C 400.289656 157.329364 399.971686 157.461072 399.737277 157.69548 
C 399.502868 157.929889 399.37116 158.24786 399.37116 158.579364 
C 399.37116 158.910868 399.502868 159.228838 399.737277 159.463247 
C 399.971686 159.697656 400.289656 159.829364 400.62116 159.829364 
z
" clip-path="url(#p550d862e24)" style="fill: #ff0000; stroke: #ff0000; stroke-width: 0.8"/>
    <path d="M 427.319725 160.779183 
C 427.893907 160.779183 428.444648 160.551059 428.850656 160.145051 
C 429.256664 159.739043 429.484788 159.188302 429.484788 158.61412 
C 429.484788 158.039938 429.256664 157.489197 428.850656 157.083189 
C 428.444648 156.677181 427.893907 156.449056 427.319725 156.449056 
C 426.745543 156.449056 426.194802 156.677181 425.788794 157.083189 
C 425.382786 157.489197 425.154661 158.039938 425.154661 158.61412 
C 425.154661 159.188302 425.382786 159.739043 425.788794 160.145051 
C 426.194802 160.551059 426.745543 160.779183 427.319725 160.779183 
z
" clip-path="url(#p550d862e24)" style="fill: #6495ed; stroke: #6495ed; stroke-width: 0.8"/>
    <path d="M 454.01829 160.661371 
C 454.487107 160.661371 454.936786 160.475107 455.26829 160.143604 
C 455.599793 159.8121 455.786057 159.362421 455.786057 158.893604 
C 455.786057 158.424786 455.599793 157.975107 455.26829 157.643604 
C 454.936786 157.3121 454.487107 157.125837 454.01829 157.125837 
C 453.549472 157.125837 453.099793 157.3121 452.76829 157.643604 
C 452.436786 157.975107 452.250523 158.424786 452.250523 158.893604 
C 452.250523 159.362421 452.436786 159.8121 452.76829 160.143604 
C 453.099793 160.475107 453.549472 160.661371 454.01829 160.661371 
z
" clip-path="url(#p550d862e24)" style="fill: #ff0000; stroke: #ff0000; stroke-width: 0.8"/>
    <path d="M 480.716854 161.744158 
C 481.458119 161.744158 482.169124 161.44965 482.693278 160.925496 
C 483.217431 160.401343 483.511939 159.690338 483.511939 158.949073 
C 483.511939 158.207808 483.217431 157.496803 482.693278 156.972649 
C 482.169124 156.448496 481.458119 156.153988 480.716854 156.153988 
C 479.975589 156.153988 479.264584 156.448496 478.740431 156.972649 
C 478.216277 157.496803 477.921769 158.207808 477.921769 158.949073 
C 477.921769 159.690338 478.216277 160.401343 478.740431 160.925496 
C 479.264584 161.44965 479.975589 161.744158 480.716854 161.744158 
z
" clip-path="url(#p550d862e24)" style="fill: #ff0000; stroke: #ff0000; stroke-width: 0.8"/>
    <path d="M 507.415419 160.445157 
C 507.746923 160.445157 508.064894 160.313449 508.299302 160.079041 
C 508.533711 159.844632 508.665419 159.526661 508.665419 159.195157 
C 508.665419 158.863653 508.533711 158.545682 508.299302 158.311274 
C 508.064894 158.076865 507.746923 157.945157 507.415419 157.945157 
C 507.083915 157.945157 506.765944 158.076865 506.531535 158.311274 
C 506.297127 158.545682 506.165419 158.863653 506.165419 159.195157 
C 506.165419 159.526661 506.297127 159.844632 506.531535 160.079041 
C 506.765944 160.313449 507.083915 160.445157 507.415419 160.445157 
z
" clip-path="url(#p550d862e24)" style="fill: #6495ed; stroke: #6495ed; stroke-width: 0.8"/>
    <path d="M 534.113983 161.67561 
C 534.582801 161.67561 535.032479 161.489347 535.363983 161.157843 
C 535.695487 160.826339 535.88175 160.37666 535.88175 159.907843 
C 535.88175 159.439025 535.695487 158.989347 535.363983 158.657843 
C 535.032479 158.326339 534.582801 158.140076 534.113983 158.140076 
C 533.645166 158.140076 533.195487 158.326339 532.863983 158.657843 
C 532.532479 158.989347 532.346216 159.439025 532.346216 159.907843 
C 532.346216 160.37666 532.532479 160.826339 532.863983 161.157843 
C 533.195487 161.489347 533.645166 161.67561 534.113983 161.67561 
z
" clip-path="url(#p550d862e24)" style="fill: #6495ed; stroke: #6495ed; stroke-width: 0.8"/>
    <path d="M 560.812548 161.701102 
C 561.281365 161.701102 561.731044 161.514839 562.062548 161.183336 
C 562.394052 160.851832 562.580315 160.402153 562.580315 159.933336 
C 562.580315 159.464518 562.394052 159.014839 562.062548 158.683336 
C 561.731044 158.351832 561.281365 158.165569 560.812548 158.165569 
C 560.343731 158.165569 559.894052 158.351832 559.562548 158.683336 
C 559.231044 159.014839 559.044781 159.464518 559.044781 159.933336 
C 559.044781 160.402153 559.231044 160.851832 559.562548 161.183336 
C 559.894052 161.514839 560.343731 161.701102 560.812548 161.701102 
z
" clip-path="url(#p550d862e24)" style="fill: #ff0000; stroke: #ff0000; stroke-width: 0.8"/>
    <path d="M 587.511113 162.907413 
C 587.97993 162.907413 588.429609 162.72115 588.761113 162.389646 
C 589.092616 162.058142 589.278879 161.608463 589.278879 161.139646 
C 589.278879 160.670829 589.092616 160.22115 588.761113 159.889646 
C 588.429609 159.558142 587.97993 159.371879 587.511113 159.371879 
C 587.042295 159.371879 586.592616 159.558142 586.261113 159.889646 
C 585.929609 160.22115 585.743346 160.670829 585.743346 161.139646 
C 585.743346 161.608463 585.929609 162.058142 586.261113 162.389646 
C 586.592616 162.72115 587.042295 162.907413 587.511113 162.907413 
z
" clip-path="url(#p550d862e24)" style="fill: #ff0000; stroke: #ff0000; stroke-width: 0.8"/>
   </g>
   <g id="patch_3">
    <path d="M 54.874749 188.263125 
L 54.874749 21.943125 
" style="fill: none; stroke: #cccccc; stroke-linejoin: miter; stroke-linecap: square"/>
   </g>
   <g id="patch_4">
    <path d="M 54.874749 188.263125 
L 612.874749 188.263125 
" style="fill: none; stroke: #cccccc; stroke-linejoin: miter; stroke-linecap: square"/>
   </g>
   <g id="text_27">
    <!-- POSTOP FOG-Q predictors -->
    <g style="fill: #262626" transform="translate(259.740999 15.943125) scale(0.12 -0.12)">
     <defs>
      <path id="ArialMT-54" d="M 1659 0 
L 1659 4041 
L 150 4041 
L 150 4581 
L 3781 4581 
L 3781 4041 
L 2266 4041 
L 2266 0 
L 1659 0 
z
" transform="scale(0.015625)"/>
      <path id="ArialMT-2d" d="M 203 1375 
L 203 1941 
L 1931 1941 
L 1931 1375 
L 203 1375 
z
" transform="scale(0.015625)"/>
      <path id="ArialMT-51" d="M 3966 491 
Q 4388 200 4744 66 
L 4566 -356 
Q 4072 -178 3581 206 
Q 3072 -78 2456 -78 
Q 1834 -78 1328 222 
Q 822 522 548 1065 
Q 275 1609 275 2291 
Q 275 2969 550 3525 
Q 825 4081 1333 4372 
Q 1841 4663 2469 4663 
Q 3103 4663 3612 4361 
Q 4122 4059 4389 3517 
Q 4656 2975 4656 2294 
Q 4656 1728 4484 1276 
Q 4313 825 3966 491 
z
M 2631 1266 
Q 3156 1119 3497 828 
Q 4031 1316 4031 2294 
Q 4031 2850 3842 3265 
Q 3653 3681 3289 3911 
Q 2925 4141 2472 4141 
Q 1794 4141 1347 3677 
Q 900 3213 900 2291 
Q 900 1397 1342 919 
Q 1784 441 2472 441 
Q 2797 441 3084 563 
Q 2800 747 2484 825 
L 2631 1266 
z
" transform="scale(0.015625)"/>
      <path id="ArialMT-70" d="M 422 -1272 
L 422 3319 
L 934 3319 
L 934 2888 
Q 1116 3141 1344 3267 
Q 1572 3394 1897 3394 
Q 2322 3394 2647 3175 
Q 2972 2956 3137 2557 
Q 3303 2159 3303 1684 
Q 3303 1175 3120 767 
Q 2938 359 2589 142 
Q 2241 -75 1856 -75 
Q 1575 -75 1351 44 
Q 1128 163 984 344 
L 984 -1272 
L 422 -1272 
z
M 931 1641 
Q 931 1000 1190 694 
Q 1450 388 1819 388 
Q 2194 388 2461 705 
Q 2728 1022 2728 1688 
Q 2728 2322 2467 2637 
Q 2206 2953 1844 2953 
Q 1484 2953 1207 2617 
Q 931 2281 931 1641 
z
" transform="scale(0.015625)"/>
     </defs>
     <use xlink:href="#ArialMT-50"/>
     <use xlink:href="#ArialMT-4f" transform="translate(66.699219 0)"/>
     <use xlink:href="#ArialMT-53" transform="translate(144.482422 0)"/>
     <use xlink:href="#ArialMT-54" transform="translate(211.181641 0)"/>
     <use xlink:href="#ArialMT-4f" transform="translate(270.515625 0)"/>
     <use xlink:href="#ArialMT-50" transform="translate(348.298828 0)"/>
     <use xlink:href="#ArialMT-20" transform="translate(413.248047 0)"/>
     <use xlink:href="#ArialMT-46" transform="translate(441.03125 0)"/>
     <use xlink:href="#ArialMT-4f" transform="translate(502.115234 0)"/>
     <use xlink:href="#ArialMT-47" transform="translate(579.898438 0)"/>
     <use xlink:href="#ArialMT-2d" transform="translate(657.681641 0)"/>
     <use xlink:href="#ArialMT-51" transform="translate(690.982422 0)"/>
     <use xlink:href="#ArialMT-20" transform="translate(768.765625 0)"/>
     <use xlink:href="#ArialMT-70" transform="translate(796.548828 0)"/>
     <use xlink:href="#ArialMT-72" transform="translate(852.164062 0)"/>
     <use xlink:href="#ArialMT-65" transform="translate(885.464844 0)"/>
     <use xlink:href="#ArialMT-64" transform="translate(941.080078 0)"/>
     <use xlink:href="#ArialMT-69" transform="translate(996.695312 0)"/>
     <use xlink:href="#ArialMT-63" transform="translate(1018.912109 0)"/>
     <use xlink:href="#ArialMT-74" transform="translate(1068.912109 0)"/>
     <use xlink:href="#ArialMT-6f" transform="translate(1096.695312 0)"/>
     <use xlink:href="#ArialMT-72" transform="translate(1152.310547 0)"/>
     <use xlink:href="#ArialMT-73" transform="translate(1185.611328 0)"/>
    </g>
   </g>
   <g id="legend_1">
    <g id="text_28">
     <!-- Selected  -->
     <g style="fill: #262626" transform="translate(539.520999 44.414625) scale(0.096 -0.096)">
      <use xlink:href="#ArialMT-53"/>
      <use xlink:href="#ArialMT-65" transform="translate(66.699219 0)"/>
      <use xlink:href="#ArialMT-6c" transform="translate(122.314453 0)"/>
      <use xlink:href="#ArialMT-65" transform="translate(144.53125 0)"/>
      <use xlink:href="#ArialMT-63" transform="translate(200.146484 0)"/>
      <use xlink:href="#ArialMT-74" transform="translate(250.146484 0)"/>
      <use xlink:href="#ArialMT-65" transform="translate(277.929688 0)"/>
      <use xlink:href="#ArialMT-64" transform="translate(333.544922 0)"/>
      <use xlink:href="#ArialMT-20" transform="translate(389.160156 0)"/>
     </g>
     <!-- across folds -->
     <g style="fill: #262626" transform="translate(539.520999 54.568425) scale(0.096 -0.096)">
      <use xlink:href="#ArialMT-61"/>
      <use xlink:href="#ArialMT-63" transform="translate(55.615234 0)"/>
      <use xlink:href="#ArialMT-72" transform="translate(105.615234 0)"/>
      <use xlink:href="#ArialMT-6f" transform="translate(138.916016 0)"/>
      <use xlink:href="#ArialMT-73" transform="translate(194.53125 0)"/>
      <use xlink:href="#ArialMT-73" transform="translate(244.53125 0)"/>
      <use xlink:href="#ArialMT-20" transform="translate(294.53125 0)"/>
      <use xlink:href="#ArialMT-66" transform="translate(322.314453 0)"/>
      <use xlink:href="#ArialMT-6f" transform="translate(350.097656 0)"/>
      <use xlink:href="#ArialMT-6c" transform="translate(405.712891 0)"/>
      <use xlink:href="#ArialMT-64" transform="translate(427.929688 0)"/>
      <use xlink:href="#ArialMT-73" transform="translate(483.544922 0)"/>
     </g>
    </g>
    <g id="PathCollection_6">
     <defs>
      <path id="m4560e96a81" d="M 0 2.5 
C 0.663008 2.5 1.29895 2.236584 1.767767 1.767767 
C 2.236584 1.29895 2.5 0.663008 2.5 0 
C 2.5 -0.663008 2.236584 -1.29895 1.767767 -1.767767 
C 1.29895 -2.236584 0.663008 -2.5 0 -2.5 
C -0.663008 -2.5 -1.29895 -2.236584 -1.767767 -1.767767 
C -2.236584 -1.29895 -2.5 -0.663008 -2.5 0 
C -2.5 0.663008 -2.236584 1.29895 -1.767767 1.767767 
C -1.29895 2.236584 -0.663008 2.5 0 2.5 
z
" style="stroke: #808080; stroke-width: 0.8"/>
     </defs>
     <g>
      <use xlink:href="#m4560e96a81" x="544.984749" y="76.3158" style="fill: #808080; stroke: #808080; stroke-width: 0.8"/>
     </g>
    </g>
    <g id="text_29">
     <!-- 25% -->
     <g style="fill: #262626" transform="translate(566.584749 79.4658) scale(0.12 -0.12)">
      <defs>
       <path id="ArialMT-35" d="M 266 1200 
L 856 1250 
Q 922 819 1161 601 
Q 1400 384 1738 384 
Q 2144 384 2425 690 
Q 2706 997 2706 1503 
Q 2706 1984 2436 2262 
Q 2166 2541 1728 2541 
Q 1456 2541 1237 2417 
Q 1019 2294 894 2097 
L 366 2166 
L 809 4519 
L 3088 4519 
L 3088 3981 
L 1259 3981 
L 1013 2750 
Q 1425 3038 1878 3038 
Q 2478 3038 2890 2622 
Q 3303 2206 3303 1553 
Q 3303 931 2941 478 
Q 2500 -78 1738 -78 
Q 1113 -78 717 272 
Q 322 622 266 1200 
z
" transform="scale(0.015625)"/>
       <path id="ArialMT-25" d="M 372 3481 
Q 372 3972 619 4315 
Q 866 4659 1334 4659 
Q 1766 4659 2048 4351 
Q 2331 4044 2331 3447 
Q 2331 2866 2045 2552 
Q 1759 2238 1341 2238 
Q 925 2238 648 2547 
Q 372 2856 372 3481 
z
M 1350 4272 
Q 1141 4272 1002 4090 
Q 863 3909 863 3425 
Q 863 2984 1003 2804 
Q 1144 2625 1350 2625 
Q 1563 2625 1702 2806 
Q 1841 2988 1841 3469 
Q 1841 3913 1700 4092 
Q 1559 4272 1350 4272 
z
M 1353 -169 
L 3859 4659 
L 4316 4659 
L 1819 -169 
L 1353 -169 
z
M 3334 1075 
Q 3334 1569 3581 1911 
Q 3828 2253 4300 2253 
Q 4731 2253 5014 1945 
Q 5297 1638 5297 1041 
Q 5297 459 5011 145 
Q 4725 -169 4303 -169 
Q 3888 -169 3611 142 
Q 3334 453 3334 1075 
z
M 4316 1866 
Q 4103 1866 3964 1684 
Q 3825 1503 3825 1019 
Q 3825 581 3965 400 
Q 4106 219 4313 219 
Q 4528 219 4667 400 
Q 4806 581 4806 1063 
Q 4806 1506 4665 1686 
Q 4525 1866 4316 1866 
z
" transform="scale(0.015625)"/>
      </defs>
      <use xlink:href="#ArialMT-32"/>
      <use xlink:href="#ArialMT-35" transform="translate(55.615234 0)"/>
      <use xlink:href="#ArialMT-25" transform="translate(111.230469 0)"/>
     </g>
    </g>
    <g id="PathCollection_7">
     <defs>
      <path id="ma435a2d0ff" d="M 0 3.535534 
C 0.937635 3.535534 1.836992 3.163008 2.5 2.5 
C 3.163008 1.836992 3.535534 0.937635 3.535534 0 
C 3.535534 -0.937635 3.163008 -1.836992 2.5 -2.5 
C 1.836992 -3.163008 0.937635 -3.535534 0 -3.535534 
C -0.937635 -3.535534 -1.836992 -3.163008 -2.5 -2.5 
C -3.163008 -1.836992 -3.535534 -0.937635 -3.535534 0 
C -3.535534 0.937635 -3.163008 1.836992 -2.5 2.5 
C -1.836992 3.163008 -0.937635 3.535534 0 3.535534 
z
" style="stroke: #808080; stroke-width: 0.8"/>
     </defs>
     <g>
      <use xlink:href="#ma435a2d0ff" x="544.984749" y="101.690175" style="fill: #808080; stroke: #808080; stroke-width: 0.8"/>
     </g>
    </g>
    <g id="text_30">
     <!-- 50% -->
     <g style="fill: #262626" transform="translate(566.584749 104.840175) scale(0.12 -0.12)">
      <use xlink:href="#ArialMT-35"/>
      <use xlink:href="#ArialMT-30" transform="translate(55.615234 0)"/>
      <use xlink:href="#ArialMT-25" transform="translate(111.230469 0)"/>
     </g>
    </g>
    <g id="PathCollection_8">
     <defs>
      <path id="m6adb078cd8" d="M 0 4.330127 
C 1.148363 4.330127 2.249847 3.873878 3.061862 3.061862 
C 3.873878 2.249847 4.330127 1.148363 4.330127 0 
C 4.330127 -1.148363 3.873878 -2.249847 3.061862 -3.061862 
C 2.249847 -3.873878 1.148363 -4.330127 0 -4.330127 
C -1.148363 -4.330127 -2.249847 -3.873878 -3.061862 -3.061862 
C -3.873878 -2.249847 -4.330127 -1.148363 -4.330127 0 
C -4.330127 1.148363 -3.873878 2.249847 -3.061862 3.061862 
C -2.249847 3.873878 -1.148363 4.330127 0 4.330127 
z
" style="stroke: #808080; stroke-width: 0.8"/>
     </defs>
     <g>
      <use xlink:href="#m6adb078cd8" x="544.984749" y="127.06455" style="fill: #808080; stroke: #808080; stroke-width: 0.8"/>
     </g>
    </g>
    <g id="text_31">
     <!-- 75% -->
     <g style="fill: #262626" transform="translate(566.584749 130.21455) scale(0.12 -0.12)">
      <defs>
       <path id="ArialMT-37" d="M 303 3981 
L 303 4522 
L 3269 4522 
L 3269 4084 
Q 2831 3619 2401 2847 
Q 1972 2075 1738 1259 
Q 1569 684 1522 0 
L 944 0 
Q 953 541 1156 1306 
Q 1359 2072 1739 2783 
Q 2119 3494 2547 3981 
L 303 3981 
z
" transform="scale(0.015625)"/>
      </defs>
      <use xlink:href="#ArialMT-37"/>
      <use xlink:href="#ArialMT-35" transform="translate(55.615234 0)"/>
      <use xlink:href="#ArialMT-25" transform="translate(111.230469 0)"/>
     </g>
    </g>
    <g id="PathCollection_9">
     <defs>
      <path id="md8801c83e5" d="M 0 5 
C 1.326016 5 2.597899 4.473168 3.535534 3.535534 
C 4.473168 2.597899 5 1.326016 5 0 
C 5 -1.326016 4.473168 -2.597899 3.535534 -3.535534 
C 2.597899 -4.473168 1.326016 -5 0 -5 
C -1.326016 -5 -2.597899 -4.473168 -3.535534 -3.535534 
C -4.473168 -2.597899 -5 -1.326016 -5 0 
C -5 1.326016 -4.473168 2.597899 -3.535534 3.535534 
C -2.597899 4.473168 -1.326016 5 0 5 
z
" style="stroke: #808080; stroke-width: 0.8"/>
     </defs>
     <g>
      <use xlink:href="#md8801c83e5" x="544.984749" y="152.438925" style="fill: #808080; stroke: #808080; stroke-width: 0.8"/>
     </g>
    </g>
    <g id="text_32">
     <!-- 100% -->
     <g style="fill: #262626" transform="translate(566.584749 155.588925) scale(0.12 -0.12)">
      <use xlink:href="#ArialMT-31"/>
      <use xlink:href="#ArialMT-30" transform="translate(55.615234 0)"/>
      <use xlink:href="#ArialMT-30" transform="translate(111.230469 0)"/>
      <use xlink:href="#ArialMT-25" transform="translate(166.845703 0)"/>
     </g>
    </g>
   </g>
  </g>
 </g>
 <defs>
  <clipPath id="p550d862e24">
   <rect x="54.874749" y="21.943125" width="558" height="166.32"/>
  </clipPath>
 </defs>
</svg>
