<?xml version="1.0" encoding="utf-8" standalone="no"?>
<!DOCTYPE svg PUBLIC "-//W3C//DTD SVG 1.1//EN"
  "http://www.w3.org/Graphics/SVG/1.1/DTD/svg11.dtd">
<svg xmlns:xlink="http://www.w3.org/1999/xlink" width="339.257495pt" height="453.587812pt" viewBox="0 0 339.257495 453.587812" xmlns="http://www.w3.org/2000/svg" version="1.1">
 <metadata>
  <rdf:RDF xmlns:dc="http://purl.org/dc/elements/1.1/" xmlns:cc="http://creativecommons.org/ns#" xmlns:rdf="http://www.w3.org/1999/02/22-rdf-syntax-ns#">
   <cc:Work>
    <dc:type rdf:resource="http://purl.org/dc/dcmitype/StillImage"/>
    <dc:date>2026-01-27T16:42:55.366998</dc:date>
    <dc:format>image/svg+xml</dc:format>
    <dc:creator>
     <cc:Agent>
      <dc:title>Matplotlib v3.10.5, https://matplotlib.org/</dc:title>
     </cc:Agent>
    </dc:creator>
   </cc:Work>
  </rdf:RDF>
 </metadata>
 <defs>
  <style type="text/css">*{stroke-linejoin: round; stroke-linecap: butt}</style>
 </defs>
 <g id="figure_1">
  <g id="patch_1">
   <path d="M 0 453.587812 
L 339.257495 453.587812 
L 339.257495 0 
L 0 0 
z
" style="fill: #ffffff"/>
  </g>
  <g id="axes_1">
   <g id="patch_2">
    <path d="M 107.54 410.023125 
L 330.74 410.023125 
L 330.74 21.943125 
L 107.54 21.943125 
z
" style="fill: #ffffff"/>
   </g>
   <g id="line2d_1">
    <path d="M 126.139824 410.023125 
L 126.139824 21.943125 
" clip-path="url(#p4218e6a74b)" style="fill: none; stroke-dasharray: 4.44,1.92; stroke-dashoffset: 0; stroke: #808080; stroke-opacity: 0.5; stroke-width: 1.2"/>
   </g>
   <g id="matplotlib.axis_1">
    <g id="xtick_1">
     <g id="text_1">
      <!-- 0 -->
      <g style="fill: #262626" transform="translate(122.247168 428.344062) scale(0.14 -0.14)">
       <defs>
        <path id="ArialMT-30" d="M 266 2259 
Q 266 3072 433 3567 
Q 600 4063 929 4331 
Q 1259 4600 1759 4600 
Q 2128 4600 2406 4451 
Q 2684 4303 2865 4023 
Q 3047 3744 3150 3342 
Q 3253 2941 3253 2259 
Q 3253 1453 3087 958 
Q 2922 463 2592 192 
Q 2263 -78 1759 -78 
Q 1097 -78 719 397 
Q 266 969 266 2259 
z
M 844 2259 
Q 844 1131 1108 757 
Q 1372 384 1759 384 
Q 2147 384 2411 759 
Q 2675 1134 2675 2259 
Q 2675 3391 2411 3762 
Q 2147 4134 1753 4134 
Q 1366 4134 1134 3806 
Q 844 3388 844 2259 
z
" transform="scale(0.015625)"/>
       </defs>
       <use xlink:href="#ArialMT-30"/>
      </g>
     </g>
    </g>
    <g id="xtick_2">
     <g id="text_2">
      <!-- 1 -->
      <g style="fill: #262626" transform="translate(172.753421 428.344062) scale(0.14 -0.14)">
       <defs>
        <path id="ArialMT-31" d="M 2384 0 
L 1822 0 
L 1822 3584 
Q 1619 3391 1289 3197 
Q 959 3003 697 2906 
L 697 3450 
Q 1169 3672 1522 3987 
Q 1875 4303 2022 4600 
L 2384 4600 
L 2384 0 
z
" transform="scale(0.015625)"/>
       </defs>
       <use xlink:href="#ArialMT-31"/>
      </g>
     </g>
    </g>
    <g id="xtick_3">
     <g id="text_3">
      <!-- 2 -->
      <g style="fill: #262626" transform="translate(223.259675 428.344062) scale(0.14 -0.14)">
       <defs>
        <path id="ArialMT-32" d="M 3222 541 
L 3222 0 
L 194 0 
Q 188 203 259 391 
Q 375 700 629 1000 
Q 884 1300 1366 1694 
Q 2113 2306 2375 2664 
Q 2638 3022 2638 3341 
Q 2638 3675 2398 3904 
Q 2159 4134 1775 4134 
Q 1369 4134 1125 3890 
Q 881 3647 878 3216 
L 300 3275 
Q 359 3922 746 4261 
Q 1134 4600 1788 4600 
Q 2447 4600 2831 4234 
Q 3216 3869 3216 3328 
Q 3216 3053 3103 2787 
Q 2991 2522 2730 2228 
Q 2469 1934 1863 1422 
Q 1356 997 1212 845 
Q 1069 694 975 541 
L 3222 541 
z
" transform="scale(0.015625)"/>
       </defs>
       <use xlink:href="#ArialMT-32"/>
      </g>
     </g>
    </g>
    <g id="xtick_4">
     <g id="text_4">
      <!-- 3 -->
      <g style="fill: #262626" transform="translate(273.765929 428.344062) scale(0.14 -0.14)">
       <defs>
        <path id="ArialMT-33" d="M 269 1209 
L 831 1284 
Q 928 806 1161 595 
Q 1394 384 1728 384 
Q 2125 384 2398 659 
Q 2672 934 2672 1341 
Q 2672 1728 2419 1979 
Q 2166 2231 1775 2231 
Q 1616 2231 1378 2169 
L 1441 2663 
Q 1497 2656 1531 2656 
Q 1891 2656 2178 2843 
Q 2466 3031 2466 3422 
Q 2466 3731 2256 3934 
Q 2047 4138 1716 4138 
Q 1388 4138 1169 3931 
Q 950 3725 888 3313 
L 325 3413 
Q 428 3978 793 4289 
Q 1159 4600 1703 4600 
Q 2078 4600 2393 4439 
Q 2709 4278 2876 4000 
Q 3044 3722 3044 3409 
Q 3044 3113 2884 2869 
Q 2725 2625 2413 2481 
Q 2819 2388 3044 2092 
Q 3269 1797 3269 1353 
Q 3269 753 2831 336 
Q 2394 -81 1725 -81 
Q 1122 -81 723 278 
Q 325 638 269 1209 
z
" transform="scale(0.015625)"/>
       </defs>
       <use xlink:href="#ArialMT-33"/>
      </g>
     </g>
    </g>
    <g id="xtick_5">
     <g id="text_5">
      <!-- 4 -->
      <g style="fill: #262626" transform="translate(324.272182 428.344062) scale(0.14 -0.14)">
       <defs>
        <path id="ArialMT-34" d="M 2069 0 
L 2069 1097 
L 81 1097 
L 81 1613 
L 2172 4581 
L 2631 4581 
L 2631 1613 
L 3250 1613 
L 3250 1097 
L 2631 1097 
L 2631 0 
L 2069 0 
z
M 2069 1613 
L 2069 3678 
L 634 1613 
L 2069 1613 
z
" transform="scale(0.015625)"/>
       </defs>
       <use xlink:href="#ArialMT-34"/>
      </g>
     </g>
    </g>
    <g id="text_6">
     <!-- Mean |coefficient| stability across folds (±SD) -->
     <g style="fill: #262626" transform="translate(99.797187 443.862187) scale(0.12 -0.12)">
      <defs>
       <path id="ArialMT-4d" d="M 475 0 
L 475 4581 
L 1388 4581 
L 2472 1338 
Q 2622 884 2691 659 
Q 2769 909 2934 1394 
L 4031 4581 
L 4847 4581 
L 4847 0 
L 4263 0 
L 4263 3834 
L 2931 0 
L 2384 0 
L 1059 3900 
L 1059 0 
L 475 0 
z
" transform="scale(0.015625)"/>
       <path id="ArialMT-65" d="M 2694 1069 
L 3275 997 
Q 3138 488 2766 206 
Q 2394 -75 1816 -75 
Q 1088 -75 661 373 
Q 234 822 234 1631 
Q 234 2469 665 2931 
Q 1097 3394 1784 3394 
Q 2450 3394 2872 2941 
Q 3294 2488 3294 1666 
Q 3294 1616 3291 1516 
L 816 1516 
Q 847 969 1125 678 
Q 1403 388 1819 388 
Q 2128 388 2347 550 
Q 2566 713 2694 1069 
z
M 847 1978 
L 2700 1978 
Q 2663 2397 2488 2606 
Q 2219 2931 1791 2931 
Q 1403 2931 1139 2672 
Q 875 2413 847 1978 
z
" transform="scale(0.015625)"/>
       <path id="ArialMT-61" d="M 2588 409 
Q 2275 144 1986 34 
Q 1697 -75 1366 -75 
Q 819 -75 525 192 
Q 231 459 231 875 
Q 231 1119 342 1320 
Q 453 1522 633 1644 
Q 813 1766 1038 1828 
Q 1203 1872 1538 1913 
Q 2219 1994 2541 2106 
Q 2544 2222 2544 2253 
Q 2544 2597 2384 2738 
Q 2169 2928 1744 2928 
Q 1347 2928 1158 2789 
Q 969 2650 878 2297 
L 328 2372 
Q 403 2725 575 2942 
Q 747 3159 1072 3276 
Q 1397 3394 1825 3394 
Q 2250 3394 2515 3294 
Q 2781 3194 2906 3042 
Q 3031 2891 3081 2659 
Q 3109 2516 3109 2141 
L 3109 1391 
Q 3109 606 3145 398 
Q 3181 191 3288 0 
L 2700 0 
Q 2613 175 2588 409 
z
M 2541 1666 
Q 2234 1541 1622 1453 
Q 1275 1403 1131 1340 
Q 988 1278 909 1158 
Q 831 1038 831 891 
Q 831 666 1001 516 
Q 1172 366 1500 366 
Q 1825 366 2078 508 
Q 2331 650 2450 897 
Q 2541 1088 2541 1459 
L 2541 1666 
z
" transform="scale(0.015625)"/>
       <path id="ArialMT-6e" d="M 422 0 
L 422 3319 
L 928 3319 
L 928 2847 
Q 1294 3394 1984 3394 
Q 2284 3394 2536 3286 
Q 2788 3178 2913 3003 
Q 3038 2828 3088 2588 
Q 3119 2431 3119 2041 
L 3119 0 
L 2556 0 
L 2556 2019 
Q 2556 2363 2490 2533 
Q 2425 2703 2258 2804 
Q 2091 2906 1866 2906 
Q 1506 2906 1245 2678 
Q 984 2450 984 1813 
L 984 0 
L 422 0 
z
" transform="scale(0.015625)"/>
       <path id="ArialMT-20" transform="scale(0.015625)"/>
       <path id="ArialMT-7c" d="M 588 -1347 
L 588 4659 
L 1078 4659 
L 1078 -1347 
L 588 -1347 
z
" transform="scale(0.015625)"/>
       <path id="ArialMT-63" d="M 2588 1216 
L 3141 1144 
Q 3050 572 2676 248 
Q 2303 -75 1759 -75 
Q 1078 -75 664 370 
Q 250 816 250 1647 
Q 250 2184 428 2587 
Q 606 2991 970 3192 
Q 1334 3394 1763 3394 
Q 2303 3394 2647 3120 
Q 2991 2847 3088 2344 
L 2541 2259 
Q 2463 2594 2264 2762 
Q 2066 2931 1784 2931 
Q 1359 2931 1093 2626 
Q 828 2322 828 1663 
Q 828 994 1084 691 
Q 1341 388 1753 388 
Q 2084 388 2306 591 
Q 2528 794 2588 1216 
z
" transform="scale(0.015625)"/>
       <path id="ArialMT-6f" d="M 213 1659 
Q 213 2581 725 3025 
Q 1153 3394 1769 3394 
Q 2453 3394 2887 2945 
Q 3322 2497 3322 1706 
Q 3322 1066 3130 698 
Q 2938 331 2570 128 
Q 2203 -75 1769 -75 
Q 1072 -75 642 372 
Q 213 819 213 1659 
z
M 791 1659 
Q 791 1022 1069 705 
Q 1347 388 1769 388 
Q 2188 388 2466 706 
Q 2744 1025 2744 1678 
Q 2744 2294 2464 2611 
Q 2184 2928 1769 2928 
Q 1347 2928 1069 2612 
Q 791 2297 791 1659 
z
" transform="scale(0.015625)"/>
       <path id="ArialMT-66" d="M 556 0 
L 556 2881 
L 59 2881 
L 59 3319 
L 556 3319 
L 556 3672 
Q 556 4006 616 4169 
Q 697 4388 901 4523 
Q 1106 4659 1475 4659 
Q 1713 4659 2000 4603 
L 1916 4113 
Q 1741 4144 1584 4144 
Q 1328 4144 1222 4034 
Q 1116 3925 1116 3625 
L 1116 3319 
L 1763 3319 
L 1763 2881 
L 1116 2881 
L 1116 0 
L 556 0 
z
" transform="scale(0.015625)"/>
       <path id="ArialMT-69" d="M 425 3934 
L 425 4581 
L 988 4581 
L 988 3934 
L 425 3934 
z
M 425 0 
L 425 3319 
L 988 3319 
L 988 0 
L 425 0 
z
" transform="scale(0.015625)"/>
       <path id="ArialMT-74" d="M 1650 503 
L 1731 6 
Q 1494 -44 1306 -44 
Q 1000 -44 831 53 
Q 663 150 594 308 
Q 525 466 525 972 
L 525 2881 
L 113 2881 
L 113 3319 
L 525 3319 
L 525 4141 
L 1084 4478 
L 1084 3319 
L 1650 3319 
L 1650 2881 
L 1084 2881 
L 1084 941 
Q 1084 700 1114 631 
Q 1144 563 1211 522 
Q 1278 481 1403 481 
Q 1497 481 1650 503 
z
" transform="scale(0.015625)"/>
       <path id="ArialMT-73" d="M 197 991 
L 753 1078 
Q 800 744 1014 566 
Q 1228 388 1613 388 
Q 2000 388 2187 545 
Q 2375 703 2375 916 
Q 2375 1106 2209 1216 
Q 2094 1291 1634 1406 
Q 1016 1563 777 1677 
Q 538 1791 414 1992 
Q 291 2194 291 2438 
Q 291 2659 392 2848 
Q 494 3038 669 3163 
Q 800 3259 1026 3326 
Q 1253 3394 1513 3394 
Q 1903 3394 2198 3281 
Q 2494 3169 2634 2976 
Q 2775 2784 2828 2463 
L 2278 2388 
Q 2241 2644 2061 2787 
Q 1881 2931 1553 2931 
Q 1166 2931 1000 2803 
Q 834 2675 834 2503 
Q 834 2394 903 2306 
Q 972 2216 1119 2156 
Q 1203 2125 1616 2013 
Q 2213 1853 2448 1751 
Q 2684 1650 2818 1456 
Q 2953 1263 2953 975 
Q 2953 694 2789 445 
Q 2625 197 2315 61 
Q 2006 -75 1616 -75 
Q 969 -75 630 194 
Q 291 463 197 991 
z
" transform="scale(0.015625)"/>
       <path id="ArialMT-62" d="M 941 0 
L 419 0 
L 419 4581 
L 981 4581 
L 981 2947 
Q 1338 3394 1891 3394 
Q 2197 3394 2470 3270 
Q 2744 3147 2920 2923 
Q 3097 2700 3197 2384 
Q 3297 2069 3297 1709 
Q 3297 856 2875 390 
Q 2453 -75 1863 -75 
Q 1275 -75 941 416 
L 941 0 
z
M 934 1684 
Q 934 1088 1097 822 
Q 1363 388 1816 388 
Q 2184 388 2453 708 
Q 2722 1028 2722 1663 
Q 2722 2313 2464 2622 
Q 2206 2931 1841 2931 
Q 1472 2931 1203 2611 
Q 934 2291 934 1684 
z
" transform="scale(0.015625)"/>
       <path id="ArialMT-6c" d="M 409 0 
L 409 4581 
L 972 4581 
L 972 0 
L 409 0 
z
" transform="scale(0.015625)"/>
       <path id="ArialMT-79" d="M 397 -1278 
L 334 -750 
Q 519 -800 656 -800 
Q 844 -800 956 -737 
Q 1069 -675 1141 -563 
Q 1194 -478 1313 -144 
Q 1328 -97 1363 -6 
L 103 3319 
L 709 3319 
L 1400 1397 
Q 1534 1031 1641 628 
Q 1738 1016 1872 1384 
L 2581 3319 
L 3144 3319 
L 1881 -56 
Q 1678 -603 1566 -809 
Q 1416 -1088 1222 -1217 
Q 1028 -1347 759 -1347 
Q 597 -1347 397 -1278 
z
" transform="scale(0.015625)"/>
       <path id="ArialMT-72" d="M 416 0 
L 416 3319 
L 922 3319 
L 922 2816 
Q 1116 3169 1280 3281 
Q 1444 3394 1641 3394 
Q 1925 3394 2219 3213 
L 2025 2691 
Q 1819 2813 1613 2813 
Q 1428 2813 1281 2702 
Q 1134 2591 1072 2394 
Q 978 2094 978 1738 
L 978 0 
L 416 0 
z
" transform="scale(0.015625)"/>
       <path id="ArialMT-64" d="M 2575 0 
L 2575 419 
Q 2259 -75 1647 -75 
Q 1250 -75 917 144 
Q 584 363 401 755 
Q 219 1147 219 1656 
Q 219 2153 384 2558 
Q 550 2963 881 3178 
Q 1213 3394 1622 3394 
Q 1922 3394 2156 3267 
Q 2391 3141 2538 2938 
L 2538 4581 
L 3097 4581 
L 3097 0 
L 2575 0 
z
M 797 1656 
Q 797 1019 1065 703 
Q 1334 388 1700 388 
Q 2069 388 2326 689 
Q 2584 991 2584 1609 
Q 2584 2291 2321 2609 
Q 2059 2928 1675 2928 
Q 1300 2928 1048 2622 
Q 797 2316 797 1656 
z
" transform="scale(0.015625)"/>
       <path id="ArialMT-28" d="M 1497 -1347 
Q 1031 -759 709 28 
Q 388 816 388 1659 
Q 388 2403 628 3084 
Q 909 3875 1497 4659 
L 1900 4659 
Q 1522 4009 1400 3731 
Q 1209 3300 1100 2831 
Q 966 2247 966 1656 
Q 966 153 1900 -1347 
L 1497 -1347 
z
" transform="scale(0.015625)"/>
       <path id="ArialMT-b1" d="M 1491 813 
L 1491 2072 
L 244 2072 
L 244 2594 
L 1491 2594 
L 1491 3841 
L 2022 3841 
L 2022 2594 
L 3269 2594 
L 3269 2072 
L 2022 2072 
L 2022 813 
L 1491 813 
z
M 3269 0 
L 244 0 
L 244 525 
L 3269 525 
L 3269 0 
z
" transform="scale(0.015625)"/>
       <path id="ArialMT-53" d="M 288 1472 
L 859 1522 
Q 900 1178 1048 958 
Q 1197 738 1509 602 
Q 1822 466 2213 466 
Q 2559 466 2825 569 
Q 3091 672 3220 851 
Q 3350 1031 3350 1244 
Q 3350 1459 3225 1620 
Q 3100 1781 2813 1891 
Q 2628 1963 1997 2114 
Q 1366 2266 1113 2400 
Q 784 2572 623 2826 
Q 463 3081 463 3397 
Q 463 3744 659 4045 
Q 856 4347 1234 4503 
Q 1613 4659 2075 4659 
Q 2584 4659 2973 4495 
Q 3363 4331 3572 4012 
Q 3781 3694 3797 3291 
L 3216 3247 
Q 3169 3681 2898 3903 
Q 2628 4125 2100 4125 
Q 1550 4125 1298 3923 
Q 1047 3722 1047 3438 
Q 1047 3191 1225 3031 
Q 1400 2872 2139 2705 
Q 2878 2538 3153 2413 
Q 3553 2228 3743 1945 
Q 3934 1663 3934 1294 
Q 3934 928 3725 604 
Q 3516 281 3123 101 
Q 2731 -78 2241 -78 
Q 1619 -78 1198 103 
Q 778 284 539 648 
Q 300 1013 288 1472 
z
" transform="scale(0.015625)"/>
       <path id="ArialMT-44" d="M 494 0 
L 494 4581 
L 2072 4581 
Q 2606 4581 2888 4516 
Q 3281 4425 3559 4188 
Q 3922 3881 4101 3404 
Q 4281 2928 4281 2316 
Q 4281 1794 4159 1391 
Q 4038 988 3847 723 
Q 3656 459 3429 307 
Q 3203 156 2883 78 
Q 2563 0 2147 0 
L 494 0 
z
M 1100 541 
L 2078 541 
Q 2531 541 2789 625 
Q 3047 709 3200 863 
Q 3416 1078 3536 1442 
Q 3656 1806 3656 2325 
Q 3656 3044 3420 3430 
Q 3184 3816 2847 3947 
Q 2603 4041 2063 4041 
L 1100 4041 
L 1100 541 
z
" transform="scale(0.015625)"/>
       <path id="ArialMT-29" d="M 791 -1347 
L 388 -1347 
Q 1322 153 1322 1656 
Q 1322 2244 1188 2822 
Q 1081 3291 891 3722 
Q 769 4003 388 4659 
L 791 4659 
Q 1378 3875 1659 3084 
Q 1900 2403 1900 1659 
Q 1900 816 1576 28 
Q 1253 -759 791 -1347 
z
" transform="scale(0.015625)"/>
      </defs>
      <use xlink:href="#ArialMT-4d"/>
      <use xlink:href="#ArialMT-65" transform="translate(83.300781 0)"/>
      <use xlink:href="#ArialMT-61" transform="translate(138.916016 0)"/>
      <use xlink:href="#ArialMT-6e" transform="translate(194.53125 0)"/>
      <use xlink:href="#ArialMT-20" transform="translate(250.146484 0)"/>
      <use xlink:href="#ArialMT-7c" transform="translate(277.929688 0)"/>
      <use xlink:href="#ArialMT-63" transform="translate(303.90625 0)"/>
      <use xlink:href="#ArialMT-6f" transform="translate(353.90625 0)"/>
      <use xlink:href="#ArialMT-65" transform="translate(409.521484 0)"/>
      <use xlink:href="#ArialMT-66" transform="translate(465.136719 0)"/>
      <use xlink:href="#ArialMT-66" transform="translate(491.169922 0)"/>
      <use xlink:href="#ArialMT-69" transform="translate(518.953125 0)"/>
      <use xlink:href="#ArialMT-63" transform="translate(541.169922 0)"/>
      <use xlink:href="#ArialMT-69" transform="translate(591.169922 0)"/>
      <use xlink:href="#ArialMT-65" transform="translate(613.386719 0)"/>
      <use xlink:href="#ArialMT-6e" transform="translate(669.001953 0)"/>
      <use xlink:href="#ArialMT-74" transform="translate(724.617188 0)"/>
      <use xlink:href="#ArialMT-7c" transform="translate(752.400391 0)"/>
      <use xlink:href="#ArialMT-20" transform="translate(778.376953 0)"/>
      <use xlink:href="#ArialMT-73" transform="translate(806.160156 0)"/>
      <use xlink:href="#ArialMT-74" transform="translate(856.160156 0)"/>
      <use xlink:href="#ArialMT-61" transform="translate(883.943359 0)"/>
      <use xlink:href="#ArialMT-62" transform="translate(939.558594 0)"/>
      <use xlink:href="#ArialMT-69" transform="translate(995.173828 0)"/>
      <use xlink:href="#ArialMT-6c" transform="translate(1017.390625 0)"/>
      <use xlink:href="#ArialMT-69" transform="translate(1039.607422 0)"/>
      <use xlink:href="#ArialMT-74" transform="translate(1061.824219 0)"/>
      <use xlink:href="#ArialMT-79" transform="translate(1089.607422 0)"/>
      <use xlink:href="#ArialMT-20" transform="translate(1139.607422 0)"/>
      <use xlink:href="#ArialMT-61" transform="translate(1167.390625 0)"/>
      <use xlink:href="#ArialMT-63" transform="translate(1223.005859 0)"/>
      <use xlink:href="#ArialMT-72" transform="translate(1273.005859 0)"/>
      <use xlink:href="#ArialMT-6f" transform="translate(1306.306641 0)"/>
      <use xlink:href="#ArialMT-73" transform="translate(1361.921875 0)"/>
      <use xlink:href="#ArialMT-73" transform="translate(1411.921875 0)"/>
      <use xlink:href="#ArialMT-20" transform="translate(1461.921875 0)"/>
      <use xlink:href="#ArialMT-66" transform="translate(1489.705078 0)"/>
      <use xlink:href="#ArialMT-6f" transform="translate(1517.488281 0)"/>
      <use xlink:href="#ArialMT-6c" transform="translate(1573.103516 0)"/>
      <use xlink:href="#ArialMT-64" transform="translate(1595.320312 0)"/>
      <use xlink:href="#ArialMT-73" transform="translate(1650.935547 0)"/>
      <use xlink:href="#ArialMT-20" transform="translate(1700.935547 0)"/>
      <use xlink:href="#ArialMT-28" transform="translate(1728.71875 0)"/>
      <use xlink:href="#ArialMT-b1" transform="translate(1762.019531 0)"/>
      <use xlink:href="#ArialMT-53" transform="translate(1816.902344 0)"/>
      <use xlink:href="#ArialMT-44" transform="translate(1883.601562 0)"/>
      <use xlink:href="#ArialMT-29" transform="translate(1955.818359 0)"/>
     </g>
    </g>
   </g>
   <g id="matplotlib.axis_2">
    <g id="ytick_1">
     <g id="text_7">
      <!-- BMI -->
      <g style="fill: #004d40" transform="translate(77.90625 396.677812) scale(0.12 -0.12)">
       <defs>
        <path id="ArialMT-42" d="M 469 0 
L 469 4581 
L 2188 4581 
Q 2713 4581 3030 4442 
Q 3347 4303 3526 4014 
Q 3706 3725 3706 3409 
Q 3706 3116 3547 2856 
Q 3388 2597 3066 2438 
Q 3481 2316 3704 2022 
Q 3928 1728 3928 1328 
Q 3928 1006 3792 729 
Q 3656 453 3456 303 
Q 3256 153 2954 76 
Q 2653 0 2216 0 
L 469 0 
z
M 1075 2656 
L 2066 2656 
Q 2469 2656 2644 2709 
Q 2875 2778 2992 2937 
Q 3109 3097 3109 3338 
Q 3109 3566 3000 3739 
Q 2891 3913 2687 3977 
Q 2484 4041 1991 4041 
L 1075 4041 
L 1075 2656 
z
M 1075 541 
L 2216 541 
Q 2509 541 2628 563 
Q 2838 600 2978 687 
Q 3119 775 3209 942 
Q 3300 1109 3300 1328 
Q 3300 1584 3169 1773 
Q 3038 1963 2805 2039 
Q 2572 2116 2134 2116 
L 1075 2116 
L 1075 541 
z
" transform="scale(0.015625)"/>
        <path id="ArialMT-49" d="M 597 0 
L 597 4581 
L 1203 4581 
L 1203 0 
L 597 0 
z
" transform="scale(0.015625)"/>
       </defs>
       <use xlink:href="#ArialMT-42"/>
       <use xlink:href="#ArialMT-4d" transform="translate(66.699219 0)"/>
       <use xlink:href="#ArialMT-49" transform="translate(150 0)"/>
      </g>
     </g>
    </g>
    <g id="ytick_2">
     <g id="text_8">
      <!-- Disease Duration -->
      <g style="fill: #004d40" transform="translate(7.2 357.477812) scale(0.12 -0.12)">
       <defs>
        <path id="ArialMT-75" d="M 2597 0 
L 2597 488 
Q 2209 -75 1544 -75 
Q 1250 -75 995 37 
Q 741 150 617 320 
Q 494 491 444 738 
Q 409 903 409 1263 
L 409 3319 
L 972 3319 
L 972 1478 
Q 972 1038 1006 884 
Q 1059 663 1231 536 
Q 1403 409 1656 409 
Q 1909 409 2131 539 
Q 2353 669 2445 892 
Q 2538 1116 2538 1541 
L 2538 3319 
L 3100 3319 
L 3100 0 
L 2597 0 
z
" transform="scale(0.015625)"/>
       </defs>
       <use xlink:href="#ArialMT-44"/>
       <use xlink:href="#ArialMT-69" transform="translate(72.216797 0)"/>
       <use xlink:href="#ArialMT-73" transform="translate(94.433594 0)"/>
       <use xlink:href="#ArialMT-65" transform="translate(144.433594 0)"/>
       <use xlink:href="#ArialMT-61" transform="translate(200.048828 0)"/>
       <use xlink:href="#ArialMT-73" transform="translate(255.664062 0)"/>
       <use xlink:href="#ArialMT-65" transform="translate(305.664062 0)"/>
       <use xlink:href="#ArialMT-20" transform="translate(361.279297 0)"/>
       <use xlink:href="#ArialMT-44" transform="translate(389.0625 0)"/>
       <use xlink:href="#ArialMT-75" transform="translate(461.279297 0)"/>
       <use xlink:href="#ArialMT-72" transform="translate(516.894531 0)"/>
       <use xlink:href="#ArialMT-61" transform="translate(550.195312 0)"/>
       <use xlink:href="#ArialMT-74" transform="translate(605.810547 0)"/>
       <use xlink:href="#ArialMT-69" transform="translate(633.59375 0)"/>
       <use xlink:href="#ArialMT-6f" transform="translate(655.810547 0)"/>
       <use xlink:href="#ArialMT-6e" transform="translate(711.425781 0)"/>
      </g>
     </g>
    </g>
    <g id="ytick_3">
     <g id="text_9">
      <!-- FOG PREOP -->
      <g style="fill: #1e88e5" transform="translate(27.89625 318.277812) scale(0.12 -0.12)">
       <defs>
        <path id="ArialMT-46" d="M 525 0 
L 525 4581 
L 3616 4581 
L 3616 4041 
L 1131 4041 
L 1131 2622 
L 3281 2622 
L 3281 2081 
L 1131 2081 
L 1131 0 
L 525 0 
z
" transform="scale(0.015625)"/>
        <path id="ArialMT-4f" d="M 309 2231 
Q 309 3372 921 4017 
Q 1534 4663 2503 4663 
Q 3138 4663 3647 4359 
Q 4156 4056 4423 3514 
Q 4691 2972 4691 2284 
Q 4691 1588 4409 1038 
Q 4128 488 3612 205 
Q 3097 -78 2500 -78 
Q 1853 -78 1343 234 
Q 834 547 571 1087 
Q 309 1628 309 2231 
z
M 934 2222 
Q 934 1394 1379 917 
Q 1825 441 2497 441 
Q 3181 441 3623 922 
Q 4066 1403 4066 2288 
Q 4066 2847 3877 3264 
Q 3688 3681 3323 3911 
Q 2959 4141 2506 4141 
Q 1863 4141 1398 3698 
Q 934 3256 934 2222 
z
" transform="scale(0.015625)"/>
        <path id="ArialMT-47" d="M 2638 1797 
L 2638 2334 
L 4578 2338 
L 4578 638 
Q 4131 281 3656 101 
Q 3181 -78 2681 -78 
Q 2006 -78 1454 211 
Q 903 500 622 1047 
Q 341 1594 341 2269 
Q 341 2938 620 3517 
Q 900 4097 1425 4378 
Q 1950 4659 2634 4659 
Q 3131 4659 3532 4498 
Q 3934 4338 4162 4050 
Q 4391 3763 4509 3300 
L 3963 3150 
Q 3859 3500 3706 3700 
Q 3553 3900 3268 4020 
Q 2984 4141 2638 4141 
Q 2222 4141 1919 4014 
Q 1616 3888 1430 3681 
Q 1244 3475 1141 3228 
Q 966 2803 966 2306 
Q 966 1694 1177 1281 
Q 1388 869 1791 669 
Q 2194 469 2647 469 
Q 3041 469 3416 620 
Q 3791 772 3984 944 
L 3984 1797 
L 2638 1797 
z
" transform="scale(0.015625)"/>
        <path id="ArialMT-50" d="M 494 0 
L 494 4581 
L 2222 4581 
Q 2678 4581 2919 4538 
Q 3256 4481 3484 4323 
Q 3713 4166 3852 3881 
Q 3991 3597 3991 3256 
Q 3991 2672 3619 2267 
Q 3247 1863 2275 1863 
L 1100 1863 
L 1100 0 
L 494 0 
z
M 1100 2403 
L 2284 2403 
Q 2872 2403 3119 2622 
Q 3366 2841 3366 3238 
Q 3366 3525 3220 3729 
Q 3075 3934 2838 4000 
Q 2684 4041 2272 4041 
L 1100 4041 
L 1100 2403 
z
" transform="scale(0.015625)"/>
        <path id="ArialMT-52" d="M 503 0 
L 503 4581 
L 2534 4581 
Q 3147 4581 3465 4457 
Q 3784 4334 3975 4021 
Q 4166 3709 4166 3331 
Q 4166 2844 3850 2509 
Q 3534 2175 2875 2084 
Q 3116 1969 3241 1856 
Q 3506 1613 3744 1247 
L 4541 0 
L 3778 0 
L 3172 953 
Q 2906 1366 2734 1584 
Q 2563 1803 2427 1890 
Q 2291 1978 2150 2013 
Q 2047 2034 1813 2034 
L 1109 2034 
L 1109 0 
L 503 0 
z
M 1109 2559 
L 2413 2559 
Q 2828 2559 3062 2645 
Q 3297 2731 3419 2920 
Q 3541 3109 3541 3331 
Q 3541 3656 3305 3865 
Q 3069 4075 2559 4075 
L 1109 4075 
L 1109 2559 
z
" transform="scale(0.015625)"/>
        <path id="ArialMT-45" d="M 506 0 
L 506 4581 
L 3819 4581 
L 3819 4041 
L 1113 4041 
L 1113 2638 
L 3647 2638 
L 3647 2100 
L 1113 2100 
L 1113 541 
L 3925 541 
L 3925 0 
L 506 0 
z
" transform="scale(0.015625)"/>
       </defs>
       <use xlink:href="#ArialMT-46"/>
       <use xlink:href="#ArialMT-4f" transform="translate(61.083984 0)"/>
       <use xlink:href="#ArialMT-47" transform="translate(138.867188 0)"/>
       <use xlink:href="#ArialMT-20" transform="translate(216.650391 0)"/>
       <use xlink:href="#ArialMT-50" transform="translate(244.433594 0)"/>
       <use xlink:href="#ArialMT-52" transform="translate(311.132812 0)"/>
       <use xlink:href="#ArialMT-45" transform="translate(383.349609 0)"/>
       <use xlink:href="#ArialMT-4f" transform="translate(450.048828 0)"/>
       <use xlink:href="#ArialMT-50" transform="translate(527.832031 0)"/>
      </g>
     </g>
    </g>
    <g id="ytick_4">
     <g id="text_10">
      <!-- UPDRS III ON -->
      <g style="fill: #1e88e5" transform="translate(22.56375 279.077812) scale(0.12 -0.12)">
       <defs>
        <path id="ArialMT-55" d="M 3500 4581 
L 4106 4581 
L 4106 1934 
Q 4106 1244 3950 837 
Q 3794 431 3386 176 
Q 2978 -78 2316 -78 
Q 1672 -78 1262 144 
Q 853 366 678 786 
Q 503 1206 503 1934 
L 503 4581 
L 1109 4581 
L 1109 1938 
Q 1109 1341 1220 1058 
Q 1331 775 1601 622 
Q 1872 469 2263 469 
Q 2931 469 3215 772 
Q 3500 1075 3500 1938 
L 3500 4581 
z
" transform="scale(0.015625)"/>
        <path id="ArialMT-4e" d="M 488 0 
L 488 4581 
L 1109 4581 
L 3516 984 
L 3516 4581 
L 4097 4581 
L 4097 0 
L 3475 0 
L 1069 3600 
L 1069 0 
L 488 0 
z
" transform="scale(0.015625)"/>
       </defs>
       <use xlink:href="#ArialMT-55"/>
       <use xlink:href="#ArialMT-50" transform="translate(72.216797 0)"/>
       <use xlink:href="#ArialMT-44" transform="translate(138.916016 0)"/>
       <use xlink:href="#ArialMT-52" transform="translate(211.132812 0)"/>
       <use xlink:href="#ArialMT-53" transform="translate(283.349609 0)"/>
       <use xlink:href="#ArialMT-20" transform="translate(350.048828 0)"/>
       <use xlink:href="#ArialMT-49" transform="translate(377.832031 0)"/>
       <use xlink:href="#ArialMT-49" transform="translate(405.615234 0)"/>
       <use xlink:href="#ArialMT-49" transform="translate(433.398438 0)"/>
       <use xlink:href="#ArialMT-20" transform="translate(461.181641 0)"/>
       <use xlink:href="#ArialMT-4f" transform="translate(488.964844 0)"/>
       <use xlink:href="#ArialMT-4e" transform="translate(566.748047 0)"/>
      </g>
     </g>
    </g>
    <g id="ytick_5">
     <g id="text_11">
      <!-- GABS OFF -->
      <g style="fill: #1e88e5" transform="translate(38.566875 239.877812) scale(0.12 -0.12)">
       <defs>
        <path id="ArialMT-41" d="M -9 0 
L 1750 4581 
L 2403 4581 
L 4278 0 
L 3588 0 
L 3053 1388 
L 1138 1388 
L 634 0 
L -9 0 
z
M 1313 1881 
L 2866 1881 
L 2388 3150 
Q 2169 3728 2063 4100 
Q 1975 3659 1816 3225 
L 1313 1881 
z
" transform="scale(0.015625)"/>
       </defs>
       <use xlink:href="#ArialMT-47"/>
       <use xlink:href="#ArialMT-41" transform="translate(77.783203 0)"/>
       <use xlink:href="#ArialMT-42" transform="translate(144.482422 0)"/>
       <use xlink:href="#ArialMT-53" transform="translate(211.181641 0)"/>
       <use xlink:href="#ArialMT-20" transform="translate(277.880859 0)"/>
       <use xlink:href="#ArialMT-4f" transform="translate(305.664062 0)"/>
       <use xlink:href="#ArialMT-46" transform="translate(383.447266 0)"/>
       <use xlink:href="#ArialMT-46" transform="translate(444.53125 0)"/>
      </g>
     </g>
    </g>
    <g id="ytick_6">
     <g id="text_12">
      <!-- Whole Body ON -->
      <g style="fill: #ca9700" transform="translate(13.209375 200.754687) scale(0.12 -0.12)">
       <defs>
        <path id="ArialMT-57" d="M 1294 0 
L 78 4581 
L 700 4581 
L 1397 1578 
Q 1509 1106 1591 641 
Q 1766 1375 1797 1488 
L 2669 4581 
L 3400 4581 
L 4056 2263 
Q 4303 1400 4413 641 
Q 4500 1075 4641 1638 
L 5359 4581 
L 5969 4581 
L 4713 0 
L 4128 0 
L 3163 3491 
Q 3041 3928 3019 4028 
Q 2947 3713 2884 3491 
L 1913 0 
L 1294 0 
z
" transform="scale(0.015625)"/>
        <path id="ArialMT-68" d="M 422 0 
L 422 4581 
L 984 4581 
L 984 2938 
Q 1378 3394 1978 3394 
Q 2347 3394 2619 3248 
Q 2891 3103 3008 2847 
Q 3125 2591 3125 2103 
L 3125 0 
L 2563 0 
L 2563 2103 
Q 2563 2525 2380 2717 
Q 2197 2909 1863 2909 
Q 1613 2909 1392 2779 
Q 1172 2650 1078 2428 
Q 984 2206 984 1816 
L 984 0 
L 422 0 
z
" transform="scale(0.015625)"/>
       </defs>
       <use xlink:href="#ArialMT-57"/>
       <use xlink:href="#ArialMT-68" transform="translate(94.384766 0)"/>
       <use xlink:href="#ArialMT-6f" transform="translate(150 0)"/>
       <use xlink:href="#ArialMT-6c" transform="translate(205.615234 0)"/>
       <use xlink:href="#ArialMT-65" transform="translate(227.832031 0)"/>
       <use xlink:href="#ArialMT-20" transform="translate(283.447266 0)"/>
       <use xlink:href="#ArialMT-42" transform="translate(311.230469 0)"/>
       <use xlink:href="#ArialMT-6f" transform="translate(377.929688 0)"/>
       <use xlink:href="#ArialMT-64" transform="translate(433.544922 0)"/>
       <use xlink:href="#ArialMT-79" transform="translate(489.160156 0)"/>
       <use xlink:href="#ArialMT-20" transform="translate(539.160156 0)"/>
       <use xlink:href="#ArialMT-4f" transform="translate(566.943359 0)"/>
       <use xlink:href="#ArialMT-4e" transform="translate(644.726562 0)"/>
      </g>
     </g>
    </g>
    <g id="ytick_7">
     <g id="text_13">
      <!-- Age -->
      <g style="fill: #004d40" transform="translate(77.889375 161.477812) scale(0.12 -0.12)">
       <defs>
        <path id="ArialMT-67" d="M 319 -275 
L 866 -356 
Q 900 -609 1056 -725 
Q 1266 -881 1628 -881 
Q 2019 -881 2231 -725 
Q 2444 -569 2519 -288 
Q 2563 -116 2559 434 
Q 2191 0 1641 0 
Q 956 0 581 494 
Q 206 988 206 1678 
Q 206 2153 378 2554 
Q 550 2956 876 3175 
Q 1203 3394 1644 3394 
Q 2231 3394 2613 2919 
L 2613 3319 
L 3131 3319 
L 3131 450 
Q 3131 -325 2973 -648 
Q 2816 -972 2473 -1159 
Q 2131 -1347 1631 -1347 
Q 1038 -1347 672 -1080 
Q 306 -813 319 -275 
z
M 784 1719 
Q 784 1066 1043 766 
Q 1303 466 1694 466 
Q 2081 466 2343 764 
Q 2606 1063 2606 1700 
Q 2606 2309 2336 2618 
Q 2066 2928 1684 2928 
Q 1309 2928 1046 2623 
Q 784 2319 784 1719 
z
" transform="scale(0.015625)"/>
       </defs>
       <use xlink:href="#ArialMT-41"/>
       <use xlink:href="#ArialMT-67" transform="translate(66.699219 0)"/>
       <use xlink:href="#ArialMT-65" transform="translate(122.314453 0)"/>
      </g>
     </g>
    </g>
    <g id="ytick_8">
     <g id="text_14">
      <!-- UPDRS III OFF -->
      <g style="fill: #1e88e5" transform="translate(16.57125 122.277812) scale(0.12 -0.12)">
       <use xlink:href="#ArialMT-55"/>
       <use xlink:href="#ArialMT-50" transform="translate(72.216797 0)"/>
       <use xlink:href="#ArialMT-44" transform="translate(138.916016 0)"/>
       <use xlink:href="#ArialMT-52" transform="translate(211.132812 0)"/>
       <use xlink:href="#ArialMT-53" transform="translate(283.349609 0)"/>
       <use xlink:href="#ArialMT-20" transform="translate(350.048828 0)"/>
       <use xlink:href="#ArialMT-49" transform="translate(377.832031 0)"/>
       <use xlink:href="#ArialMT-49" transform="translate(405.615234 0)"/>
       <use xlink:href="#ArialMT-49" transform="translate(433.398438 0)"/>
       <use xlink:href="#ArialMT-20" transform="translate(461.181641 0)"/>
       <use xlink:href="#ArialMT-4f" transform="translate(488.964844 0)"/>
       <use xlink:href="#ArialMT-46" transform="translate(566.748047 0)"/>
       <use xlink:href="#ArialMT-46" transform="translate(627.832031 0)"/>
      </g>
     </g>
    </g>
    <g id="ytick_9">
     <g id="text_15">
      <!-- GABS ON -->
      <g style="fill: #1e88e5" transform="translate(44.559375 83.077812) scale(0.12 -0.12)">
       <use xlink:href="#ArialMT-47"/>
       <use xlink:href="#ArialMT-41" transform="translate(77.783203 0)"/>
       <use xlink:href="#ArialMT-42" transform="translate(144.482422 0)"/>
       <use xlink:href="#ArialMT-53" transform="translate(211.181641 0)"/>
       <use xlink:href="#ArialMT-20" transform="translate(277.880859 0)"/>
       <use xlink:href="#ArialMT-4f" transform="translate(305.664062 0)"/>
       <use xlink:href="#ArialMT-4e" transform="translate(383.447266 0)"/>
      </g>
     </g>
    </g>
    <g id="ytick_10">
     <g id="text_16">
      <!-- Whole Body OFF -->
      <g style="fill: #ca9700" transform="translate(7.216875 43.954687) scale(0.12 -0.12)">
       <use xlink:href="#ArialMT-57"/>
       <use xlink:href="#ArialMT-68" transform="translate(94.384766 0)"/>
       <use xlink:href="#ArialMT-6f" transform="translate(150 0)"/>
       <use xlink:href="#ArialMT-6c" transform="translate(205.615234 0)"/>
       <use xlink:href="#ArialMT-65" transform="translate(227.832031 0)"/>
       <use xlink:href="#ArialMT-20" transform="translate(283.447266 0)"/>
       <use xlink:href="#ArialMT-42" transform="translate(311.230469 0)"/>
       <use xlink:href="#ArialMT-6f" transform="translate(377.929688 0)"/>
       <use xlink:href="#ArialMT-64" transform="translate(433.544922 0)"/>
       <use xlink:href="#ArialMT-79" transform="translate(489.160156 0)"/>
       <use xlink:href="#ArialMT-20" transform="translate(539.160156 0)"/>
       <use xlink:href="#ArialMT-4f" transform="translate(566.943359 0)"/>
       <use xlink:href="#ArialMT-46" transform="translate(644.726562 0)"/>
       <use xlink:href="#ArialMT-46" transform="translate(705.810547 0)"/>
      </g>
     </g>
    </g>
   </g>
   <g id="LineCollection_1">
    <path d="M 126.139824 392.383125 
L 126.139824 392.383125 
" clip-path="url(#p4218e6a74b)" style="fill: none; stroke: #1a1a1a; stroke-opacity: 0.6; stroke-width: 1.2"/>
    <path d="M 126.139824 353.183125 
L 126.139824 353.183125 
" clip-path="url(#p4218e6a74b)" style="fill: none; stroke: #1a1a1a; stroke-opacity: 0.6; stroke-width: 1.2"/>
    <path d="M 120.786919 313.983125 
L 137.997847 313.983125 
" clip-path="url(#p4218e6a74b)" style="fill: none; stroke: #1a1a1a; stroke-opacity: 0.6; stroke-width: 1.2"/>
    <path d="M 120.737983 274.783125 
L 143.791142 274.783125 
" clip-path="url(#p4218e6a74b)" style="fill: none; stroke: #1a1a1a; stroke-opacity: 0.6; stroke-width: 1.2"/>
    <path d="M 117.685455 235.583125 
L 147.614852 235.583125 
" clip-path="url(#p4218e6a74b)" style="fill: none; stroke: #1a1a1a; stroke-opacity: 0.6; stroke-width: 1.2"/>
    <path d="M 119.627307 196.383125 
L 150.501093 196.383125 
" clip-path="url(#p4218e6a74b)" style="fill: none; stroke: #1a1a1a; stroke-opacity: 0.6; stroke-width: 1.2"/>
    <path d="M 158.663221 157.183125 
L 187.447636 157.183125 
" clip-path="url(#p4218e6a74b)" style="fill: none; stroke: #1a1a1a; stroke-opacity: 0.6; stroke-width: 1.2"/>
    <path d="M 165.157626 117.983125 
L 192.944746 117.983125 
" clip-path="url(#p4218e6a74b)" style="fill: none; stroke: #1a1a1a; stroke-opacity: 0.6; stroke-width: 1.2"/>
    <path d="M 234.627271 78.783125 
L 288.588833 78.783125 
" clip-path="url(#p4218e6a74b)" style="fill: none; stroke: #1a1a1a; stroke-opacity: 0.6; stroke-width: 1.2"/>
    <path d="M 285.11632 39.583125 
L 320.594545 39.583125 
" clip-path="url(#p4218e6a74b)" style="fill: none; stroke: #1a1a1a; stroke-opacity: 0.6; stroke-width: 1.2"/>
   </g>
   <g id="line2d_2">
    <defs>
     <path id="m6c40089f81" d="M 0 3 
L 0 -3 
" style="stroke: #1a1a1a; stroke-opacity: 0.6"/>
    </defs>
    <g clip-path="url(#p4218e6a74b)">
     <use xlink:href="#m6c40089f81" x="126.139824" y="392.383125" style="fill: #4c72b0; fill-opacity: 0.6; stroke: #1a1a1a; stroke-opacity: 0.6"/>
     <use xlink:href="#m6c40089f81" x="126.139824" y="353.183125" style="fill: #4c72b0; fill-opacity: 0.6; stroke: #1a1a1a; stroke-opacity: 0.6"/>
     <use xlink:href="#m6c40089f81" x="120.786919" y="313.983125" style="fill: #4c72b0; fill-opacity: 0.6; stroke: #1a1a1a; stroke-opacity: 0.6"/>
     <use xlink:href="#m6c40089f81" x="120.737983" y="274.783125" style="fill: #4c72b0; fill-opacity: 0.6; stroke: #1a1a1a; stroke-opacity: 0.6"/>
     <use xlink:href="#m6c40089f81" x="117.685455" y="235.583125" style="fill: #4c72b0; fill-opacity: 0.6; stroke: #1a1a1a; stroke-opacity: 0.6"/>
     <use xlink:href="#m6c40089f81" x="119.627307" y="196.383125" style="fill: #4c72b0; fill-opacity: 0.6; stroke: #1a1a1a; stroke-opacity: 0.6"/>
     <use xlink:href="#m6c40089f81" x="158.663221" y="157.183125" style="fill: #4c72b0; fill-opacity: 0.6; stroke: #1a1a1a; stroke-opacity: 0.6"/>
     <use xlink:href="#m6c40089f81" x="165.157626" y="117.983125" style="fill: #4c72b0; fill-opacity: 0.6; stroke: #1a1a1a; stroke-opacity: 0.6"/>
     <use xlink:href="#m6c40089f81" x="234.627271" y="78.783125" style="fill: #4c72b0; fill-opacity: 0.6; stroke: #1a1a1a; stroke-opacity: 0.6"/>
     <use xlink:href="#m6c40089f81" x="285.11632" y="39.583125" style="fill: #4c72b0; fill-opacity: 0.6; stroke: #1a1a1a; stroke-opacity: 0.6"/>
    </g>
   </g>
   <g id="line2d_3">
    <g clip-path="url(#p4218e6a74b)">
     <use xlink:href="#m6c40089f81" x="126.139824" y="392.383125" style="fill: #4c72b0; fill-opacity: 0.6; stroke: #1a1a1a; stroke-opacity: 0.6"/>
     <use xlink:href="#m6c40089f81" x="126.139824" y="353.183125" style="fill: #4c72b0; fill-opacity: 0.6; stroke: #1a1a1a; stroke-opacity: 0.6"/>
     <use xlink:href="#m6c40089f81" x="137.997847" y="313.983125" style="fill: #4c72b0; fill-opacity: 0.6; stroke: #1a1a1a; stroke-opacity: 0.6"/>
     <use xlink:href="#m6c40089f81" x="143.791142" y="274.783125" style="fill: #4c72b0; fill-opacity: 0.6; stroke: #1a1a1a; stroke-opacity: 0.6"/>
     <use xlink:href="#m6c40089f81" x="147.614852" y="235.583125" style="fill: #4c72b0; fill-opacity: 0.6; stroke: #1a1a1a; stroke-opacity: 0.6"/>
     <use xlink:href="#m6c40089f81" x="150.501093" y="196.383125" style="fill: #4c72b0; fill-opacity: 0.6; stroke: #1a1a1a; stroke-opacity: 0.6"/>
     <use xlink:href="#m6c40089f81" x="187.447636" y="157.183125" style="fill: #4c72b0; fill-opacity: 0.6; stroke: #1a1a1a; stroke-opacity: 0.6"/>
     <use xlink:href="#m6c40089f81" x="192.944746" y="117.983125" style="fill: #4c72b0; fill-opacity: 0.6; stroke: #1a1a1a; stroke-opacity: 0.6"/>
     <use xlink:href="#m6c40089f81" x="288.588833" y="78.783125" style="fill: #4c72b0; fill-opacity: 0.6; stroke: #1a1a1a; stroke-opacity: 0.6"/>
     <use xlink:href="#m6c40089f81" x="320.594545" y="39.583125" style="fill: #4c72b0; fill-opacity: 0.6; stroke: #1a1a1a; stroke-opacity: 0.6"/>
    </g>
   </g>
   <g id="PathCollection_1"/>
   <g id="PathCollection_2"/>
   <g id="PathCollection_3"/>
   <g id="PathCollection_4"/>
   <g id="PathCollection_5">
    <path d="M 126.139824 392.383125 
C 126.139824 392.383125 126.139824 392.383125 126.139824 392.383125 
C 126.139824 392.383125 126.139824 392.383125 126.139824 392.383125 
C 126.139824 392.383125 126.139824 392.383125 126.139824 392.383125 
C 126.139824 392.383125 126.139824 392.383125 126.139824 392.383125 
C 126.139824 392.383125 126.139824 392.383125 126.139824 392.383125 
C 126.139824 392.383125 126.139824 392.383125 126.139824 392.383125 
C 126.139824 392.383125 126.139824 392.383125 126.139824 392.383125 
C 126.139824 392.383125 126.139824 392.383125 126.139824 392.383125 
z
" clip-path="url(#p4218e6a74b)" style="fill: #ff0000; stroke: #ff0000; stroke-width: 0.8"/>
    <path d="M 126.139824 353.183125 
C 126.139824 353.183125 126.139824 353.183125 126.139824 353.183125 
C 126.139824 353.183125 126.139824 353.183125 126.139824 353.183125 
C 126.139824 353.183125 126.139824 353.183125 126.139824 353.183125 
C 126.139824 353.183125 126.139824 353.183125 126.139824 353.183125 
C 126.139824 353.183125 126.139824 353.183125 126.139824 353.183125 
C 126.139824 353.183125 126.139824 353.183125 126.139824 353.183125 
C 126.139824 353.183125 126.139824 353.183125 126.139824 353.183125 
C 126.139824 353.183125 126.139824 353.183125 126.139824 353.183125 
z
" clip-path="url(#p4218e6a74b)" style="fill: #ff0000; stroke: #ff0000; stroke-width: 0.8"/>
    <path d="M 129.392383 315.750892 
C 129.8612 315.750892 130.310879 315.564629 130.642383 315.233125 
C 130.973887 314.901621 131.16015 314.451942 131.16015 313.983125 
C 131.16015 313.514308 130.973887 313.064629 130.642383 312.733125 
C 130.310879 312.401621 129.8612 312.215358 129.392383 312.215358 
C 128.923566 312.215358 128.473887 312.401621 128.142383 312.733125 
C 127.810879 313.064629 127.624616 313.514308 127.624616 313.983125 
C 127.624616 314.451942 127.810879 314.901621 128.142383 315.233125 
C 128.473887 315.564629 128.923566 315.750892 129.392383 315.750892 
z
" clip-path="url(#p4218e6a74b)" style="fill: #6495ed; stroke: #6495ed; stroke-width: 0.8"/>
    <path d="M 132.264563 277.283125 
C 132.927571 277.283125 133.563512 277.019709 134.03233 276.550892 
C 134.501147 276.082075 134.764563 275.446133 134.764563 274.783125 
C 134.764563 274.120117 134.501147 273.484175 134.03233 273.015358 
C 133.563512 272.546541 132.927571 272.283125 132.264563 272.283125 
C 131.601555 272.283125 130.965613 272.546541 130.496796 273.015358 
C 130.027979 273.484175 129.764563 274.120117 129.764563 274.783125 
C 129.764563 275.446133 130.027979 276.082075 130.496796 276.550892 
C 130.965613 277.019709 131.601555 277.283125 132.264563 277.283125 
z
" clip-path="url(#p4218e6a74b)" style="fill: #6495ed; stroke: #6495ed; stroke-width: 0.8"/>
    <path d="M 132.650153 238.083125 
C 133.313161 238.083125 133.949103 237.819709 134.41792 237.350892 
C 134.886737 236.882075 135.150153 236.246133 135.150153 235.583125 
C 135.150153 234.920117 134.886737 234.284175 134.41792 233.815358 
C 133.949103 233.346541 133.313161 233.083125 132.650153 233.083125 
C 131.987145 233.083125 131.351204 233.346541 130.882386 233.815358 
C 130.413569 234.284175 130.150153 234.920117 130.150153 235.583125 
C 130.150153 236.246133 130.413569 236.882075 130.882386 237.350892 
C 131.351204 237.819709 131.987145 238.083125 132.650153 238.083125 
z
" clip-path="url(#p4218e6a74b)" style="fill: #ff0000; stroke: #ff0000; stroke-width: 0.8"/>
    <path d="M 135.0642 199.17821 
C 135.805465 199.17821 136.51647 198.883702 137.040623 198.359549 
C 137.564777 197.835395 137.859285 197.12439 137.859285 196.383125 
C 137.859285 195.64186 137.564777 194.930855 137.040623 194.406701 
C 136.51647 193.882548 135.805465 193.58804 135.0642 193.58804 
C 134.322935 193.58804 133.61193 193.882548 133.087776 194.406701 
C 132.563623 194.930855 132.269115 195.64186 132.269115 196.383125 
C 132.269115 197.12439 132.563623 197.835395 133.087776 198.359549 
C 133.61193 198.883702 134.322935 199.17821 135.0642 199.17821 
z
" clip-path="url(#p4218e6a74b)" style="fill: #ff0000; stroke: #ff0000; stroke-width: 0.8"/>
    <path d="M 173.055428 162.183125 
C 174.381444 162.183125 175.653328 161.656293 176.590962 160.718659 
C 177.528597 159.781024 178.055428 158.50914 178.055428 157.183125 
C 178.055428 155.857109 177.528597 154.585226 176.590962 153.647591 
C 175.653328 152.709957 174.381444 152.183125 173.055428 152.183125 
C 171.729413 152.183125 170.457529 152.709957 169.519895 153.647591 
C 168.58226 154.585226 168.055428 155.857109 168.055428 157.183125 
C 168.055428 158.50914 168.58226 159.781024 169.519895 160.718659 
C 170.457529 161.656293 171.729413 162.183125 173.055428 162.183125 
z
" clip-path="url(#p4218e6a74b)" style="fill: #ff0000; stroke: #ff0000; stroke-width: 0.8"/>
    <path d="M 179.051186 122.983125 
C 180.377201 122.983125 181.649085 122.456293 182.58672 121.518659 
C 183.524354 120.581024 184.051186 119.30914 184.051186 117.983125 
C 184.051186 116.657109 183.524354 115.385226 182.58672 114.447591 
C 181.649085 113.509957 180.377201 112.983125 179.051186 112.983125 
C 177.72517 112.983125 176.453287 113.509957 175.515652 114.447591 
C 174.578017 115.385226 174.051186 116.657109 174.051186 117.983125 
C 174.051186 119.30914 174.578017 120.581024 175.515652 121.518659 
C 176.453287 122.456293 177.72517 122.983125 179.051186 122.983125 
z
" clip-path="url(#p4218e6a74b)" style="fill: #6495ed; stroke: #6495ed; stroke-width: 0.8"/>
    <path d="M 261.608052 83.783125 
C 262.934068 83.783125 264.205952 83.256293 265.143586 82.318659 
C 266.081221 81.381024 266.608052 80.10914 266.608052 78.783125 
C 266.608052 77.457109 266.081221 76.185226 265.143586 75.247591 
C 264.205952 74.309957 262.934068 73.783125 261.608052 73.783125 
C 260.282037 73.783125 259.010153 74.309957 258.072518 75.247591 
C 257.134884 76.185226 256.608052 77.457109 256.608052 78.783125 
C 256.608052 80.10914 257.134884 81.381024 258.072518 82.318659 
C 259.010153 83.256293 260.282037 83.783125 261.608052 83.783125 
z
" clip-path="url(#p4218e6a74b)" style="fill: #ff0000; stroke: #ff0000; stroke-width: 0.8"/>
    <path d="M 302.855433 44.583125 
C 304.181448 44.583125 305.453332 44.056293 306.390967 43.118659 
C 307.328601 42.181024 307.855433 40.90914 307.855433 39.583125 
C 307.855433 38.257109 307.328601 36.985226 306.390967 36.047591 
C 305.453332 35.109957 304.181448 34.583125 302.855433 34.583125 
C 301.529417 34.583125 300.257533 35.109957 299.319899 36.047591 
C 298.382264 36.985226 297.855433 38.257109 297.855433 39.583125 
C 297.855433 40.90914 298.382264 42.181024 299.319899 43.118659 
C 300.257533 44.056293 301.529417 44.583125 302.855433 44.583125 
z
" clip-path="url(#p4218e6a74b)" style="fill: #ff0000; stroke: #ff0000; stroke-width: 0.8"/>
   </g>
   <g id="patch_3">
    <path d="M 107.54 410.023125 
L 107.54 21.943125 
" style="fill: none; stroke: #cccccc; stroke-linejoin: miter; stroke-linecap: square"/>
   </g>
   <g id="patch_4">
    <path d="M 107.54 410.023125 
L 330.74 410.023125 
" style="fill: none; stroke: #cccccc; stroke-linejoin: miter; stroke-linecap: square"/>
   </g>
   <g id="text_17">
    <!-- POSTOP FOG-Q predictors -->
    <g style="fill: #262626" transform="translate(145.00625 15.943125) scale(0.12 -0.12)">
     <defs>
      <path id="ArialMT-54" d="M 1659 0 
L 1659 4041 
L 150 4041 
L 150 4581 
L 3781 4581 
L 3781 4041 
L 2266 4041 
L 2266 0 
L 1659 0 
z
" transform="scale(0.015625)"/>
      <path id="ArialMT-2d" d="M 203 1375 
L 203 1941 
L 1931 1941 
L 1931 1375 
L 203 1375 
z
" transform="scale(0.015625)"/>
      <path id="ArialMT-51" d="M 3966 491 
Q 4388 200 4744 66 
L 4566 -356 
Q 4072 -178 3581 206 
Q 3072 -78 2456 -78 
Q 1834 -78 1328 222 
Q 822 522 548 1065 
Q 275 1609 275 2291 
Q 275 2969 550 3525 
Q 825 4081 1333 4372 
Q 1841 4663 2469 4663 
Q 3103 4663 3612 4361 
Q 4122 4059 4389 3517 
Q 4656 2975 4656 2294 
Q 4656 1728 4484 1276 
Q 4313 825 3966 491 
z
M 2631 1266 
Q 3156 1119 3497 828 
Q 4031 1316 4031 2294 
Q 4031 2850 3842 3265 
Q 3653 3681 3289 3911 
Q 2925 4141 2472 4141 
Q 1794 4141 1347 3677 
Q 900 3213 900 2291 
Q 900 1397 1342 919 
Q 1784 441 2472 441 
Q 2797 441 3084 563 
Q 2800 747 2484 825 
L 2631 1266 
z
" transform="scale(0.015625)"/>
      <path id="ArialMT-70" d="M 422 -1272 
L 422 3319 
L 934 3319 
L 934 2888 
Q 1116 3141 1344 3267 
Q 1572 3394 1897 3394 
Q 2322 3394 2647 3175 
Q 2972 2956 3137 2557 
Q 3303 2159 3303 1684 
Q 3303 1175 3120 767 
Q 2938 359 2589 142 
Q 2241 -75 1856 -75 
Q 1575 -75 1351 44 
Q 1128 163 984 344 
L 984 -1272 
L 422 -1272 
z
M 931 1641 
Q 931 1000 1190 694 
Q 1450 388 1819 388 
Q 2194 388 2461 705 
Q 2728 1022 2728 1688 
Q 2728 2322 2467 2637 
Q 2206 2953 1844 2953 
Q 1484 2953 1207 2617 
Q 931 2281 931 1641 
z
" transform="scale(0.015625)"/>
     </defs>
     <use xlink:href="#ArialMT-50"/>
     <use xlink:href="#ArialMT-4f" transform="translate(66.699219 0)"/>
     <use xlink:href="#ArialMT-53" transform="translate(144.482422 0)"/>
     <use xlink:href="#ArialMT-54" transform="translate(211.181641 0)"/>
     <use xlink:href="#ArialMT-4f" transform="translate(270.515625 0)"/>
     <use xlink:href="#ArialMT-50" transform="translate(348.298828 0)"/>
     <use xlink:href="#ArialMT-20" transform="translate(413.248047 0)"/>
     <use xlink:href="#ArialMT-46" transform="translate(441.03125 0)"/>
     <use xlink:href="#ArialMT-4f" transform="translate(502.115234 0)"/>
     <use xlink:href="#ArialMT-47" transform="translate(579.898438 0)"/>
     <use xlink:href="#ArialMT-2d" transform="translate(657.681641 0)"/>
     <use xlink:href="#ArialMT-51" transform="translate(690.982422 0)"/>
     <use xlink:href="#ArialMT-20" transform="translate(768.765625 0)"/>
     <use xlink:href="#ArialMT-70" transform="translate(796.548828 0)"/>
     <use xlink:href="#ArialMT-72" transform="translate(852.164062 0)"/>
     <use xlink:href="#ArialMT-65" transform="translate(885.464844 0)"/>
     <use xlink:href="#ArialMT-64" transform="translate(941.080078 0)"/>
     <use xlink:href="#ArialMT-69" transform="translate(996.695312 0)"/>
     <use xlink:href="#ArialMT-63" transform="translate(1018.912109 0)"/>
     <use xlink:href="#ArialMT-74" transform="translate(1068.912109 0)"/>
     <use xlink:href="#ArialMT-6f" transform="translate(1096.695312 0)"/>
     <use xlink:href="#ArialMT-72" transform="translate(1152.310547 0)"/>
     <use xlink:href="#ArialMT-73" transform="translate(1185.611328 0)"/>
    </g>
   </g>
   <g id="legend_1">
    <g id="text_18">
     <!-- Selected  -->
     <g style="fill: #262626" transform="translate(257.38625 280.863825) scale(0.096 -0.096)">
      <use xlink:href="#ArialMT-53"/>
      <use xlink:href="#ArialMT-65" transform="translate(66.699219 0)"/>
      <use xlink:href="#ArialMT-6c" transform="translate(122.314453 0)"/>
      <use xlink:href="#ArialMT-65" transform="translate(144.53125 0)"/>
      <use xlink:href="#ArialMT-63" transform="translate(200.146484 0)"/>
      <use xlink:href="#ArialMT-74" transform="translate(250.146484 0)"/>
      <use xlink:href="#ArialMT-65" transform="translate(277.929688 0)"/>
      <use xlink:href="#ArialMT-64" transform="translate(333.544922 0)"/>
      <use xlink:href="#ArialMT-20" transform="translate(389.160156 0)"/>
     </g>
     <!-- across folds -->
     <g style="fill: #262626" transform="translate(257.38625 291.017625) scale(0.096 -0.096)">
      <use xlink:href="#ArialMT-61"/>
      <use xlink:href="#ArialMT-63" transform="translate(55.615234 0)"/>
      <use xlink:href="#ArialMT-72" transform="translate(105.615234 0)"/>
      <use xlink:href="#ArialMT-6f" transform="translate(138.916016 0)"/>
      <use xlink:href="#ArialMT-73" transform="translate(194.53125 0)"/>
      <use xlink:href="#ArialMT-73" transform="translate(244.53125 0)"/>
      <use xlink:href="#ArialMT-20" transform="translate(294.53125 0)"/>
      <use xlink:href="#ArialMT-66" transform="translate(322.314453 0)"/>
      <use xlink:href="#ArialMT-6f" transform="translate(350.097656 0)"/>
      <use xlink:href="#ArialMT-6c" transform="translate(405.712891 0)"/>
      <use xlink:href="#ArialMT-64" transform="translate(427.929688 0)"/>
      <use xlink:href="#ArialMT-73" transform="translate(483.544922 0)"/>
     </g>
    </g>
    <g id="PathCollection_6">
     <defs>
      <path id="m472c54c9be" d="M 0 2.5 
C 0.663008 2.5 1.29895 2.236584 1.767767 1.767767 
C 2.236584 1.29895 2.5 0.663008 2.5 0 
C 2.5 -0.663008 2.236584 -1.29895 1.767767 -1.767767 
C 1.29895 -2.236584 0.663008 -2.5 0 -2.5 
C -0.663008 -2.5 -1.29895 -2.236584 -1.767767 -1.767767 
C -2.236584 -1.29895 -2.5 -0.663008 -2.5 0 
C -2.5 0.663008 -2.236584 1.29895 -1.767767 1.767767 
C -1.29895 2.236584 -0.663008 2.5 0 2.5 
z
" style="stroke: #808080; stroke-width: 0.8"/>
     </defs>
     <g>
      <use xlink:href="#m472c54c9be" x="262.85" y="312.765" style="fill: #808080; stroke: #808080; stroke-width: 0.8"/>
     </g>
    </g>
    <g id="text_19">
     <!-- 25% -->
     <g style="fill: #262626" transform="translate(284.45 315.915) scale(0.12 -0.12)">
      <defs>
       <path id="ArialMT-35" d="M 266 1200 
L 856 1250 
Q 922 819 1161 601 
Q 1400 384 1738 384 
Q 2144 384 2425 690 
Q 2706 997 2706 1503 
Q 2706 1984 2436 2262 
Q 2166 2541 1728 2541 
Q 1456 2541 1237 2417 
Q 1019 2294 894 2097 
L 366 2166 
L 809 4519 
L 3088 4519 
L 3088 3981 
L 1259 3981 
L 1013 2750 
Q 1425 3038 1878 3038 
Q 2478 3038 2890 2622 
Q 3303 2206 3303 1553 
Q 3303 931 2941 478 
Q 2500 -78 1738 -78 
Q 1113 -78 717 272 
Q 322 622 266 1200 
z
" transform="scale(0.015625)"/>
       <path id="ArialMT-25" d="M 372 3481 
Q 372 3972 619 4315 
Q 866 4659 1334 4659 
Q 1766 4659 2048 4351 
Q 2331 4044 2331 3447 
Q 2331 2866 2045 2552 
Q 1759 2238 1341 2238 
Q 925 2238 648 2547 
Q 372 2856 372 3481 
z
M 1350 4272 
Q 1141 4272 1002 4090 
Q 863 3909 863 3425 
Q 863 2984 1003 2804 
Q 1144 2625 1350 2625 
Q 1563 2625 1702 2806 
Q 1841 2988 1841 3469 
Q 1841 3913 1700 4092 
Q 1559 4272 1350 4272 
z
M 1353 -169 
L 3859 4659 
L 4316 4659 
L 1819 -169 
L 1353 -169 
z
M 3334 1075 
Q 3334 1569 3581 1911 
Q 3828 2253 4300 2253 
Q 4731 2253 5014 1945 
Q 5297 1638 5297 1041 
Q 5297 459 5011 145 
Q 4725 -169 4303 -169 
Q 3888 -169 3611 142 
Q 3334 453 3334 1075 
z
M 4316 1866 
Q 4103 1866 3964 1684 
Q 3825 1503 3825 1019 
Q 3825 581 3965 400 
Q 4106 219 4313 219 
Q 4528 219 4667 400 
Q 4806 581 4806 1063 
Q 4806 1506 4665 1686 
Q 4525 1866 4316 1866 
z
" transform="scale(0.015625)"/>
      </defs>
      <use xlink:href="#ArialMT-32"/>
      <use xlink:href="#ArialMT-35" transform="translate(55.615234 0)"/>
      <use xlink:href="#ArialMT-25" transform="translate(111.230469 0)"/>
     </g>
    </g>
    <g id="PathCollection_7">
     <defs>
      <path id="m35c582c2b6" d="M 0 3.535534 
C 0.937635 3.535534 1.836992 3.163008 2.5 2.5 
C 3.163008 1.836992 3.535534 0.937635 3.535534 0 
C 3.535534 -0.937635 3.163008 -1.836992 2.5 -2.5 
C 1.836992 -3.163008 0.937635 -3.535534 0 -3.535534 
C -0.937635 -3.535534 -1.836992 -3.163008 -2.5 -2.5 
C -3.163008 -1.836992 -3.535534 -0.937635 -3.535534 0 
C -3.535534 0.937635 -3.163008 1.836992 -2.5 2.5 
C -1.836992 3.163008 -0.937635 3.535534 0 3.535534 
z
" style="stroke: #808080; stroke-width: 0.8"/>
     </defs>
     <g>
      <use xlink:href="#m35c582c2b6" x="262.85" y="338.139375" style="fill: #808080; stroke: #808080; stroke-width: 0.8"/>
     </g>
    </g>
    <g id="text_20">
     <!-- 50% -->
     <g style="fill: #262626" transform="translate(284.45 341.289375) scale(0.12 -0.12)">
      <use xlink:href="#ArialMT-35"/>
      <use xlink:href="#ArialMT-30" transform="translate(55.615234 0)"/>
      <use xlink:href="#ArialMT-25" transform="translate(111.230469 0)"/>
     </g>
    </g>
    <g id="PathCollection_8">
     <defs>
      <path id="mfaad993b2f" d="M 0 4.330127 
C 1.148363 4.330127 2.249847 3.873878 3.061862 3.061862 
C 3.873878 2.249847 4.330127 1.148363 4.330127 0 
C 4.330127 -1.148363 3.873878 -2.249847 3.061862 -3.061862 
C 2.249847 -3.873878 1.148363 -4.330127 0 -4.330127 
C -1.148363 -4.330127 -2.249847 -3.873878 -3.061862 -3.061862 
C -3.873878 -2.249847 -4.330127 -1.148363 -4.330127 0 
C -4.330127 1.148363 -3.873878 2.249847 -3.061862 3.061862 
C -2.249847 3.873878 -1.148363 4.330127 0 4.330127 
z
" style="stroke: #808080; stroke-width: 0.8"/>
     </defs>
     <g>
      <use xlink:href="#mfaad993b2f" x="262.85" y="363.51375" style="fill: #808080; stroke: #808080; stroke-width: 0.8"/>
     </g>
    </g>
    <g id="text_21">
     <!-- 75% -->
     <g style="fill: #262626" transform="translate(284.45 366.66375) scale(0.12 -0.12)">
      <defs>
       <path id="ArialMT-37" d="M 303 3981 
L 303 4522 
L 3269 4522 
L 3269 4084 
Q 2831 3619 2401 2847 
Q 1972 2075 1738 1259 
Q 1569 684 1522 0 
L 944 0 
Q 953 541 1156 1306 
Q 1359 2072 1739 2783 
Q 2119 3494 2547 3981 
L 303 3981 
z
" transform="scale(0.015625)"/>
      </defs>
      <use xlink:href="#ArialMT-37"/>
      <use xlink:href="#ArialMT-35" transform="translate(55.615234 0)"/>
      <use xlink:href="#ArialMT-25" transform="translate(111.230469 0)"/>
     </g>
    </g>
    <g id="PathCollection_9">
     <defs>
      <path id="m87f06482ff" d="M 0 5 
C 1.326016 5 2.597899 4.473168 3.535534 3.535534 
C 4.473168 2.597899 5 1.326016 5 0 
C 5 -1.326016 4.473168 -2.597899 3.535534 -3.535534 
C 2.597899 -4.473168 1.326016 -5 0 -5 
C -1.326016 -5 -2.597899 -4.473168 -3.535534 -3.535534 
C -4.473168 -2.597899 -5 -1.326016 -5 0 
C -5 1.326016 -4.473168 2.597899 -3.535534 3.535534 
C -2.597899 4.473168 -1.326016 5 0 5 
z
" style="stroke: #808080; stroke-width: 0.8"/>
     </defs>
     <g>
      <use xlink:href="#m87f06482ff" x="262.85" y="388.888125" style="fill: #808080; stroke: #808080; stroke-width: 0.8"/>
     </g>
    </g>
    <g id="text_22">
     <!-- 100% -->
     <g style="fill: #262626" transform="translate(284.45 392.038125) scale(0.12 -0.12)">
      <use xlink:href="#ArialMT-31"/>
      <use xlink:href="#ArialMT-30" transform="translate(55.615234 0)"/>
      <use xlink:href="#ArialMT-30" transform="translate(111.230469 0)"/>
      <use xlink:href="#ArialMT-25" transform="translate(166.845703 0)"/>
     </g>
    </g>
   </g>
  </g>
 </g>
 <defs>
  <clipPath id="p4218e6a74b">
   <rect x="107.54" y="21.943125" width="223.2" height="388.08"/>
  </clipPath>
 </defs>
</svg>
