<?xml version="1.0" encoding="utf-8" standalone="no"?>
<!DOCTYPE svg PUBLIC "-//W3C//DTD SVG 1.1//EN"
  "http://www.w3.org/Graphics/SVG/1.1/DTD/svg11.dtd">
<svg xmlns:xlink="http://www.w3.org/1999/xlink" width="223.56014pt" height="240.835219pt" viewBox="0 0 223.56014 240.835219" xmlns="http://www.w3.org/2000/svg" version="1.1">
 <metadata>
  <rdf:RDF xmlns:dc="http://purl.org/dc/elements/1.1/" xmlns:cc="http://creativecommons.org/ns#" xmlns:rdf="http://www.w3.org/1999/02/22-rdf-syntax-ns#">
   <cc:Work>
    <dc:type rdf:resource="http://purl.org/dc/dcmitype/StillImage"/>
    <dc:date>2026-01-27T16:23:49.166143</dc:date>
    <dc:format>image/svg+xml</dc:format>
    <dc:creator>
     <cc:Agent>
      <dc:title>Matplotlib v3.10.5, https://matplotlib.org/</dc:title>
     </cc:Agent>
    </dc:creator>
   </cc:Work>
  </rdf:RDF>
 </metadata>
 <defs>
  <style type="text/css">*{stroke-linejoin: round; stroke-linecap: butt}</style>
 </defs>
 <g id="figure_1">
  <g id="patch_1">
   <path d="M 0 240.835219 
L 223.56014 240.835219 
L 223.56014 0 
L 0 0 
z
" style="fill: #ffffff"/>
  </g>
  <g id="axes_1">
   <g id="patch_2">
    <path d="M 46.959531 168.648188 
L 212.009436 168.648188 
L 212.009436 36.612188 
L 46.959531 36.612188 
z
" style="fill: #ffffff"/>
   </g>
   <g id="matplotlib.axis_1">
    <g id="xtick_1">
     <g id="text_1">
      <!-- 0.17 -->
      <g style="fill: #262626" transform="translate(71.37673 186.969125) scale(0.14 -0.14)">
       <defs>
        <path id="ArialMT-30" d="M 266 2259 
Q 266 3072 433 3567 
Q 600 4063 929 4331 
Q 1259 4600 1759 4600 
Q 2128 4600 2406 4451 
Q 2684 4303 2865 4023 
Q 3047 3744 3150 3342 
Q 3253 2941 3253 2259 
Q 3253 1453 3087 958 
Q 2922 463 2592 192 
Q 2263 -78 1759 -78 
Q 1097 -78 719 397 
Q 266 969 266 2259 
z
M 844 2259 
Q 844 1131 1108 757 
Q 1372 384 1759 384 
Q 2147 384 2411 759 
Q 2675 1134 2675 2259 
Q 2675 3391 2411 3762 
Q 2147 4134 1753 4134 
Q 1366 4134 1134 3806 
Q 844 3388 844 2259 
z
" transform="scale(0.015625)"/>
        <path id="ArialMT-2e" d="M 581 0 
L 581 641 
L 1222 641 
L 1222 0 
L 581 0 
z
" transform="scale(0.015625)"/>
        <path id="ArialMT-31" d="M 2384 0 
L 1822 0 
L 1822 3584 
Q 1619 3391 1289 3197 
Q 959 3003 697 2906 
L 697 3450 
Q 1169 3672 1522 3987 
Q 1875 4303 2022 4600 
L 2384 4600 
L 2384 0 
z
" transform="scale(0.015625)"/>
        <path id="ArialMT-37" d="M 303 3981 
L 303 4522 
L 3269 4522 
L 3269 4084 
Q 2831 3619 2401 2847 
Q 1972 2075 1738 1259 
Q 1569 684 1522 0 
L 944 0 
Q 953 541 1156 1306 
Q 1359 2072 1739 2783 
Q 2119 3494 2547 3981 
L 303 3981 
z
" transform="scale(0.015625)"/>
       </defs>
       <use xlink:href="#ArialMT-30"/>
       <use xlink:href="#ArialMT-2e" transform="translate(55.615234 0)"/>
       <use xlink:href="#ArialMT-31" transform="translate(83.398438 0)"/>
       <use xlink:href="#ArialMT-37" transform="translate(139.013672 0)"/>
      </g>
     </g>
    </g>
    <g id="xtick_2">
     <g id="text_2">
      <!-- 0.18 -->
      <g style="fill: #262626" transform="translate(130.245778 186.969125) scale(0.14 -0.14)">
       <defs>
        <path id="ArialMT-38" d="M 1131 2484 
Q 781 2613 612 2850 
Q 444 3088 444 3419 
Q 444 3919 803 4259 
Q 1163 4600 1759 4600 
Q 2359 4600 2725 4251 
Q 3091 3903 3091 3403 
Q 3091 3084 2923 2848 
Q 2756 2613 2416 2484 
Q 2838 2347 3058 2040 
Q 3278 1734 3278 1309 
Q 3278 722 2862 322 
Q 2447 -78 1769 -78 
Q 1091 -78 675 323 
Q 259 725 259 1325 
Q 259 1772 486 2073 
Q 713 2375 1131 2484 
z
M 1019 3438 
Q 1019 3113 1228 2906 
Q 1438 2700 1772 2700 
Q 2097 2700 2305 2904 
Q 2513 3109 2513 3406 
Q 2513 3716 2298 3927 
Q 2084 4138 1766 4138 
Q 1444 4138 1231 3931 
Q 1019 3725 1019 3438 
z
M 838 1322 
Q 838 1081 952 856 
Q 1066 631 1291 507 
Q 1516 384 1775 384 
Q 2178 384 2440 643 
Q 2703 903 2703 1303 
Q 2703 1709 2433 1975 
Q 2163 2241 1756 2241 
Q 1359 2241 1098 1978 
Q 838 1716 838 1322 
z
" transform="scale(0.015625)"/>
       </defs>
       <use xlink:href="#ArialMT-30"/>
       <use xlink:href="#ArialMT-2e" transform="translate(55.615234 0)"/>
       <use xlink:href="#ArialMT-31" transform="translate(83.398438 0)"/>
       <use xlink:href="#ArialMT-38" transform="translate(139.013672 0)"/>
      </g>
     </g>
    </g>
    <g id="xtick_3">
     <g id="text_3">
      <!-- 0.19 -->
      <g style="fill: #262626" transform="translate(189.114827 186.969125) scale(0.14 -0.14)">
       <defs>
        <path id="ArialMT-39" d="M 350 1059 
L 891 1109 
Q 959 728 1153 556 
Q 1347 384 1650 384 
Q 1909 384 2104 503 
Q 2300 622 2425 820 
Q 2550 1019 2634 1356 
Q 2719 1694 2719 2044 
Q 2719 2081 2716 2156 
Q 2547 1888 2255 1720 
Q 1963 1553 1622 1553 
Q 1053 1553 659 1965 
Q 266 2378 266 3053 
Q 266 3750 677 4175 
Q 1088 4600 1706 4600 
Q 2153 4600 2523 4359 
Q 2894 4119 3086 3673 
Q 3278 3228 3278 2384 
Q 3278 1506 3087 986 
Q 2897 466 2520 194 
Q 2144 -78 1638 -78 
Q 1100 -78 759 220 
Q 419 519 350 1059 
z
M 2653 3081 
Q 2653 3566 2395 3850 
Q 2138 4134 1775 4134 
Q 1400 4134 1122 3828 
Q 844 3522 844 3034 
Q 844 2597 1108 2323 
Q 1372 2050 1759 2050 
Q 2150 2050 2401 2323 
Q 2653 2597 2653 3081 
z
" transform="scale(0.015625)"/>
       </defs>
       <use xlink:href="#ArialMT-30"/>
       <use xlink:href="#ArialMT-2e" transform="translate(55.615234 0)"/>
       <use xlink:href="#ArialMT-31" transform="translate(83.398438 0)"/>
       <use xlink:href="#ArialMT-39" transform="translate(139.013672 0)"/>
      </g>
     </g>
    </g>
    <g id="text_4">
     <!-- Whole body  -->
     <g style="fill: #262626" transform="translate(93.355655 203.056781) scale(0.13 -0.13)">
      <defs>
       <path id="ArialMT-57" d="M 1294 0 
L 78 4581 
L 700 4581 
L 1397 1578 
Q 1509 1106 1591 641 
Q 1766 1375 1797 1488 
L 2669 4581 
L 3400 4581 
L 4056 2263 
Q 4303 1400 4413 641 
Q 4500 1075 4641 1638 
L 5359 4581 
L 5969 4581 
L 4713 0 
L 4128 0 
L 3163 3491 
Q 3041 3928 3019 4028 
Q 2947 3713 2884 3491 
L 1913 0 
L 1294 0 
z
" transform="scale(0.015625)"/>
       <path id="ArialMT-68" d="M 422 0 
L 422 4581 
L 984 4581 
L 984 2938 
Q 1378 3394 1978 3394 
Q 2347 3394 2619 3248 
Q 2891 3103 3008 2847 
Q 3125 2591 3125 2103 
L 3125 0 
L 2563 0 
L 2563 2103 
Q 2563 2525 2380 2717 
Q 2197 2909 1863 2909 
Q 1613 2909 1392 2779 
Q 1172 2650 1078 2428 
Q 984 2206 984 1816 
L 984 0 
L 422 0 
z
" transform="scale(0.015625)"/>
       <path id="ArialMT-6f" d="M 213 1659 
Q 213 2581 725 3025 
Q 1153 3394 1769 3394 
Q 2453 3394 2887 2945 
Q 3322 2497 3322 1706 
Q 3322 1066 3130 698 
Q 2938 331 2570 128 
Q 2203 -75 1769 -75 
Q 1072 -75 642 372 
Q 213 819 213 1659 
z
M 791 1659 
Q 791 1022 1069 705 
Q 1347 388 1769 388 
Q 2188 388 2466 706 
Q 2744 1025 2744 1678 
Q 2744 2294 2464 2611 
Q 2184 2928 1769 2928 
Q 1347 2928 1069 2612 
Q 791 2297 791 1659 
z
" transform="scale(0.015625)"/>
       <path id="ArialMT-6c" d="M 409 0 
L 409 4581 
L 972 4581 
L 972 0 
L 409 0 
z
" transform="scale(0.015625)"/>
       <path id="ArialMT-65" d="M 2694 1069 
L 3275 997 
Q 3138 488 2766 206 
Q 2394 -75 1816 -75 
Q 1088 -75 661 373 
Q 234 822 234 1631 
Q 234 2469 665 2931 
Q 1097 3394 1784 3394 
Q 2450 3394 2872 2941 
Q 3294 2488 3294 1666 
Q 3294 1616 3291 1516 
L 816 1516 
Q 847 969 1125 678 
Q 1403 388 1819 388 
Q 2128 388 2347 550 
Q 2566 713 2694 1069 
z
M 847 1978 
L 2700 1978 
Q 2663 2397 2488 2606 
Q 2219 2931 1791 2931 
Q 1403 2931 1139 2672 
Q 875 2413 847 1978 
z
" transform="scale(0.015625)"/>
       <path id="ArialMT-20" transform="scale(0.015625)"/>
       <path id="ArialMT-62" d="M 941 0 
L 419 0 
L 419 4581 
L 981 4581 
L 981 2947 
Q 1338 3394 1891 3394 
Q 2197 3394 2470 3270 
Q 2744 3147 2920 2923 
Q 3097 2700 3197 2384 
Q 3297 2069 3297 1709 
Q 3297 856 2875 390 
Q 2453 -75 1863 -75 
Q 1275 -75 941 416 
L 941 0 
z
M 934 1684 
Q 934 1088 1097 822 
Q 1363 388 1816 388 
Q 2184 388 2453 708 
Q 2722 1028 2722 1663 
Q 2722 2313 2464 2622 
Q 2206 2931 1841 2931 
Q 1472 2931 1203 2611 
Q 934 2291 934 1684 
z
" transform="scale(0.015625)"/>
       <path id="ArialMT-64" d="M 2575 0 
L 2575 419 
Q 2259 -75 1647 -75 
Q 1250 -75 917 144 
Q 584 363 401 755 
Q 219 1147 219 1656 
Q 219 2153 384 2558 
Q 550 2963 881 3178 
Q 1213 3394 1622 3394 
Q 1922 3394 2156 3267 
Q 2391 3141 2538 2938 
L 2538 4581 
L 3097 4581 
L 3097 0 
L 2575 0 
z
M 797 1656 
Q 797 1019 1065 703 
Q 1334 388 1700 388 
Q 2069 388 2326 689 
Q 2584 991 2584 1609 
Q 2584 2291 2321 2609 
Q 2059 2928 1675 2928 
Q 1300 2928 1048 2622 
Q 797 2316 797 1656 
z
" transform="scale(0.015625)"/>
       <path id="ArialMT-79" d="M 397 -1278 
L 334 -750 
Q 519 -800 656 -800 
Q 844 -800 956 -737 
Q 1069 -675 1141 -563 
Q 1194 -478 1313 -144 
Q 1328 -97 1363 -6 
L 103 3319 
L 709 3319 
L 1400 1397 
Q 1534 1031 1641 628 
Q 1738 1016 1872 1384 
L 2581 3319 
L 3144 3319 
L 1881 -56 
Q 1678 -603 1566 -809 
Q 1416 -1088 1222 -1217 
Q 1028 -1347 759 -1347 
Q 597 -1347 397 -1278 
z
" transform="scale(0.015625)"/>
      </defs>
      <use xlink:href="#ArialMT-57"/>
      <use xlink:href="#ArialMT-68" transform="translate(94.384766 0)"/>
      <use xlink:href="#ArialMT-6f" transform="translate(150 0)"/>
      <use xlink:href="#ArialMT-6c" transform="translate(205.615234 0)"/>
      <use xlink:href="#ArialMT-65" transform="translate(227.832031 0)"/>
      <use xlink:href="#ArialMT-20" transform="translate(283.447266 0)"/>
      <use xlink:href="#ArialMT-62" transform="translate(311.230469 0)"/>
      <use xlink:href="#ArialMT-6f" transform="translate(366.845703 0)"/>
      <use xlink:href="#ArialMT-64" transform="translate(422.460938 0)"/>
      <use xlink:href="#ArialMT-79" transform="translate(478.076172 0)"/>
      <use xlink:href="#ArialMT-20" transform="translate(528.076172 0)"/>
     </g>
     <!-- ON DOPA  -->
     <g style="fill: #262626" transform="translate(98.53839 216.959062) scale(0.13 -0.13)">
      <defs>
       <path id="ArialMT-4f" d="M 309 2231 
Q 309 3372 921 4017 
Q 1534 4663 2503 4663 
Q 3138 4663 3647 4359 
Q 4156 4056 4423 3514 
Q 4691 2972 4691 2284 
Q 4691 1588 4409 1038 
Q 4128 488 3612 205 
Q 3097 -78 2500 -78 
Q 1853 -78 1343 234 
Q 834 547 571 1087 
Q 309 1628 309 2231 
z
M 934 2222 
Q 934 1394 1379 917 
Q 1825 441 2497 441 
Q 3181 441 3623 922 
Q 4066 1403 4066 2288 
Q 4066 2847 3877 3264 
Q 3688 3681 3323 3911 
Q 2959 4141 2506 4141 
Q 1863 4141 1398 3698 
Q 934 3256 934 2222 
z
" transform="scale(0.015625)"/>
       <path id="ArialMT-4e" d="M 488 0 
L 488 4581 
L 1109 4581 
L 3516 984 
L 3516 4581 
L 4097 4581 
L 4097 0 
L 3475 0 
L 1069 3600 
L 1069 0 
L 488 0 
z
" transform="scale(0.015625)"/>
       <path id="ArialMT-44" d="M 494 0 
L 494 4581 
L 2072 4581 
Q 2606 4581 2888 4516 
Q 3281 4425 3559 4188 
Q 3922 3881 4101 3404 
Q 4281 2928 4281 2316 
Q 4281 1794 4159 1391 
Q 4038 988 3847 723 
Q 3656 459 3429 307 
Q 3203 156 2883 78 
Q 2563 0 2147 0 
L 494 0 
z
M 1100 541 
L 2078 541 
Q 2531 541 2789 625 
Q 3047 709 3200 863 
Q 3416 1078 3536 1442 
Q 3656 1806 3656 2325 
Q 3656 3044 3420 3430 
Q 3184 3816 2847 3947 
Q 2603 4041 2063 4041 
L 1100 4041 
L 1100 541 
z
" transform="scale(0.015625)"/>
       <path id="ArialMT-50" d="M 494 0 
L 494 4581 
L 2222 4581 
Q 2678 4581 2919 4538 
Q 3256 4481 3484 4323 
Q 3713 4166 3852 3881 
Q 3991 3597 3991 3256 
Q 3991 2672 3619 2267 
Q 3247 1863 2275 1863 
L 1100 1863 
L 1100 0 
L 494 0 
z
M 1100 2403 
L 2284 2403 
Q 2872 2403 3119 2622 
Q 3366 2841 3366 3238 
Q 3366 3525 3220 3729 
Q 3075 3934 2838 4000 
Q 2684 4041 2272 4041 
L 1100 4041 
L 1100 2403 
z
" transform="scale(0.015625)"/>
       <path id="ArialMT-41" d="M -9 0 
L 1750 4581 
L 2403 4581 
L 4278 0 
L 3588 0 
L 3053 1388 
L 1138 1388 
L 634 0 
L -9 0 
z
M 1313 1881 
L 2866 1881 
L 2388 3150 
Q 2169 3728 2063 4100 
Q 1975 3659 1816 3225 
L 1313 1881 
z
" transform="scale(0.015625)"/>
      </defs>
      <use xlink:href="#ArialMT-4f"/>
      <use xlink:href="#ArialMT-4e" transform="translate(77.783203 0)"/>
      <use xlink:href="#ArialMT-20" transform="translate(150 0)"/>
      <use xlink:href="#ArialMT-44" transform="translate(177.783203 0)"/>
      <use xlink:href="#ArialMT-4f" transform="translate(250 0)"/>
      <use xlink:href="#ArialMT-50" transform="translate(327.783203 0)"/>
      <use xlink:href="#ArialMT-41" transform="translate(387.107422 0)"/>
      <use xlink:href="#ArialMT-20" transform="translate(448.306641 0)"/>
     </g>
     <!-- Mean |correlation| -->
     <g style="fill: #262626" transform="translate(77.696749 230.899125) scale(0.13 -0.13)">
      <defs>
       <path id="ArialMT-4d" d="M 475 0 
L 475 4581 
L 1388 4581 
L 2472 1338 
Q 2622 884 2691 659 
Q 2769 909 2934 1394 
L 4031 4581 
L 4847 4581 
L 4847 0 
L 4263 0 
L 4263 3834 
L 2931 0 
L 2384 0 
L 1059 3900 
L 1059 0 
L 475 0 
z
" transform="scale(0.015625)"/>
       <path id="ArialMT-61" d="M 2588 409 
Q 2275 144 1986 34 
Q 1697 -75 1366 -75 
Q 819 -75 525 192 
Q 231 459 231 875 
Q 231 1119 342 1320 
Q 453 1522 633 1644 
Q 813 1766 1038 1828 
Q 1203 1872 1538 1913 
Q 2219 1994 2541 2106 
Q 2544 2222 2544 2253 
Q 2544 2597 2384 2738 
Q 2169 2928 1744 2928 
Q 1347 2928 1158 2789 
Q 969 2650 878 2297 
L 328 2372 
Q 403 2725 575 2942 
Q 747 3159 1072 3276 
Q 1397 3394 1825 3394 
Q 2250 3394 2515 3294 
Q 2781 3194 2906 3042 
Q 3031 2891 3081 2659 
Q 3109 2516 3109 2141 
L 3109 1391 
Q 3109 606 3145 398 
Q 3181 191 3288 0 
L 2700 0 
Q 2613 175 2588 409 
z
M 2541 1666 
Q 2234 1541 1622 1453 
Q 1275 1403 1131 1340 
Q 988 1278 909 1158 
Q 831 1038 831 891 
Q 831 666 1001 516 
Q 1172 366 1500 366 
Q 1825 366 2078 508 
Q 2331 650 2450 897 
Q 2541 1088 2541 1459 
L 2541 1666 
z
" transform="scale(0.015625)"/>
       <path id="ArialMT-6e" d="M 422 0 
L 422 3319 
L 928 3319 
L 928 2847 
Q 1294 3394 1984 3394 
Q 2284 3394 2536 3286 
Q 2788 3178 2913 3003 
Q 3038 2828 3088 2588 
Q 3119 2431 3119 2041 
L 3119 0 
L 2556 0 
L 2556 2019 
Q 2556 2363 2490 2533 
Q 2425 2703 2258 2804 
Q 2091 2906 1866 2906 
Q 1506 2906 1245 2678 
Q 984 2450 984 1813 
L 984 0 
L 422 0 
z
" transform="scale(0.015625)"/>
       <path id="ArialMT-7c" d="M 588 -1347 
L 588 4659 
L 1078 4659 
L 1078 -1347 
L 588 -1347 
z
" transform="scale(0.015625)"/>
       <path id="ArialMT-63" d="M 2588 1216 
L 3141 1144 
Q 3050 572 2676 248 
Q 2303 -75 1759 -75 
Q 1078 -75 664 370 
Q 250 816 250 1647 
Q 250 2184 428 2587 
Q 606 2991 970 3192 
Q 1334 3394 1763 3394 
Q 2303 3394 2647 3120 
Q 2991 2847 3088 2344 
L 2541 2259 
Q 2463 2594 2264 2762 
Q 2066 2931 1784 2931 
Q 1359 2931 1093 2626 
Q 828 2322 828 1663 
Q 828 994 1084 691 
Q 1341 388 1753 388 
Q 2084 388 2306 591 
Q 2528 794 2588 1216 
z
" transform="scale(0.015625)"/>
       <path id="ArialMT-72" d="M 416 0 
L 416 3319 
L 922 3319 
L 922 2816 
Q 1116 3169 1280 3281 
Q 1444 3394 1641 3394 
Q 1925 3394 2219 3213 
L 2025 2691 
Q 1819 2813 1613 2813 
Q 1428 2813 1281 2702 
Q 1134 2591 1072 2394 
Q 978 2094 978 1738 
L 978 0 
L 416 0 
z
" transform="scale(0.015625)"/>
       <path id="ArialMT-74" d="M 1650 503 
L 1731 6 
Q 1494 -44 1306 -44 
Q 1000 -44 831 53 
Q 663 150 594 308 
Q 525 466 525 972 
L 525 2881 
L 113 2881 
L 113 3319 
L 525 3319 
L 525 4141 
L 1084 4478 
L 1084 3319 
L 1650 3319 
L 1650 2881 
L 1084 2881 
L 1084 941 
Q 1084 700 1114 631 
Q 1144 563 1211 522 
Q 1278 481 1403 481 
Q 1497 481 1650 503 
z
" transform="scale(0.015625)"/>
       <path id="ArialMT-69" d="M 425 3934 
L 425 4581 
L 988 4581 
L 988 3934 
L 425 3934 
z
M 425 0 
L 425 3319 
L 988 3319 
L 988 0 
L 425 0 
z
" transform="scale(0.015625)"/>
      </defs>
      <use xlink:href="#ArialMT-4d"/>
      <use xlink:href="#ArialMT-65" transform="translate(83.300781 0)"/>
      <use xlink:href="#ArialMT-61" transform="translate(138.916016 0)"/>
      <use xlink:href="#ArialMT-6e" transform="translate(194.53125 0)"/>
      <use xlink:href="#ArialMT-20" transform="translate(250.146484 0)"/>
      <use xlink:href="#ArialMT-7c" transform="translate(277.929688 0)"/>
      <use xlink:href="#ArialMT-63" transform="translate(303.90625 0)"/>
      <use xlink:href="#ArialMT-6f" transform="translate(353.90625 0)"/>
      <use xlink:href="#ArialMT-72" transform="translate(409.521484 0)"/>
      <use xlink:href="#ArialMT-72" transform="translate(442.822266 0)"/>
      <use xlink:href="#ArialMT-65" transform="translate(476.123047 0)"/>
      <use xlink:href="#ArialMT-6c" transform="translate(531.738281 0)"/>
      <use xlink:href="#ArialMT-61" transform="translate(553.955078 0)"/>
      <use xlink:href="#ArialMT-74" transform="translate(609.570312 0)"/>
      <use xlink:href="#ArialMT-69" transform="translate(637.353516 0)"/>
      <use xlink:href="#ArialMT-6f" transform="translate(659.570312 0)"/>
      <use xlink:href="#ArialMT-6e" transform="translate(715.185547 0)"/>
      <use xlink:href="#ArialMT-7c" transform="translate(770.800781 0)"/>
     </g>
    </g>
   </g>
   <g id="matplotlib.axis_2">
    <g id="ytick_1">
     <g id="text_5">
      <!-- 20 -->
      <g style="fill: #262626" transform="translate(23.088906 134.11231) scale(0.14 -0.14)">
       <defs>
        <path id="ArialMT-32" d="M 3222 541 
L 3222 0 
L 194 0 
Q 188 203 259 391 
Q 375 700 629 1000 
Q 884 1300 1366 1694 
Q 2113 2306 2375 2664 
Q 2638 3022 2638 3341 
Q 2638 3675 2398 3904 
Q 2159 4134 1775 4134 
Q 1369 4134 1125 3890 
Q 881 3647 878 3216 
L 300 3275 
Q 359 3922 746 4261 
Q 1134 4600 1788 4600 
Q 2447 4600 2831 4234 
Q 3216 3869 3216 3328 
Q 3216 3053 3103 2787 
Q 2991 2522 2730 2228 
Q 2469 1934 1863 1422 
Q 1356 997 1212 845 
Q 1069 694 975 541 
L 3222 541 
z
" transform="scale(0.015625)"/>
       </defs>
       <use xlink:href="#ArialMT-32"/>
       <use xlink:href="#ArialMT-30" transform="translate(55.615234 0)"/>
      </g>
     </g>
    </g>
    <g id="ytick_2">
     <g id="text_6">
      <!-- 30 -->
      <g style="fill: #262626" transform="translate(23.088906 76.453632) scale(0.14 -0.14)">
       <defs>
        <path id="ArialMT-33" d="M 269 1209 
L 831 1284 
Q 928 806 1161 595 
Q 1394 384 1728 384 
Q 2125 384 2398 659 
Q 2672 934 2672 1341 
Q 2672 1728 2419 1979 
Q 2166 2231 1775 2231 
Q 1616 2231 1378 2169 
L 1441 2663 
Q 1497 2656 1531 2656 
Q 1891 2656 2178 2843 
Q 2466 3031 2466 3422 
Q 2466 3731 2256 3934 
Q 2047 4138 1716 4138 
Q 1388 4138 1169 3931 
Q 950 3725 888 3313 
L 325 3413 
Q 428 3978 793 4289 
Q 1159 4600 1703 4600 
Q 2078 4600 2393 4439 
Q 2709 4278 2876 4000 
Q 3044 3722 3044 3409 
Q 3044 3113 2884 2869 
Q 2725 2625 2413 2481 
Q 2819 2388 3044 2092 
Q 3269 1797 3269 1353 
Q 3269 753 2831 336 
Q 2394 -81 1725 -81 
Q 1122 -81 723 278 
Q 325 638 269 1209 
z
" transform="scale(0.015625)"/>
       </defs>
       <use xlink:href="#ArialMT-33"/>
       <use xlink:href="#ArialMT-30" transform="translate(55.615234 0)"/>
      </g>
     </g>
    </g>
    <g id="text_7">
     <!-- FOGQ PREOP -->
     <g style="fill: #262626" transform="translate(16.505156 146.3305) rotate(-90) scale(0.13 -0.13)">
      <defs>
       <path id="ArialMT-46" d="M 525 0 
L 525 4581 
L 3616 4581 
L 3616 4041 
L 1131 4041 
L 1131 2622 
L 3281 2622 
L 3281 2081 
L 1131 2081 
L 1131 0 
L 525 0 
z
" transform="scale(0.015625)"/>
       <path id="ArialMT-47" d="M 2638 1797 
L 2638 2334 
L 4578 2338 
L 4578 638 
Q 4131 281 3656 101 
Q 3181 -78 2681 -78 
Q 2006 -78 1454 211 
Q 903 500 622 1047 
Q 341 1594 341 2269 
Q 341 2938 620 3517 
Q 900 4097 1425 4378 
Q 1950 4659 2634 4659 
Q 3131 4659 3532 4498 
Q 3934 4338 4162 4050 
Q 4391 3763 4509 3300 
L 3963 3150 
Q 3859 3500 3706 3700 
Q 3553 3900 3268 4020 
Q 2984 4141 2638 4141 
Q 2222 4141 1919 4014 
Q 1616 3888 1430 3681 
Q 1244 3475 1141 3228 
Q 966 2803 966 2306 
Q 966 1694 1177 1281 
Q 1388 869 1791 669 
Q 2194 469 2647 469 
Q 3041 469 3416 620 
Q 3791 772 3984 944 
L 3984 1797 
L 2638 1797 
z
" transform="scale(0.015625)"/>
       <path id="ArialMT-51" d="M 3966 491 
Q 4388 200 4744 66 
L 4566 -356 
Q 4072 -178 3581 206 
Q 3072 -78 2456 -78 
Q 1834 -78 1328 222 
Q 822 522 548 1065 
Q 275 1609 275 2291 
Q 275 2969 550 3525 
Q 825 4081 1333 4372 
Q 1841 4663 2469 4663 
Q 3103 4663 3612 4361 
Q 4122 4059 4389 3517 
Q 4656 2975 4656 2294 
Q 4656 1728 4484 1276 
Q 4313 825 3966 491 
z
M 2631 1266 
Q 3156 1119 3497 828 
Q 4031 1316 4031 2294 
Q 4031 2850 3842 3265 
Q 3653 3681 3289 3911 
Q 2925 4141 2472 4141 
Q 1794 4141 1347 3677 
Q 900 3213 900 2291 
Q 900 1397 1342 919 
Q 1784 441 2472 441 
Q 2797 441 3084 563 
Q 2800 747 2484 825 
L 2631 1266 
z
" transform="scale(0.015625)"/>
       <path id="ArialMT-52" d="M 503 0 
L 503 4581 
L 2534 4581 
Q 3147 4581 3465 4457 
Q 3784 4334 3975 4021 
Q 4166 3709 4166 3331 
Q 4166 2844 3850 2509 
Q 3534 2175 2875 2084 
Q 3116 1969 3241 1856 
Q 3506 1613 3744 1247 
L 4541 0 
L 3778 0 
L 3172 953 
Q 2906 1366 2734 1584 
Q 2563 1803 2427 1890 
Q 2291 1978 2150 2013 
Q 2047 2034 1813 2034 
L 1109 2034 
L 1109 0 
L 503 0 
z
M 1109 2559 
L 2413 2559 
Q 2828 2559 3062 2645 
Q 3297 2731 3419 2920 
Q 3541 3109 3541 3331 
Q 3541 3656 3305 3865 
Q 3069 4075 2559 4075 
L 1109 4075 
L 1109 2559 
z
" transform="scale(0.015625)"/>
       <path id="ArialMT-45" d="M 506 0 
L 506 4581 
L 3819 4581 
L 3819 4041 
L 1113 4041 
L 1113 2638 
L 3647 2638 
L 3647 2100 
L 1113 2100 
L 1113 541 
L 3925 541 
L 3925 0 
L 506 0 
z
" transform="scale(0.015625)"/>
      </defs>
      <use xlink:href="#ArialMT-46"/>
      <use xlink:href="#ArialMT-4f" transform="translate(61.083984 0)"/>
      <use xlink:href="#ArialMT-47" transform="translate(138.867188 0)"/>
      <use xlink:href="#ArialMT-51" transform="translate(216.650391 0)"/>
      <use xlink:href="#ArialMT-20" transform="translate(294.433594 0)"/>
      <use xlink:href="#ArialMT-50" transform="translate(322.216797 0)"/>
      <use xlink:href="#ArialMT-52" transform="translate(388.916016 0)"/>
      <use xlink:href="#ArialMT-45" transform="translate(461.132812 0)"/>
      <use xlink:href="#ArialMT-4f" transform="translate(527.832031 0)"/>
      <use xlink:href="#ArialMT-50" transform="translate(605.615234 0)"/>
     </g>
    </g>
   </g>
   <g id="PathCollection_1">
    <defs>
     <path id="C0_0_d062add4de" d="M 0 5 
C 1.326016 5 2.597899 4.473168 3.535534 3.535534 
C 4.473168 2.597899 5 1.326016 5 -0 
C 5 -1.326016 4.473168 -2.597899 3.535534 -3.535534 
C 2.597899 -4.473168 1.326016 -5 0 -5 
C -1.326016 -5 -2.597899 -4.473168 -3.535534 -3.535534 
C -4.473168 -2.597899 -5 -1.326016 -5 0 
C -5 1.326016 -4.473168 2.597899 -3.535534 3.535534 
C -2.597899 4.473168 -1.326016 5 0 5 
z
"/>
    </defs>
    <g clip-path="url(#p5da89f57a5)">
     <use xlink:href="#C0_0_d062add4de" x="119.547279" y="82.974899" style="fill: #fca5a5"/>
    </g>
    <g clip-path="url(#p5da89f57a5)">
     <use xlink:href="#C0_0_d062add4de" x="106.323406" y="54.14556" style="fill: #fca5a5"/>
    </g>
    <g clip-path="url(#p5da89f57a5)">
     <use xlink:href="#C0_0_d062add4de" x="167.727117" y="100.272502" style="fill: #fca5a5"/>
    </g>
    <g clip-path="url(#p5da89f57a5)">
     <use xlink:href="#C0_0_d062add4de" x="123.475195" y="134.867709" style="fill: #fca5a5"/>
    </g>
    <g clip-path="url(#p5da89f57a5)">
     <use xlink:href="#C0_0_d062add4de" x="174.968107" y="106.03837" style="fill: #fca5a5"/>
    </g>
    <g clip-path="url(#p5da89f57a5)">
     <use xlink:href="#C0_0_d062add4de" x="99.199701" y="82.974899" style="fill: #fca5a5"/>
    </g>
    <g clip-path="url(#p5da89f57a5)">
     <use xlink:href="#C0_0_d062add4de" x="113.924142" y="117.570106" style="fill: #fca5a5"/>
    </g>
    <g clip-path="url(#p5da89f57a5)">
     <use xlink:href="#C0_0_d062add4de" x="115.64761" y="129.101841" style="fill: #fca5a5"/>
    </g>
    <g clip-path="url(#p5da89f57a5)">
     <use xlink:href="#C0_0_d062add4de" x="74.35691" y="42.613824" style="fill: #fca5a5"/>
    </g>
    <g clip-path="url(#p5da89f57a5)">
     <use xlink:href="#C0_0_d062add4de" x="54.4618" y="54.14556" style="fill: #fca5a5"/>
    </g>
    <g clip-path="url(#p5da89f57a5)">
     <use xlink:href="#C0_0_d062add4de" x="123.553004" y="82.974899" style="fill: #fca5a5"/>
    </g>
    <g clip-path="url(#p5da89f57a5)">
     <use xlink:href="#C0_0_d062add4de" x="150.480764" y="123.335973" style="fill: #fca5a5"/>
    </g>
    <g clip-path="url(#p5da89f57a5)">
     <use xlink:href="#C0_0_d062add4de" x="204.507167" y="117.570106" style="fill: #fca5a5"/>
    </g>
    <g clip-path="url(#p5da89f57a5)">
     <use xlink:href="#C0_0_d062add4de" x="75.117984" y="94.506634" style="fill: #fca5a5"/>
    </g>
    <g clip-path="url(#p5da89f57a5)">
     <use xlink:href="#C0_0_d062add4de" x="69.498881" y="65.677295" style="fill: #fca5a5"/>
    </g>
    <g clip-path="url(#p5da89f57a5)">
     <use xlink:href="#C0_0_d062add4de" x="148.438778" y="123.335973" style="fill: #fca5a5"/>
    </g>
   </g>
   <g id="FillBetweenPolyCollection_1">
    <defs>
     <path id="m8f984bc2f2" d="M 54.4618 -193.370651 
L 54.4618 -149.839391 
L 55.977409 -149.594904 
L 57.493019 -149.352555 
L 59.008629 -148.944219 
L 60.524239 -148.532443 
L 62.039848 -148.120667 
L 63.555458 -147.839523 
L 65.071068 -147.563765 
L 66.586678 -147.288007 
L 68.102288 -146.95969 
L 69.617897 -146.572639 
L 71.133507 -146.269405 
L 72.649117 -145.978301 
L 74.164727 -145.57815 
L 75.680336 -145.144755 
L 77.195946 -144.827602 
L 78.711556 -144.510449 
L 80.227166 -144.194519 
L 81.742776 -143.878777 
L 83.258385 -143.563036 
L 84.773995 -143.247295 
L 86.289605 -142.931554 
L 87.805215 -142.615812 
L 89.320824 -142.269807 
L 90.836434 -141.784383 
L 92.352044 -141.298958 
L 93.867654 -140.813533 
L 95.383264 -140.330789 
L 96.898873 -139.807685 
L 98.414483 -139.370486 
L 99.930093 -139.070808 
L 101.445703 -138.777725 
L 102.961312 -138.492348 
L 104.476922 -138.272621 
L 105.992532 -137.893319 
L 107.508142 -137.577752 
L 109.023751 -137.081243 
L 110.539361 -136.67004 
L 112.054971 -136.003129 
L 113.570581 -135.41563 
L 115.086191 -135.028769 
L 116.6018 -134.491334 
L 118.11741 -134.004593 
L 119.63302 -133.595542 
L 121.14863 -132.879808 
L 122.664239 -132.058555 
L 124.179849 -131.546032 
L 125.695459 -130.828494 
L 127.211069 -130.229787 
L 128.726679 -129.516869 
L 130.242288 -128.701336 
L 131.757898 -127.717523 
L 133.273508 -127.241019 
L 134.789118 -126.596789 
L 136.304727 -125.639035 
L 137.820337 -124.939553 
L 139.335947 -124.343436 
L 140.851557 -123.272059 
L 142.367166 -122.180601 
L 143.882776 -121.006632 
L 145.398386 -119.996171 
L 146.913996 -118.899887 
L 148.429606 -117.969729 
L 149.945215 -116.673374 
L 151.460825 -115.323157 
L 152.976435 -114.067432 
L 154.492045 -113.014432 
L 156.007654 -111.961697 
L 157.523264 -110.911181 
L 159.038874 -109.934342 
L 160.554484 -109.04902 
L 162.070094 -108.208258 
L 163.585703 -107.383411 
L 165.101313 -106.1786 
L 166.616923 -105.01141 
L 168.132533 -103.96445 
L 169.648142 -102.975217 
L 171.163752 -101.985984 
L 172.679362 -100.996751 
L 174.194972 -100.007518 
L 175.710582 -99.018285 
L 177.226191 -98.029052 
L 178.741801 -97.039819 
L 180.257411 -95.985232 
L 181.773021 -94.920832 
L 183.28863 -93.845205 
L 184.80424 -92.673558 
L 186.31985 -91.498442 
L 187.83546 -90.327327 
L 189.351069 -89.1533 
L 190.866679 -87.979274 
L 192.382289 -86.806878 
L 193.897899 -85.661059 
L 195.413509 -84.605953 
L 196.929118 -83.550847 
L 198.444728 -82.49574 
L 199.960338 -81.440634 
L 201.475948 -80.369135 
L 202.991557 -79.263513 
L 204.507167 -78.188668 
L 204.507167 -122.64324 
L 204.507167 -122.64324 
L 202.991557 -123.176507 
L 201.475948 -123.646673 
L 199.960338 -124.11792 
L 198.444728 -124.623347 
L 196.929118 -125.112348 
L 195.413509 -125.633378 
L 193.897899 -126.084249 
L 192.382289 -126.570374 
L 190.866679 -126.89727 
L 189.351069 -127.300417 
L 187.83546 -127.625006 
L 186.31985 -128.124404 
L 184.80424 -128.757122 
L 183.28863 -129.162022 
L 181.773021 -129.710188 
L 180.257411 -130.201677 
L 178.741801 -130.673902 
L 177.226191 -131.237734 
L 175.710582 -131.836279 
L 174.194972 -132.408456 
L 172.679362 -132.908731 
L 171.163752 -133.494973 
L 169.648142 -134.087777 
L 168.132533 -134.804857 
L 166.616923 -135.374006 
L 165.101313 -135.946045 
L 163.585703 -136.611868 
L 162.070094 -137.26987 
L 160.554484 -137.849976 
L 159.038874 -138.447339 
L 157.523264 -139.163439 
L 156.007654 -139.835024 
L 154.492045 -140.610902 
L 152.976435 -141.381328 
L 151.460825 -141.938926 
L 149.945215 -142.670911 
L 148.429606 -143.358135 
L 146.913996 -143.99986 
L 145.398386 -144.689016 
L 143.882776 -145.358765 
L 142.367166 -145.992627 
L 140.851557 -146.635559 
L 139.335947 -147.338144 
L 137.820337 -148.044742 
L 136.304727 -148.751279 
L 134.789118 -149.491247 
L 133.273508 -150.296597 
L 131.757898 -151.101946 
L 130.242288 -151.747428 
L 128.726679 -152.279643 
L 127.211069 -152.970997 
L 125.695459 -153.673251 
L 124.179849 -154.375505 
L 122.664239 -155.115564 
L 121.14863 -155.820153 
L 119.63302 -156.561016 
L 118.11741 -157.227084 
L 116.6018 -157.94734 
L 115.086191 -158.732682 
L 113.570581 -159.518024 
L 112.054971 -160.303366 
L 110.539361 -161.08616 
L 109.023751 -161.812219 
L 107.508142 -162.620203 
L 105.992532 -163.40777 
L 104.476922 -164.159628 
L 102.961312 -165.02092 
L 101.445703 -165.806137 
L 99.930093 -166.597096 
L 98.414483 -167.382341 
L 96.898873 -168.304795 
L 95.383264 -169.143161 
L 93.867654 -169.885074 
L 92.352044 -170.999765 
L 90.836434 -171.758931 
L 89.320824 -172.662334 
L 87.805215 -173.399666 
L 86.289605 -174.228177 
L 84.773995 -174.964838 
L 83.258385 -176.123755 
L 81.742776 -177.42773 
L 80.227166 -178.259937 
L 78.711556 -179.334847 
L 77.195946 -180.177704 
L 75.680336 -180.985423 
L 74.164727 -181.825305 
L 72.649117 -182.603089 
L 71.133507 -183.415211 
L 69.617897 -184.423571 
L 68.102288 -185.46693 
L 66.586678 -186.314361 
L 65.071068 -187.189996 
L 63.555458 -188.088163 
L 62.039848 -189.108208 
L 60.524239 -189.992622 
L 59.008629 -190.772456 
L 57.493019 -191.548716 
L 55.977409 -192.436361 
L 54.4618 -193.370651 
z
" style="stroke: #ffffff; stroke-opacity: 0.15; stroke-width: 0.8"/>
    </defs>
    <g clip-path="url(#p5da89f57a5)">
     <use xlink:href="#m8f984bc2f2" x="0" y="240.835219" style="fill: #fca5a5; fill-opacity: 0.15; stroke: #ffffff; stroke-opacity: 0.15; stroke-width: 0.8"/>
    </g>
   </g>
   <g id="line2d_1">
    <path d="M 54.4618 64.949478 
L 55.977409 65.632206 
L 57.493019 66.314933 
L 59.008629 66.99766 
L 60.524239 67.680388 
L 62.039848 68.363115 
L 63.555458 69.045842 
L 65.071068 69.72857 
L 66.586678 70.411297 
L 68.102288 71.094024 
L 69.617897 71.776752 
L 71.133507 72.459479 
L 72.649117 73.142206 
L 74.164727 73.824934 
L 75.680336 74.507661 
L 77.195946 75.190389 
L 78.711556 75.873116 
L 80.227166 76.555843 
L 81.742776 77.238571 
L 83.258385 77.921298 
L 84.773995 78.604025 
L 86.289605 79.286753 
L 87.805215 79.96948 
L 89.320824 80.652207 
L 90.836434 81.334935 
L 92.352044 82.017662 
L 93.867654 82.700389 
L 95.383264 83.383117 
L 96.898873 84.065844 
L 98.414483 84.748571 
L 99.930093 85.431299 
L 101.445703 86.114026 
L 102.961312 86.796753 
L 104.476922 87.479481 
L 105.992532 88.162208 
L 107.508142 88.844936 
L 109.023751 89.527663 
L 110.539361 90.21039 
L 112.054971 90.893118 
L 113.570581 91.575845 
L 115.086191 92.258572 
L 116.6018 92.9413 
L 118.11741 93.624027 
L 119.63302 94.306754 
L 121.14863 94.989482 
L 122.664239 95.672209 
L 124.179849 96.354936 
L 125.695459 97.037664 
L 127.211069 97.720391 
L 128.726679 98.403118 
L 130.242288 99.085846 
L 131.757898 99.768573 
L 133.273508 100.4513 
L 134.789118 101.134028 
L 136.304727 101.816755 
L 137.820337 102.499483 
L 139.335947 103.18221 
L 140.851557 103.864937 
L 142.367166 104.547665 
L 143.882776 105.230392 
L 145.398386 105.913119 
L 146.913996 106.595847 
L 148.429606 107.278574 
L 149.945215 107.961301 
L 151.460825 108.644029 
L 152.976435 109.326756 
L 154.492045 110.009483 
L 156.007654 110.692211 
L 157.523264 111.374938 
L 159.038874 112.057665 
L 160.554484 112.740393 
L 162.070094 113.42312 
L 163.585703 114.105847 
L 165.101313 114.788575 
L 166.616923 115.471302 
L 168.132533 116.15403 
L 169.648142 116.836757 
L 171.163752 117.519484 
L 172.679362 118.202212 
L 174.194972 118.884939 
L 175.710582 119.567666 
L 177.226191 120.250394 
L 178.741801 120.933121 
L 180.257411 121.615848 
L 181.773021 122.298576 
L 183.28863 122.981303 
L 184.80424 123.66403 
L 186.31985 124.346758 
L 187.83546 125.029485 
L 189.351069 125.712212 
L 190.866679 126.39494 
L 192.382289 127.077667 
L 193.897899 127.760394 
L 195.413509 128.443122 
L 196.929118 129.125849 
L 198.444728 129.808577 
L 199.960338 130.491304 
L 201.475948 131.174031 
L 202.991557 131.856759 
L 204.507167 132.539486 
" clip-path="url(#p5da89f57a5)" style="fill: none; stroke: #fca5a5; stroke-width: 3; stroke-linecap: round"/>
   </g>
   <g id="patch_3">
    <path d="M 46.959531 168.648187 
L 46.959531 36.612187 
" style="fill: none; stroke: #cccccc; stroke-linejoin: miter; stroke-linecap: square"/>
   </g>
   <g id="patch_4">
    <path d="M 46.959531 168.648188 
L 212.009436 168.648188 
" style="fill: none; stroke: #cccccc; stroke-linejoin: miter; stroke-linecap: square"/>
   </g>
   <g id="text_8">
    <!-- r = -0.64 ± (-0.81, -0.35),  -->
    <g style="fill: #262626" transform="translate(56.739327 16.663594) scale(0.13 -0.13)">
     <defs>
      <path id="ArialMT-3d" d="M 3381 2694 
L 356 2694 
L 356 3219 
L 3381 3219 
L 3381 2694 
z
M 3381 1303 
L 356 1303 
L 356 1828 
L 3381 1828 
L 3381 1303 
z
" transform="scale(0.015625)"/>
      <path id="ArialMT-2d" d="M 203 1375 
L 203 1941 
L 1931 1941 
L 1931 1375 
L 203 1375 
z
" transform="scale(0.015625)"/>
      <path id="ArialMT-36" d="M 3184 3459 
L 2625 3416 
Q 2550 3747 2413 3897 
Q 2184 4138 1850 4138 
Q 1581 4138 1378 3988 
Q 1113 3794 959 3422 
Q 806 3050 800 2363 
Q 1003 2672 1297 2822 
Q 1591 2972 1913 2972 
Q 2475 2972 2870 2558 
Q 3266 2144 3266 1488 
Q 3266 1056 3080 686 
Q 2894 316 2569 119 
Q 2244 -78 1831 -78 
Q 1128 -78 684 439 
Q 241 956 241 2144 
Q 241 3472 731 4075 
Q 1159 4600 1884 4600 
Q 2425 4600 2770 4297 
Q 3116 3994 3184 3459 
z
M 888 1484 
Q 888 1194 1011 928 
Q 1134 663 1356 523 
Q 1578 384 1822 384 
Q 2178 384 2434 671 
Q 2691 959 2691 1453 
Q 2691 1928 2437 2201 
Q 2184 2475 1800 2475 
Q 1419 2475 1153 2201 
Q 888 1928 888 1484 
z
" transform="scale(0.015625)"/>
      <path id="ArialMT-34" d="M 2069 0 
L 2069 1097 
L 81 1097 
L 81 1613 
L 2172 4581 
L 2631 4581 
L 2631 1613 
L 3250 1613 
L 3250 1097 
L 2631 1097 
L 2631 0 
L 2069 0 
z
M 2069 1613 
L 2069 3678 
L 634 1613 
L 2069 1613 
z
" transform="scale(0.015625)"/>
      <path id="ArialMT-b1" d="M 1491 813 
L 1491 2072 
L 244 2072 
L 244 2594 
L 1491 2594 
L 1491 3841 
L 2022 3841 
L 2022 2594 
L 3269 2594 
L 3269 2072 
L 2022 2072 
L 2022 813 
L 1491 813 
z
M 3269 0 
L 244 0 
L 244 525 
L 3269 525 
L 3269 0 
z
" transform="scale(0.015625)"/>
      <path id="ArialMT-28" d="M 1497 -1347 
Q 1031 -759 709 28 
Q 388 816 388 1659 
Q 388 2403 628 3084 
Q 909 3875 1497 4659 
L 1900 4659 
Q 1522 4009 1400 3731 
Q 1209 3300 1100 2831 
Q 966 2247 966 1656 
Q 966 153 1900 -1347 
L 1497 -1347 
z
" transform="scale(0.015625)"/>
      <path id="ArialMT-2c" d="M 569 0 
L 569 641 
L 1209 641 
L 1209 0 
Q 1209 -353 1084 -570 
Q 959 -788 688 -906 
L 531 -666 
Q 709 -588 793 -436 
Q 878 -284 888 0 
L 569 0 
z
" transform="scale(0.015625)"/>
      <path id="ArialMT-35" d="M 266 1200 
L 856 1250 
Q 922 819 1161 601 
Q 1400 384 1738 384 
Q 2144 384 2425 690 
Q 2706 997 2706 1503 
Q 2706 1984 2436 2262 
Q 2166 2541 1728 2541 
Q 1456 2541 1237 2417 
Q 1019 2294 894 2097 
L 366 2166 
L 809 4519 
L 3088 4519 
L 3088 3981 
L 1259 3981 
L 1013 2750 
Q 1425 3038 1878 3038 
Q 2478 3038 2890 2622 
Q 3303 2206 3303 1553 
Q 3303 931 2941 478 
Q 2500 -78 1738 -78 
Q 1113 -78 717 272 
Q 322 622 266 1200 
z
" transform="scale(0.015625)"/>
      <path id="ArialMT-29" d="M 791 -1347 
L 388 -1347 
Q 1322 153 1322 1656 
Q 1322 2244 1188 2822 
Q 1081 3291 891 3722 
Q 769 4003 388 4659 
L 791 4659 
Q 1378 3875 1659 3084 
Q 1900 2403 1900 1659 
Q 1900 816 1576 28 
Q 1253 -759 791 -1347 
z
" transform="scale(0.015625)"/>
     </defs>
     <use xlink:href="#ArialMT-72"/>
     <use xlink:href="#ArialMT-20" transform="translate(33.300781 0)"/>
     <use xlink:href="#ArialMT-3d" transform="translate(61.083984 0)"/>
     <use xlink:href="#ArialMT-20" transform="translate(119.482422 0)"/>
     <use xlink:href="#ArialMT-2d" transform="translate(147.265625 0)"/>
     <use xlink:href="#ArialMT-30" transform="translate(180.566406 0)"/>
     <use xlink:href="#ArialMT-2e" transform="translate(236.181641 0)"/>
     <use xlink:href="#ArialMT-36" transform="translate(263.964844 0)"/>
     <use xlink:href="#ArialMT-34" transform="translate(319.580078 0)"/>
     <use xlink:href="#ArialMT-20" transform="translate(375.195312 0)"/>
     <use xlink:href="#ArialMT-b1" transform="translate(402.978516 0)"/>
     <use xlink:href="#ArialMT-20" transform="translate(457.861328 0)"/>
     <use xlink:href="#ArialMT-28" transform="translate(485.644531 0)"/>
     <use xlink:href="#ArialMT-2d" transform="translate(518.945312 0)"/>
     <use xlink:href="#ArialMT-30" transform="translate(552.246094 0)"/>
     <use xlink:href="#ArialMT-2e" transform="translate(607.861328 0)"/>
     <use xlink:href="#ArialMT-38" transform="translate(635.644531 0)"/>
     <use xlink:href="#ArialMT-31" transform="translate(691.259766 0)"/>
     <use xlink:href="#ArialMT-2c" transform="translate(746.875 0)"/>
     <use xlink:href="#ArialMT-20" transform="translate(774.658203 0)"/>
     <use xlink:href="#ArialMT-2d" transform="translate(802.441406 0)"/>
     <use xlink:href="#ArialMT-30" transform="translate(835.742188 0)"/>
     <use xlink:href="#ArialMT-2e" transform="translate(891.357422 0)"/>
     <use xlink:href="#ArialMT-33" transform="translate(919.140625 0)"/>
     <use xlink:href="#ArialMT-35" transform="translate(974.755859 0)"/>
     <use xlink:href="#ArialMT-29" transform="translate(1030.371094 0)"/>
     <use xlink:href="#ArialMT-2c" transform="translate(1063.671875 0)"/>
     <use xlink:href="#ArialMT-20" transform="translate(1091.455078 0)"/>
    </g>
    <!-- p = 0.026 -->
    <g style="fill: #262626" transform="translate(102.197687 30.612187) scale(0.13 -0.13)">
     <defs>
      <path id="ArialMT-70" d="M 422 -1272 
L 422 3319 
L 934 3319 
L 934 2888 
Q 1116 3141 1344 3267 
Q 1572 3394 1897 3394 
Q 2322 3394 2647 3175 
Q 2972 2956 3137 2557 
Q 3303 2159 3303 1684 
Q 3303 1175 3120 767 
Q 2938 359 2589 142 
Q 2241 -75 1856 -75 
Q 1575 -75 1351 44 
Q 1128 163 984 344 
L 984 -1272 
L 422 -1272 
z
M 931 1641 
Q 931 1000 1190 694 
Q 1450 388 1819 388 
Q 2194 388 2461 705 
Q 2728 1022 2728 1688 
Q 2728 2322 2467 2637 
Q 2206 2953 1844 2953 
Q 1484 2953 1207 2617 
Q 931 2281 931 1641 
z
" transform="scale(0.015625)"/>
     </defs>
     <use xlink:href="#ArialMT-70"/>
     <use xlink:href="#ArialMT-20" transform="translate(55.615234 0)"/>
     <use xlink:href="#ArialMT-3d" transform="translate(83.398438 0)"/>
     <use xlink:href="#ArialMT-20" transform="translate(141.796875 0)"/>
     <use xlink:href="#ArialMT-30" transform="translate(169.580078 0)"/>
     <use xlink:href="#ArialMT-2e" transform="translate(225.195312 0)"/>
     <use xlink:href="#ArialMT-30" transform="translate(252.978516 0)"/>
     <use xlink:href="#ArialMT-32" transform="translate(308.59375 0)"/>
     <use xlink:href="#ArialMT-36" transform="translate(364.208984 0)"/>
    </g>
   </g>
  </g>
 </g>
 <defs>
  <clipPath id="p5da89f57a5">
   <rect x="46.959531" y="36.612187" width="165.049904" height="132.036"/>
  </clipPath>
 </defs>
</svg>
